<?xml version="1.0" encoding="UTF-8" standalone="no"?>
<svg width="484px" height="203px" viewBox="0 0 484 203" version="1.1" xmlns="http://www.w3.org/2000/svg" xmlns:xlink="http://www.w3.org/1999/xlink" xmlns:sketch="http://www.bohemiancoding.com/sketch/ns">
    <!-- Generator: Sketch 3.2 (9961) - http://www.bohemiancoding.com/sketch -->
    <title>xamarin-logo</title>
    <desc>Created with Sketch.</desc>
    <defs></defs>
    <g id="Page-1" stroke="none" stroke-width="1" fill="none" fill-rule="evenodd" sketch:type="MSPage">
        <g id="xamarin-logo" sketch:type="MSArtboardGroup" fill="#3498DB">
            <path d="M201.830343,127.22472 L191.514207,107.430391 L180.962593,127.22472 L169.616332,127.22472 L185.703693,101.677943 L171.226018,76.2884425 L182.729307,76.2884425 L192.122673,95.5780614 L202.301425,76.2884425 L212.823261,76.2884425 L197.952956,101.520655 L213.05874,127.22472 L201.830343,127.22472 Z M238.615791,127.22472 L238.615791,121.680992 L238.458639,121.680992 C235.658046,126.0321 231.692824,128.207647 226.56272,128.207647 C222.610509,128.207647 219.495862,127.132993 217.218777,124.983648 C214.941692,122.808088 213.803087,119.898603 213.803087,116.255219 C213.803087,108.44418 218.187216,104.001346 226.955351,102.926642 L238.694242,101.314636 C238.694242,95.8364586 236.155404,93.0973823 231.077726,93.0973318 C226.235652,93.0973823 221.786084,94.5914216 217.729147,97.5795129 L217.729147,89.5587811 C219.247245,88.641416 221.419604,87.8157521 224.246347,87.0817767 C227.099365,86.3479023 229.690504,85.9809461 232.020015,85.9808956 C242.384699,85.9809461 247.566978,91.2232542 247.567103,101.70782 L247.567103,127.22472 L238.615666,127.22472 L238.615791,127.22472 Z M230.017697,108.784921 C227.321831,109.125688 225.424239,109.794089 224.324923,110.790098 C223.251757,111.75993 222.715236,113.267102 222.715236,115.311601 C222.715236,116.989131 223.330333,118.365255 224.560527,119.439921 C225.790595,120.48836 227.400282,121.012604 229.389463,121.012604 C232.085329,121.012604 234.310113,120.082081 236.063815,118.221073 C237.817391,116.360053 238.694242,114.040349 238.694242,111.261913 L238.694242,107.644718 L230.017697,108.784921 L230.017697,108.784921 Z M305.452278,127.22472 L305.452278,104.499326 C305.452152,100.75112 304.86333,97.9726964 303.685563,96.1640926 C302.53382,94.3293119 300.466064,93.4118963 297.482418,93.4118584 C295.100482,93.4118963 293.098289,94.5127773 291.475588,96.7145142 C289.852764,98.890112 289.041352,101.524367 289.041352,104.617292 L289.041352,127.22472 L279.9723,127.22472 L279.9723,103.712997 C279.972176,96.8456006 277.341747,93.4118963 272.080892,93.4118584 C269.620629,93.4118963 267.592161,94.4472531 265.995487,96.5179413 C264.425087,98.5886801 263.639951,101.288447 263.639951,104.617292 L263.639951,127.22472 L254.570775,127.22472 L254.570775,86.9638481 L263.639951,86.9638481 L263.639951,93.1759761 L263.796978,93.1759761 C266.702297,88.3793063 270.942412,85.9809461 276.517448,85.9808956 C279.187038,85.9809461 281.542699,86.6886563 283.584306,88.1040513 C285.651937,89.4932821 287.104597,91.4198271 287.94216,93.8836736 C291.004506,88.6152013 295.506376,85.9809461 301.447766,85.9808956 C310.189624,85.9809461 314.560617,91.4329471 314.560742,102.336911 L314.560742,127.22472 L305.452278,127.22472 L305.452278,127.22472 Z M344.711123,127.22472 L344.711123,121.680992 L344.553974,121.680992 C341.75338,126.0321 337.788029,128.207647 332.658049,128.207647 C328.705843,128.207647 325.591196,127.132993 323.314111,124.983648 C321.037026,122.808088 319.898422,119.898603 319.898422,116.255219 C319.898422,108.44418 324.282551,104.001346 333.050689,102.926642 L344.789578,101.314636 C344.789578,95.8364586 342.25074,93.0973823 337.173063,93.0973318 C332.330864,93.0973823 327.881419,94.5914216 323.824481,97.5795129 L323.824481,89.5587811 C325.342579,88.641416 327.514938,87.8157521 330.341676,87.0817767 C333.194574,86.3479023 335.785842,85.9809461 338.115227,85.9808956 C348.480033,85.9809461 353.662317,91.2232542 353.662443,101.70782 L353.662443,127.22472 L344.710997,127.22472 L344.711123,127.22472 Z M336.113027,108.784921 C333.417039,109.125688 331.519571,109.794089 330.420257,110.790098 C329.347091,111.75993 328.810571,113.267102 328.810571,115.311601 C328.810571,116.989131 329.425667,118.365255 330.655862,119.439921 C331.885934,120.48836 333.49562,121.012604 335.484795,121.012604 C338.180669,121.012604 340.405449,120.082081 342.159146,118.221073 C343.912729,116.360053 344.789578,114.040349 344.789578,111.261913 L344.789578,107.644718 L336.113027,108.784921 L336.113027,108.784921 Z M384.041424,95.8102186 C382.549596,94.8928409 380.795899,94.4341583 378.78056,94.4341331 C376.163153,94.4341583 374.030081,95.5612541 372.381104,97.8154078 C370.758404,100.069625 369.946985,103.005324 369.946985,106.622481 L369.946985,127.22472 L360.877819,127.22472 L360.877819,86.9638481 L369.946985,86.9638481 L369.946985,94.7879692 L370.104147,94.7879692 C372.040893,89.1001238 375.469731,86.2561759 380.390372,86.2561254 C381.98692,86.2561759 383.203979,86.4396161 384.04155,86.8065848 L384.04155,95.8102186 L384.041424,95.8102186 Z M393.069811,77.9602017 C391.525554,77.960227 390.216914,77.4622223 389.143739,76.4661245 C388.070703,75.4439509 387.534179,74.1988761 387.534179,72.7309884 C387.534179,71.2107722 388.070703,69.9395079 389.143739,68.9172332 C390.216914,67.8950091 391.525554,67.383897 393.069811,67.3838339 C394.640207,67.383897 395.961987,67.9081417 397.035149,68.9565427 C398.108198,69.97883 398.644836,71.236987 398.644836,72.7309884 C398.644836,74.1988761 398.108198,75.4439509 397.035149,76.4661245 C395.961987,77.4622223 394.640207,77.960227 393.069811,77.9602017 Z M388.437065,127.22472 L388.437065,86.9638481 L397.506231,86.9638481 L397.506231,127.22472 L388.437065,127.22472 Z M431.782371,127.22472 L431.782371,104.617292 C431.782371,97.1470451 429.099523,93.4118963 423.734064,93.4118584 C421.038077,93.4118963 418.77412,94.4472531 416.941968,96.5179413 C415.135968,98.5624654 414.232968,101.170518 414.232968,104.342062 L414.232968,127.22472 L405.163789,127.22472 L405.163789,86.9638481 L414.232968,86.9638481 L414.232968,93.4118584 L414.390117,93.4118584 C417.321596,88.4579253 421.666308,85.9809461 427.42452,85.9808956 C436.375953,85.9809461 440.85155,91.4853387 440.851676,102.494174 L440.851676,127.22472 L431.782497,127.22472 L431.782371,127.22472 Z M71.4311121,56 C68.6763107,56.0058575 65.9796704,57.5737917 64.5928855,59.965729 L43.0238921,97.5342563 C41.6587026,99.9325978 41.6587026,103.067402 43.0238921,105.465744 L64.5928855,143.034271 C65.9798162,145.426228 68.6763107,146.994582 71.4311121,147 L114.568946,147 C117.323748,146.994143 120.020241,145.426228 121.407172,143.034271 L142.976161,105.465744 C144.34135,103.067402 144.341209,99.9325978 142.976161,97.5342563 L121.407172,59.965729 C120.020241,57.5737917 117.323748,56.0054182 114.568946,56 L71.4311121,56 Z M71.8225901,77.9780432 C71.8818491,77.9721857 71.9440029,77.9721857 72.0034464,77.9780432 L79.444074,77.9780432 C79.773437,77.9848769 80.0929203,78.1757336 80.2573978,78.4623994 L92.8795281,101.015639 C92.9430615,101.127146 92.9839987,101.251384 92.9995323,101.378901 C93.0150756,101.251354 93.055974,101.127107 93.1195365,101.015639 L105.711456,78.4623994 C105.881153,78.167045 106.215602,77.975134 106.554853,77.9780432 L113.995483,77.9780432 C114.654359,77.9839007 115.147775,78.8160066 114.839019,79.4008677 L102.518299,101.500005 L114.839019,123.568869 C115.176999,124.157088 114.671442,125.027775 113.995483,125.021957 L106.554853,125.021957 C106.209673,125.019028 105.873247,124.81384 105.711456,124.507327 L93.1195365,101.954088 C93.0560031,101.84258 93.0150659,101.718333 92.9995323,101.590825 C92.983989,101.718363 92.9430906,101.842629 92.8795281,101.954088 L80.2573978,124.507327 C80.1004103,124.805171 79.7792269,125.008397 79.444074,125.021957 L72.0034464,125.021957 C71.3274867,125.027814 70.8220664,124.157088 71.1600463,123.568869 L83.4807624,101.500005 L71.1600463,79.4008677 C70.8647037,78.86725 71.2250368,78.0919422 71.8225901,77.9780432 L71.8225901,77.9780432 Z" id="Logo" sketch:type="MSShapeGroup"></path>
        </g>
    </g>
</svg>