<?xml version="1.0" encoding="utf-8"?>
<!-- Generator: Adobe Illustrator 21.0.0, SVG Export Plug-In . SVG Version: 6.00 Build 0)  -->
<svg version="1.1" id="Layer_1" xmlns="http://www.w3.org/2000/svg" xmlns:xlink="http://www.w3.org/1999/xlink" x="0px" y="0px"
	 viewBox="0 0 792 612" style="enable-background:new 0 0 792 612;" xml:space="preserve">
<style type="text/css">
	.st0{fill:#242021;}
	.st1{fill:#F6971D;}
	.st2{fill:#252122;}
</style>
<g>
	<path class="st0" d="M393,67.7c-59.9,0-108.4,48.5-108.4,108.4S333.1,284.5,393,284.5c59.9,0,108.4-48.5,108.4-108.4
		S452.9,67.7,393,67.7z M393,272.7c-53.3,0-96.6-43.2-96.6-96.6c0-53.3,43.2-96.6,96.6-96.6c53.3,0,96.6,43.2,96.6,96.6
		C489.6,229.4,446.3,272.7,393,272.7z"/>
	<g>
		<path class="st1" d="M381.5,223.2c0-0.7,0.1-1.4,0.1-2c0-35.6,0-71.1,0.1-106.7c0-0.6,0-1.2,0-2c8.8-4.5,17.6-9,26.6-13.5
			c0,43.6,0,87,0,130.4c-6.5,3.9-13,7.9-19.6,11.8c-2.3,1.4-4.7,2.7-7.1,4.1C381.5,237.9,381.5,230.6,381.5,223.2z"/>
		<path class="st2" d="M381.5,223.2c0,7.3,0,14.6,0.1,22c-6-0.8-11.7-2.5-17.2-4.8c-11.8-4.8-21.9-11.8-29.4-22.3
			c-13.1-18.4-12-41.1,2.7-58.3c10.2-11.9,23.3-18.9,38.4-23.3c0,7.5,0,14.9,0,22.4c-1.5,0.6-3.1,1.3-4.7,2
			c-6.9,3.2-13,7.4-17.9,13.4c-8.2,10.2-8.2,22.2,0,32.4c6.4,7.8,14.8,12.4,24.3,15.4C379,222.6,380.3,222.9,381.5,223.2z"/>
		<path class="st2" d="M442,142.3c1.4-2.6,2.7-5.1,4.1-7.9c6.4,10.1,12.8,20.1,19.2,30.3c-12.8,2.3-25.4,4.5-38.4,6.9
			c1.8-3.5,3.5-6.8,5.2-10.1c-5.9-2.8-11.9-4.6-18.3-5.6c0-7.2,0-14.4,0-21.5C419.5,134.4,428.7,137,442,142.3z"/>
	</g>
	<path class="st0" d="M750,364.1c-0.5,0.9-1,1.8-1.3,2.8c-11.8,29.6-23.6,59.1-35.6,88.7c-5,12.4-11.1,24.1-19.5,34.7
		c-5.4,6.8-11.5,12.6-19.5,16.2c-4.3,1.9-9.4,3-13,2.7c0-10,0-20.1,0-30.1c11.4-0.9,19.6-10.9,21.1-19.8c0.4-2.2,0.2-4.3-0.7-6.5
		c-11.3-29.1-22.5-58.3-33.7-87.4c-0.2-0.6-0.4-1.2-0.7-1.9c4.4,0,8.8,0,13.1,0c4.2,0,8.4,0.1,12.6,0c1.2,0,1.8,0.4,2.2,1.5
		c7.3,17.3,14.6,34.6,21.9,51.9c0.2,0.5,0.4,0.9,0.8,1.5c5.6-13.3,11.1-26.4,16.6-39.4c2-4.7,4-9.4,5.9-14.1c0.4-1,0.9-1.3,2-1.3
		c9.2,0,18.4,0,27.7,0C750,363.7,750,363.9,750,364.1z"/>
	<path class="st1" d="M247.7,549.3c-2-0.5-4.1-0.8-6.1-1.4c-6.6-2.2-11.6-6.2-13.5-13.3c-0.2-0.8-0.2-1.7-0.3-2.6
		c4.6,0,8.9,0,13.4,0c0.8,3.2,2.6,5.6,6,6.5c3.9,1.1,7.7,0.7,11-1.8c3.1-2.3,3.2-6.2-0.2-8c-2.7-1.5-5.8-2.3-8.8-2.9
		c-4.4-0.9-8.8-1.5-13-3.4c-9.6-4.4-9.4-14.3-4-20.3c3.9-4.4,8.9-6.6,14.7-7.2c6.1-0.7,12.1-0.1,17.6,2.8c4,2.1,6.9,5.2,7.7,9.8
		c0.1,0.4,0.1,0.8,0.1,1.3c-0.5,0-0.9,0.1-1.3,0.1c-2.7,0-5.4,0-8,0c-1.8,0-3.2,0-4.6-1.7c-3.1-3.5-11.5-3-14.7,0.4
		c-2.5,2.7-1.8,5.9,1.7,6.9c3.4,0.9,7.1,1.1,10.5,2c3.6,0.9,7.3,1.8,10.7,3.4c8.5,4,10.6,16,2.7,22.9c-3.9,3.4-8.6,5.3-13.7,6.1
		c-0.4,0.1-0.9,0.2-1.3,0.3C252.1,549.3,249.9,549.3,247.7,549.3z"/>
	<path class="st0" d="M46.8,334.1c0.2-0.6,0.5-1.2,0.6-1.9c2.4-8.3,10.9-13.3,19.3-11.4c8,1.8,13.7,10.1,12.4,18.1
		c-1.4,8.8-8.8,14.7-17.5,13.9c-7.1-0.6-12.9-5.8-14.5-12.7c-0.1-0.3-0.2-0.6-0.3-0.9C46.8,337.5,46.8,335.8,46.8,334.1z"/>
	<path class="st0" d="M170.2,370.1c0-13.6,0-27.1,0-40.6c9.3,0,18.5,0,27.9,0c0,42.1,0,84.3,0,126.5c-9.2,0-18.4,0-27.9,0
		c0-2.2,0-4.4,0-7c-13.1,9-27,12.5-42.4,8.5c-11.5-3-20.8-9.5-27.9-19.1c-13.8-18.6-12.7-42.7,2.4-60.8
		C115.8,361.6,143.8,351.5,170.2,370.1z M115,409.6c0,13.6,11.2,25.2,24.1,25.1c14.4-0.1,25.6-11,25.6-25.1
		c0-13.8-11.2-24.9-24.9-24.9C126.2,384.7,115,395.9,115,409.6z"/>
	<path class="st0" d="M324.4,363.5c9.3,0,18.4,0,27.8,0c0,2.3,0,4.5,0,7.1c0.6-0.5,1-0.8,1.4-1.1c7.6-6.5,16.3-9.6,26.2-9
		c7.3,0.4,14.3,1.6,20.9,5c10.9,5.6,16.9,14.8,20,26.3c1.6,6,2.2,12.1,2.2,18.2c0,15,0,30,0,44.9c0,0.3,0,0.6,0,0.9
		c-9.3,0-18.5,0-27.9,0c0-0.6,0-1.2,0-1.8c0-14.5,0-28.9,0-43.4c0-3.1-0.2-6.2-0.8-9.2c-1.6-8-6.7-12.7-15-13.5
		c-3.4-0.3-7-0.5-10.3,0.2c-8.9,1.8-15.6,9.9-16.2,19c-0.1,1.4-0.2,2.8-0.2,4.3c0,14.1,0,28.2,0,42.4c0,0.6,0,1.2,0,2
		c-9.4,0-18.7,0-28.1,0C324.4,425.2,324.4,394.4,324.4,363.5z"/>
	<path class="st0" d="M308.5,419.5c-22.9,0-45.7,0-68.6,0c3.1,7.6,8.5,12.6,16.1,14.9c11,3.3,20.2-0.3,28-8.5
		c6.7,4.1,13.3,8.2,20.1,12.4c-8.9,10.2-19,18.1-32.6,20.2c-21.9,3.4-42.7-7.4-52.2-27.2c-14.6-30.4,5.1-63.9,34.8-69.9
		c24.1-4.9,45.5,8.5,52.8,32.7C309.4,402.4,310,411.9,308.5,419.5z M239.9,401.6c15.3,0,30.4,0,45.6,0c0-3.8-1.5-7.3-4.4-10.3
		c-6.4-6.5-14.1-8.7-23-6.9c-6.2,1.2-11.6,4-15.4,9.2C240.9,396,239.8,398.6,239.9,401.6z"/>
	<path class="st0" d="M569.4,363.8c4.5,0,8.9,0,13.5,0c0-11.4,0-22.9,0-34.4c9.7,0,19.2,0,28.9,0c0,11.4,0,22.8,0,34.3
		c8.4,0,16.7,0,25,0c0,7.1,0,14,0,21.2c-8.2,0-16.5,0-24.8,0c-0.1,0.3-0.2,0.4-0.2,0.6c0,11.1,0,22.2,0.2,33.3
		c0,2.1,0.5,4.2,1.1,6.2c1.3,4.6,4.6,7,9.3,7.5c2.2,0.2,4.4,0.3,6.7,0.5c0,8.2,0,16.4,0,25c-3.2,0.3-6.4,0.7-9.6,1
		c-5.7,0.4-11.4-0.1-16.8-1.9c-10.7-3.7-16.5-11.6-18.7-22.4c-0.7-3.5-1-7.1-1-10.7c-0.1-12.3,0-24.6,0-36.9c0-0.6,0-1.2,0-2
		c-4.5,0-9,0-13.6,0C569.4,377.9,569.4,370.9,569.4,363.8z"/>
	<path class="st0" d="M450.4,363.8c0-11.6,0-23,0-34.5c9.6,0,19.2,0,28.8,0c0,11.4,0,22.8,0,34.3c8.4,0,16.7,0,25.1,0
		c0,7.1,0,14.1,0,21.2c-8.3,0-16.6,0-24.8,0c-0.1,0.3-0.2,0.4-0.2,0.5c0,11.1,0,22.2,0.2,33.3c0,2.1,0.5,4.2,1.1,6.2
		c1.3,4.6,4.5,7.1,9.2,7.6c2.2,0.2,4.4,0.3,6.8,0.5c0,8.2,0,16.4,0,24.9c-1.8,0.3-3.6,0.6-5.5,0.8c-6.3,0.7-12.6,0.7-18.8-1
		c-11.8-3.2-18.3-11.3-20.7-22.9c-0.7-3.5-1-7.2-1.1-10.8c-0.1-12.3,0-24.6,0-36.9c0-0.6,0-1.2,0-1.9c-4.6,0-9,0-13.5,0
		c0-7.1,0-14,0-21.2C441.2,363.8,445.7,363.8,450.4,363.8z"/>
	<path class="st0" d="M77.2,363.9c0,30.7,0,61.3,0,92c-9.3,0-18.5,0-27.9,0c0-30.6,0-61.3,0-92C58.6,363.9,67.8,363.9,77.2,363.9z"
		/>
	<path class="st0" d="M523.9,363.9c9.3,0,18.5,0,27.8,0c0,30.7,0,61.4,0,92.1c-9.2,0-18.5,0-27.8,0
		C523.9,425.3,523.9,394.7,523.9,363.9z"/>
	<path class="st1" d="M354,535c0,4.4,0,8.6,0,12.9c-4.2,0-8.4,0-12.6,0c0-17.2,0-34.4,0-51.8c0.6,0,1.2,0,1.8,0c7.5,0,15,0,22.5,0
		c9.8,0,17.5,6.7,19,16.4c1,6.4-0.1,12.1-4.8,16.8c-1.1,1.1-2.5,2-3.9,3.1c3.6,5,7.3,10.1,11.1,15.4c-0.6,0.1-1,0.1-1.4,0.1
		c-4.2,0-8.4,0-12.6,0c-1.1,0-1.7-0.3-2.3-1.2c-2.3-3.6-4.6-7-6.9-10.6c-0.5-0.9-1.1-1.3-2.2-1.2C359.2,535,356.7,535,354,535z
		 M354.1,523.6c0.7,0,1.3,0,1.9,0c3.2,0,6.5,0.1,9.7-0.2c3.9-0.3,6.4-3,6.6-6.6c0.2-3.9-2.3-7.3-6.1-7.8c-3.5-0.4-7-0.2-10.5-0.3
		c-0.5,0-1,0.1-1.5,0.1C354.1,513.8,354.1,518.6,354.1,523.6z"/>
	<path class="st1" d="M520.8,535c0,4.4,0,8.6,0,12.9c-4.2,0-8.4,0-12.6,0c0-17.2,0-34.4,0-51.8c0.6,0,1.2,0,1.7,0c7.5,0,15,0,22.5,0
		c9.9,0,17.6,6.7,19,16.5c0.8,5.7,0.1,10.9-3.7,15.4c-1.4,1.7-3.2,3-5,4.5c3.6,5,7.3,10.1,11.2,15.4c-5.2,0-10.2,0-15.1,0
		c-0.4,0-0.9-0.6-1.2-1c-2.4-3.6-4.8-7.2-7.1-10.8c-0.5-0.8-1.1-1.1-2.1-1.1C526,535,523.5,535,520.8,535z M520.8,523.6
		c3.2,0,6.3,0,9.4,0c0.7,0,1.5,0,2.2-0.1c4-0.5,6.6-3.2,6.6-6.9c0.1-3.7-2.6-7.1-6.3-7.5c-3.3-0.4-6.7-0.2-10-0.3
		c-0.6,0-1.2,0-1.8,0C520.8,513.8,520.8,518.5,520.8,523.6z"/>
	<path class="st1" d="M288.5,496.1c13,0,25.8,0,38.8,0c0,3.7,0,7.3,0,11.1c-8.7,0-17.5,0-26.3,0c0,3.2,0,6.1,0,9.3
		c6.9,0,13.8,0,20.8,0c0,3.8,0,7.4,0,11.1c-6.9,0-13.7,0-20.7,0c0,3.1,0,6,0,9.2c8.7,0,17.4,0,26.3,0c0,3.8,0,7.4,0,11.1
		c-12.9,0-25.8,0-38.8,0C288.5,530.7,288.5,513.4,288.5,496.1z"/>
	<path class="st1" d="M467.4,536.8c8.8,0,17.5,0,26.3,0c0,3.8,0,7.4,0,11.1c-12.9,0-25.8,0-38.8,0c0-17.2,0-34.4,0-51.7
		c12.8,0,25.7,0,38.7,0c0,3.6,0,7.2,0,11c-8.7,0-17.4,0-26.3,0c0,3.2,0,6.2,0,9.3c6.9,0,13.8,0,20.7,0c0,3.8,0,7.4,0,11.2
		c-6.9,0-13.8,0-20.7,0C467.4,530.8,467.4,533.6,467.4,536.8z"/>
	<path class="st1" d="M390.2,496c4.5,0,8.9,0,13.3,0.1c0.5,0,1.1,0.8,1.4,1.4c4.3,9.4,8.5,18.9,12.7,28.3c0.3,0.6,0.5,1.1,0.9,1.9
		c0.4-0.8,0.6-1.3,0.9-1.9c4.2-9.4,8.5-18.9,12.6-28.3c0.5-1.1,1-1.5,2.2-1.5c4.1,0.1,8.2,0,12.6,0c-0.3,0.7-0.4,1.3-0.7,1.8
		c-6.9,16.3-13.9,32.5-20.8,48.8c-0.5,1.1-1,1.4-2.1,1.4c-3.2-0.1-6.5-0.1-9.7,0c-0.8,0-1.3-0.2-1.7-1
		c-7.1-16.7-14.3-33.4-21.5-50.2C390.2,496.6,390.2,496.5,390.2,496z"/>
	<path class="st0" d="M521.4,336.6c0-9,7.4-16.3,16.5-16.2c8.8,0,16,7.4,16,16.4c0,9-7.2,16.1-16.2,16.1
		C528.7,352.9,521.4,345.6,521.4,336.6z"/>
</g>
</svg>
