<svg width="363" height="112" viewBox="0 0 363 112" fill="none" xmlns="http://www.w3.org/2000/svg">
<path d="M299.368 111.698C293.648 111.698 288.743 111.077 284.566 109.835C281.996 110.67 279.233 111.098 276.298 111.098H268.094C263.767 111.098 259.612 109.963 255.97 107.864C252.329 109.963 248.195 111.098 243.889 111.098H179.822C175.838 111.098 171.982 110.113 168.426 108.249C164.763 110.134 160.758 111.098 156.559 111.098H76.9193C73.2136 111.098 69.5722 110.327 66.1449 108.871C62.9533 110.349 59.4619 111.098 55.7776 111.098H34.8715C34.6787 111.098 34.4859 111.098 34.2717 111.077C15.4648 111.077 0.149414 95.7829 0.149414 76.976C0.149414 65.9446 5.35452 55.8343 14.0083 49.494V28.6093C14.0297 13.3153 26.4748 0.891602 41.7688 0.891602H52.4789C56.5701 0.891602 60.5971 1.81267 64.517 3.63338C68.3298 1.85551 72.5496 0.913022 76.9621 0.913022H193.895C198.714 0.913022 203.341 2.26249 207.432 4.79007C212.209 2.24107 217.735 0.955862 223.947 0.934442C224.868 0.934442 225.854 0.934442 226.86 0.934442H227.16C228.081 0.934442 229.024 0.934442 229.902 0.934442H230.095C234.807 0.934442 239.198 1.83409 243.076 3.5477C246.931 1.83409 251.172 0.955862 255.542 0.955862H334.818C350.112 0.955862 362.536 13.3796 362.536 28.6736V83.3592C362.536 98.6532 350.112 111.077 334.818 111.077H325.308C321.837 111.077 318.603 110.541 315.647 109.513C310.806 110.97 305.365 111.698 299.411 111.698H299.368Z" fill="#512BD4"/>
<path d="M334.797 9.50249H255.521C250.894 9.50249 246.631 10.8305 243.011 13.3153C238.856 10.2736 234.015 9.48107 230.074 9.48107H224.012C217.093 9.48107 211.395 11.4946 207.047 15.4573C202.399 10.445 197.236 9.48107 193.895 9.48107H76.9622C72.2926 9.48107 68.0728 10.8948 64.6456 13.5081C61.2184 11.1947 57.0843 9.43823 52.4789 9.43823H41.7688C31.1873 9.43823 22.5764 18.0491 22.5764 28.6307V54.2278C14.1368 58.5547 8.71753 67.2298 8.71753 76.976C8.71753 91.0705 20.1987 102.552 34.2932 102.552C34.2932 102.552 47.7451 102.552 55.7991 102.552C59.6761 102.552 63.1462 101.288 65.9094 98.9959C69.2509 101.331 72.9995 102.552 76.9408 102.552H156.581C161.036 102.552 165.106 100.924 168.469 97.9035C171.875 100.945 175.731 102.552 179.843 102.552H243.911C248.666 102.552 253.079 100.388 256.013 96.8325C258.948 100.41 263.339 102.552 268.137 102.552H276.341C279.79 102.552 282.424 101.738 284.395 100.688C287.737 102.145 292.321 103.173 299.411 103.173C306.908 103.173 312.306 101.845 316.011 100.367C318.303 101.609 321.345 102.552 325.329 102.552H334.84C345.421 102.552 354.032 93.9408 354.032 83.3592V28.6735C354.032 18.092 345.421 9.48107 334.84 9.48107L334.797 9.50249Z" fill="#A895E9"/>
<path d="M55.7776 94.005C60.5543 94.005 62.6321 90.3208 63.5531 87.3219C63.8959 86.1653 65.4381 85.9725 66.0807 86.9578C68.0728 89.9995 71.6928 93.9836 76.9193 93.9836H156.559C162.279 93.9836 165.427 88.8642 166.927 85.3084C167.398 84.1946 168.919 84.1303 169.497 85.2013C171.339 88.7571 174.895 93.9836 179.822 93.9836H243.89C246.888 93.9836 249.566 92.0986 250.594 89.2926L253.636 80.9602C254.343 79.0109 257.084 78.9467 257.898 80.8745L261.497 89.5925C262.611 92.27 265.203 94.005 268.094 94.005H276.298C280.347 94.005 281.76 92.1415 282.66 91.1347C283.153 90.5778 283.967 90.4707 284.545 90.8991C286.366 92.27 289.215 94.6048 299.346 94.6048C308.45 94.6048 313.741 92.2914 315.99 90.7492C316.611 90.3208 317.468 90.4493 317.939 91.049C318.86 92.2914 320.916 93.9836 325.286 93.9836H334.797C340.687 93.9836 345.443 89.2283 345.443 83.3378V28.6735C345.443 22.783 340.687 18.0277 334.797 18.0277H255.521C249.266 18.0277 245.625 21.8191 243.825 24.5394C243.204 25.4605 241.833 25.3534 241.319 24.3467C239.798 21.305 237.121 18.0063 230.052 18.0063C228.124 18.0277 225.961 17.9849 224.033 18.0063C213.344 18.0063 209.981 24.1539 208.054 29.5303C207.604 30.7941 205.826 30.7727 205.376 29.5303C203.662 24.7108 200.171 18.0063 193.873 18.0063H76.9622C70.9217 18.0063 67.9443 21.6906 66.6376 24.0682C66.1664 24.9036 65.0311 25.0964 64.3671 24.4109C62.118 22.0761 57.4484 17.9849 52.4789 17.9849H41.7688C35.8783 17.9849 31.123 22.7401 31.123 28.6307V58.0192C31.123 59.2401 30.3305 60.3325 29.1738 60.6967C22.2765 62.8815 17.2642 69.329 17.2642 76.9546C17.2642 86.358 24.8897 94.005 34.3146 94.005C34.3146 94.005 47.7879 94.005 55.8205 94.005H55.7776Z" fill="white"/>
<path d="M205.547 81.0673L187.662 34.714H187.405C187.576 37.5629 187.662 40.4546 187.662 43.432V81.0673H184.449V30.8584H189.632L206.64 75.0054H206.833L223.84 30.8584H228.895V81.0458H225.511V43.0251C225.511 40.369 225.64 37.6272 225.897 34.7783H225.64L207.689 81.0673H205.569H205.547Z" fill="#512BD4"/>
<path d="M265.588 63.4812H246.096L239.391 81.0672H235.685L254.985 31.0297H257.127L276.041 81.0672H272.271L265.609 63.4812H265.588ZM247.295 60.3539H264.453L257.92 42.3824C257.363 40.9686 256.72 39.0194 255.949 36.5132C255.349 38.6981 254.707 40.6687 254.021 42.4466L247.295 60.3539Z" fill="#512BD4"/>
<path d="M315.904 30.8584V63.3314C315.904 69.1148 314.298 73.6131 311.106 76.8689C307.915 80.1248 303.459 81.7527 297.74 81.7527C292.021 81.7527 287.844 80.1248 284.717 76.8689C281.611 73.5916 280.047 69.0291 280.047 63.2029V30.8584H283.432V63.3314C283.432 68.1509 284.717 71.9209 287.266 74.6412C289.836 77.3187 293.456 78.6468 298.126 78.6468C302.795 78.6468 306.244 77.3402 308.75 74.7055C311.256 72.0494 312.52 68.3651 312.52 63.6955V30.8584H315.883H315.904Z" fill="#512BD4"/>
<path d="M328.992 81.0673V30.8584H332.333V81.0458H328.992V81.0673Z" fill="#512BD4"/>
<path d="M34.4432 81.1102C33.8862 81.1102 33.3293 81.0245 32.8152 80.8103C32.3011 80.5961 31.8299 80.2748 31.4229 79.8678C31.0373 79.4823 30.716 78.9896 30.5018 78.4755C30.2876 77.94 30.1805 77.3831 30.1805 76.8047C30.1805 76.2264 30.2876 75.6695 30.5018 75.134C30.716 74.5985 31.0373 74.1272 31.4229 73.7417C32.2369 72.9277 33.3293 72.4565 34.4646 72.4565C35.5998 72.4565 36.6923 72.9063 37.5062 73.7417C37.9132 74.1272 38.2345 74.5985 38.4487 75.134C38.6629 75.6695 38.7914 76.2264 38.7914 76.8047C38.7914 77.3831 38.6843 77.9614 38.4487 78.4755C38.2345 79.011 37.9132 79.4823 37.5062 79.8678C37.0993 80.2748 36.628 80.5961 36.0925 80.8103C35.557 81.0245 35.0001 81.1316 34.4432 81.1102Z" fill="#512BD4"/>
<path d="M87.0938 81.1101H77.8831L53.5926 44.1817C52.9929 43.2607 52.4788 42.2968 52.0718 41.2686H51.8576C52.1146 43.5606 52.2003 45.8525 52.1361 48.1659V81.0887H43.975V30.8798H53.8068L77.2833 66.93C78.2687 68.4294 78.9113 69.4575 79.1897 70.0145H79.3397C79.0398 67.7654 78.9327 65.5162 78.9755 63.2457V30.8798H87.0938V81.1101Z" fill="#512BD4"/>
<path d="M121.43 81.1101H93.8197V30.8798H120.316V37.9485H101.981V52.1715H118.881V59.2187H101.981V74.0629H121.43V81.1101Z" fill="#512BD4"/>
<path d="M164.72 37.9485H149.983V81.1101H141.479V37.9485H126.785V30.8798H164.742V37.9485H164.72Z" fill="#512BD4"/>
</svg>
