<svg width="452" height="108" viewBox="0 0 452 108" fill="none" xmlns="http://www.w3.org/2000/svg">
<path d="M421.846 0.0428403C418.89 0.0428403 416.148 0.299882 413.685 0.771126C413.321 0.835386 412.957 0.835386 412.593 0.771126C410.172 0.278462 407.58 0.0428403 404.86 0.0428403C398.862 0.0428403 394.171 0.856807 390.08 2.74178C389.33 3.10592 388.431 3.0845 387.681 2.74178C383.868 0.921067 379.284 0.107101 373.33 0.107101C369.11 0.107101 365.104 0.856807 361.484 2.29196C360.777 2.57042 360.006 2.61326 359.321 2.35622C355.465 0.878227 350.967 0.171361 345.698 0.171361H345.355C341.264 0.192781 337.344 0.963907 333.809 2.4419C333.06 2.7632 332.203 2.69894 331.453 2.35622C327.298 0.428403 323.078 0.107101 319.565 0.107101H313.503C308.062 0.107101 302.964 1.52083 298.723 4.06983C297.781 4.62676 296.624 4.62676 295.703 4.04841C291.526 1.41373 286.514 0 281.009 0H273.64C270.898 0 268.285 0.299882 265.8 0.899647C265.308 1.02817 264.815 1.00675 264.344 0.899647C262.116 0.299882 259.781 0 257.361 0H219.554C218.29 0 217.069 0.0642605 215.913 0.192781C215.699 0.192781 215.506 0.192781 215.292 0.192781C214.263 0.0642605 213.192 0 212.121 0H186.289C185.025 0 183.804 0.0856807 182.604 0.235622C182.369 0.257042 182.155 0.257042 181.919 0.235622C180.719 0.0856807 179.498 0 178.278 0C175.75 0 169.388 0.0642605 169.388 0.0642605H168.681C165.425 0.278462 162.234 1.04959 159.278 2.39906C158.55 2.72036 157.714 2.72036 157.007 2.39906C153.58 0.856807 149.874 0.0642605 146.083 0.0642605H135.609C127.212 0.0642605 119.672 3.27729 114.36 9.10357C111.147 12.6165 108.876 17.0076 107.762 21.6986C106.584 9.57481 96.3454 0.107101 83.9003 0.107101H24.6735C11.4358 0.107101 0.704346 10.8386 0.704346 24.0763V83.303C0.704346 96.5407 11.4358 107.272 24.6735 107.272H83.9003C91.6329 107.272 98.5088 103.609 102.879 97.933C108.812 103.802 116.973 107.422 125.948 107.422C126.569 107.422 127.212 107.422 127.897 107.358H143.384C147.797 107.358 151.974 106.458 155.743 104.702C156.472 104.359 157.329 104.359 158.057 104.702C162.084 106.522 166.518 107.486 171.145 107.486H210.75C215.27 107.486 219.34 106.908 222.896 105.751C223.474 105.559 224.074 105.559 224.652 105.73C228.529 106.865 233.156 107.401 238.832 107.401C245.194 107.401 251.063 106.115 256.118 103.609C256.932 103.224 257.875 103.224 258.667 103.652C263.444 106.18 268.863 107.508 274.647 107.508C278.61 107.508 282.251 107.058 285.507 106.137C286.021 105.987 286.578 105.987 287.092 106.137C290.069 106.972 293.325 107.401 296.838 107.401C300.351 107.401 303.436 106.994 306.306 106.201C306.841 106.051 307.398 106.051 307.934 106.201C310.697 106.994 313.674 107.401 316.802 107.401H328.947C333.145 107.401 338.715 106.844 344.284 103.224C345.248 102.603 346.447 102.603 347.411 103.202C351.931 106.008 357.329 107.422 363.605 107.422C366.818 107.422 369.859 106.908 372.708 105.88C373.265 105.666 373.865 105.623 374.465 105.773C378.77 106.865 383.783 107.422 389.437 107.422C395.928 107.422 401.733 106.544 406.724 104.852C407.409 104.616 408.159 104.637 408.823 104.916C412.871 106.587 417.327 107.422 422.125 107.422C439.132 107.422 451.942 95.5554 451.942 79.833V29.4956C451.984 15.2512 444.08 0.0428403 421.846 0.0428403Z" fill="url(#paint0_linear_398_500)"/>
<path d="M421.846 15.6367C415.163 15.6367 413.299 17.3289 413.299 17.3289C413.299 17.3289 410.686 15.6367 404.86 15.6367C397.427 15.6367 394.899 17.1361 391.794 20.7347C390.573 22.1698 389.459 25.4043 388.859 27.3963C388.73 27.8462 388.066 27.8462 387.938 27.3963C387.424 25.6399 386.503 22.9195 385.582 21.5272C384.018 19.1924 381.94 15.7009 373.329 15.7009C370.202 15.7009 365.297 16.3864 362.212 20.6276C361.356 21.8057 360.82 23.0695 360.499 23.9905C360.37 24.3761 359.813 24.3975 359.642 24.012C359.235 23.048 358.635 21.8057 357.907 20.8846C354.608 16.6006 351.609 15.7438 345.419 15.7438C340.599 15.7438 336.722 17.6502 333.959 21.5915C332.952 23.0266 332.053 24.8045 331.496 26.0254C331.303 26.4539 330.682 26.3896 330.596 25.9184C330.189 24.0976 329.311 21.0346 327.64 18.8925C325.819 16.5149 324.213 15.6795 319.543 15.6795H313.481C308.169 15.6795 304.421 18.2928 303.007 21.6343C301.957 24.1191 299.108 31.7018 297.738 35.3861C297.481 36.0929 296.474 36.1143 296.195 35.3861C294.932 32.0874 292.404 25.5114 290.947 21.7628C288.955 16.6006 284.436 15.6152 280.966 15.6152H273.597C268.456 15.6152 265.864 17.4788 265.008 18.2499C264.815 18.4213 264.536 18.3999 264.344 18.2499C263.551 17.4574 261.259 15.6367 257.318 15.6367H219.511C216.384 15.6367 215.484 16.2793 215.484 16.2793C215.484 16.2793 214.285 15.6367 212.1 15.6367H186.267C183.654 15.6367 182.304 16.2793 182.304 16.2793C182.304 16.2793 180.741 15.6367 178.277 15.6367C175.814 15.6367 169.581 15.7009 169.581 15.7009C163.155 16.0651 159.77 21.6129 158.656 23.8406C158.485 24.2047 157.992 24.2047 157.8 23.8406C156.579 21.5486 152.83 15.6795 146.061 15.6795H135.587C126.248 15.6795 122.563 22.8981 122.563 28.2746V57.6416C114.659 59.2267 108.683 66.1883 108.683 74.585C108.683 84.1169 116.416 91.8496 125.948 91.8496C126.419 91.8496 126.89 91.8496 127.34 91.7854H143.384C151.695 91.7854 154.951 85.6592 155.958 83.0888C156.107 82.7032 156.643 82.6818 156.836 83.0459C158.185 85.6164 162.362 91.9139 171.144 91.9139H210.75C219.768 91.9139 221.996 88.8722 223.024 87.1372C223.195 86.8373 223.624 86.8159 223.817 87.0943C225.295 89.1293 227.137 91.8068 238.832 91.8068C251.706 91.8068 255.968 84.224 257.146 81.1181C257.296 80.7111 257.875 80.7111 258.025 81.1181C259.353 84.2455 263.722 91.9353 274.647 91.9353C282.294 91.9353 285.121 89.6219 286.042 88.4867C286.256 88.2296 286.621 88.251 286.792 88.4867C287.627 89.6005 290.133 91.8068 296.838 91.8068C303.542 91.8068 305.942 89.4291 306.756 88.251C306.927 87.994 307.334 87.9726 307.527 88.251C308.405 89.4506 310.868 91.8282 316.78 91.8282H328.925C335.116 91.8282 338.821 89.3006 342.827 80.9468C344.177 78.1407 348.225 78.3121 349.403 81.2038C352.402 88.5938 355.572 91.8068 363.583 91.8068C368.553 91.8068 370.887 89.1078 371.659 87.9083C371.83 87.6513 372.173 87.6298 372.408 87.844C373.586 89.0007 377.678 91.8068 389.395 91.8068C402.204 91.8068 406.873 87.6513 408.116 86.1519C408.309 85.9162 408.673 85.8948 408.865 86.1519C410.001 87.6513 413.942 91.7854 422.082 91.7854C430.992 91.7854 436.305 86.5803 436.305 79.7901V29.4955C436.305 17.1789 428.122 15.6367 421.76 15.6367H421.846Z" fill="white"/>
<path d="M80.3872 15.4867H28.1863C21.5032 15.4867 16.0839 20.906 16.0839 27.5891V79.7901C16.0839 86.4732 21.5032 91.8925 28.1863 91.8925H80.3872C87.0703 91.8925 92.4896 86.4732 92.4896 79.7901V27.5891C92.4896 20.906 87.0703 15.4867 80.3872 15.4867Z" fill="white"/>
<path d="M295.446 79.1261L277.474 32.6443H277.217C277.389 35.4932 277.474 38.4063 277.474 41.3837V79.1261H274.24V28.7673H279.445L296.517 73.0642H296.71L313.781 28.7673H318.858V79.1047H315.474V40.9553C315.474 38.2992 315.602 35.536 315.859 32.6872H315.602L297.566 79.1047H295.424L295.446 79.1261Z" fill="#512BD4"/>
<path d="M355.722 61.4544H336.144L329.418 79.126H325.691L345.076 28.8743H347.218L366.218 79.126H362.426L355.743 61.4544H355.722ZM337.365 58.3056H354.608L348.054 40.2699C347.497 38.8561 346.833 36.8855 346.061 34.3793C345.462 36.5642 344.819 38.5563 344.112 40.3341L337.343 58.3056H337.365Z" fill="#512BD4"/>
<path d="M406.274 28.7673V61.3473C406.274 67.1308 404.667 71.6504 401.454 74.9063C398.241 78.1622 393.786 79.7901 388.024 79.7901C382.262 79.7901 378.085 78.1622 374.936 74.9063C371.809 71.629 370.267 67.0451 370.267 61.1974V28.7673H373.651V61.3473C373.651 66.1883 374.936 69.9797 377.507 72.6786C380.077 75.3561 383.718 76.7056 388.431 76.7056C393.143 76.7056 396.592 75.3775 399.098 72.7429C401.626 70.0868 402.89 66.4025 402.89 61.6901V28.7673H406.252H406.274Z" fill="#512BD4"/>
<path d="M419.426 79.1261V28.7031H422.789V79.1261H419.426Z" fill="#512BD4"/>
<path d="M125.927 79.1689C125.37 79.1689 124.813 79.0832 124.299 78.869C123.785 78.6548 123.292 78.3335 122.906 77.9265C122.521 77.541 122.199 77.0483 121.985 76.5342C121.771 75.9987 121.664 75.4418 121.664 74.8635C121.664 74.2851 121.771 73.7282 121.985 73.1927C122.199 72.6572 122.521 72.1859 122.906 71.8004C123.742 70.965 124.834 70.5152 125.969 70.5152C127.105 70.5152 128.219 70.9864 129.032 71.8004C129.439 72.1859 129.761 72.6786 129.975 73.1927C130.189 73.7282 130.318 74.3065 130.318 74.8635C130.318 75.4204 130.189 76.0201 129.975 76.5342C129.761 77.0697 129.439 77.541 129.032 77.9265C128.625 78.3335 128.154 78.6762 127.619 78.869C127.083 79.0832 126.526 79.1903 125.969 79.1689H125.927Z" fill="#512BD4"/>
<path d="M178.791 79.1689H169.516L145.119 42.0906C144.498 41.1695 143.984 40.2056 143.598 39.1774H143.384C143.641 41.4694 143.727 43.8042 143.662 46.0961V79.1689H135.48V28.7244H145.355L168.938 64.9245C169.945 66.4239 170.566 67.452 170.866 68.0304H170.994C170.695 65.7813 170.588 63.5107 170.63 61.2402V28.7244H178.791V79.1689Z" fill="#512BD4"/>
<path d="M213.278 79.1689H185.561V28.7244H212.186V35.8359H193.764V50.1231H210.729V57.1918H193.764V72.1216H213.3V79.1903L213.278 79.1689Z" fill="#512BD4"/>
<path d="M256.761 35.8146H241.96V79.1476H233.413V35.8146H218.655V28.7031H256.782V35.8146H256.761Z" fill="#512BD4"/>
<path d="M49.1566 30.7379H31.1208V48.7951H49.178V30.7379H49.1566Z" fill="#A895E9"/>
<path d="M47.2504 32.6658V46.8888H33.0274V32.6658H47.2504ZM51.0846 28.8316H29.1932V50.7016H51.0632V28.8316H51.0846Z" fill="#512BD4"/>
<path d="M77.6027 30.7379H59.5455V48.7951H77.6027V30.7379Z" fill="#A895E9"/>
<path d="M75.6965 32.6658V46.8888H61.4736V32.6658H75.6965ZM79.5308 28.8316H57.6608V50.7016H79.5308V28.8316Z" fill="#512BD4"/>
<path d="M49.1566 59.1839H31.1208V77.2411H49.178V59.1839H49.1566Z" fill="#A895E9"/>
<path d="M47.2504 61.1117V75.3347H33.0274V61.1117H47.2504ZM51.0846 57.2775H29.1932V79.1475H51.0632V57.2775H51.0846Z" fill="#512BD4"/>
<path d="M77.6027 59.1839H59.5455V77.2411H77.6027V59.1839Z" fill="#A895E9"/>
<path d="M75.6965 61.1117V75.3347H61.4736V61.1117H75.6965ZM79.5308 57.2775H57.6608V79.1475H79.5308V57.2775Z" fill="#512BD4"/>
<path d="M66.6572 41.6837H42.0454V66.2955H66.6572V41.6837Z" fill="#DCD5F6"/>
<path d="M64.7504 43.59V64.3676H43.9729V43.59H64.7504ZM68.5847 39.7558H40.1387V68.2018H68.5847V39.7558Z" fill="#512BD4"/>
<path d="M51.0845 57.2775H42.3236V66.0383H51.0845V57.2775Z" fill="#512BD4"/>
<path d="M51.0845 41.9622H42.3236V50.723H51.0845V41.9622Z" fill="#512BD4"/>
<path d="M66.4001 41.9622H57.6393V50.723H66.4001V41.9622Z" fill="#512BD4"/>
<path d="M66.4001 57.2775H57.6393V66.0383H66.4001V57.2775Z" fill="#512BD4"/>
<defs>
<linearGradient id="paint0_linear_398_500" x1="226.344" y1="0" x2="226.344" y2="107.486" gradientUnits="userSpaceOnUse">
<stop stop-color="#3DC1D6"/>
<stop offset="1" stop-color="#A298E9"/>
</linearGradient>
</defs>
</svg>
