<svg id="Layer_1" data-name="Layer 1" xmlns="http://www.w3.org/2000/svg" viewBox="0 0 757.21 568.76"><title>csharp-blank</title><path d="M397,597.4,18.34,156.24c.85-.9,1.51-1.66,2.23-2.36L141.12,37.65c2.53-2.44,5.11-4.83,7.56-7.35a4.71,4.71,0,0,1,4.12-1.62,17.59,17.59,0,0,0,1.86,0q242.51,0,485-.06a8.92,8.92,0,0,1,6.79,2.75Q708.24,91.08,770.1,150.67c1.78,1.72,3.42,3.58,5.44,5.72Zm0-24.5c1.17-1.34,2-2.33,2.9-3.33l54.32-63.29,95.73-111.52q46.35-54,92.7-108c9.76-11.35,19.5-22.71,28.33-34.82a103.62,103.62,0,0,1,7.38-8.35c2.92-3.21,6-6.29,8.8-9.58,5.12-6,10-12.11,15.18-18,6.59-7.54,13.45-14.86,20-22.4,10.21-11.67,20.29-23.45,30.41-35.19a15.3,15.3,0,0,0,1-1.48c-1.47-1.4-2.9-2.73-4.31-4.09Q694.86,100.24,640.32,47.58A9.6,9.6,0,0,0,633,44.65q-235.83.1-471.67.06a20.77,20.77,0,0,1-2.17,0A4.72,4.72,0,0,0,155,46.31c-2.6,2.66-5.32,5.21-8,7.79L42.1,155.24c-.63.61-1.17,1.33-1.83,2.08Z" transform="translate(-18.34 -28.64)"/><path d="M634.54,256.5c0-1.2,0-2.41,0-3.61.15-3.82.39-7.64.49-11.46.08-2.75-.26-3-2.9-3.18a268.47,268.47,0,0,0-31-.56c-2.78.1-5.55.27-8.52.41a13.54,13.54,0,0,0-.4,1.79,41.24,41.24,0,0,1-4.09,13.91c-3.43,7.4-6.78,14.88-10.86,21.92a151,151,0,0,1-18.22,25.77,14.3,14.3,0,0,0-1.21,1.41c-7.14,10.36-16.4,18.86-24.75,28.14A124.71,124.71,0,0,1,516,346.79c-6.64,5-14,9.12-21.09,13.58-8.71,5.48-18.25,9.18-27.87,12.66-14.7,5.32-29.65,9.59-45.23,11.56a136,136,0,0,1-36.12-.09,44.92,44.92,0,0,1-4.87-.91c-19-4.85-37.52-11-54.09-21.79a190.23,190.23,0,0,1-20.19-14.9,257,257,0,0,1-35.62-37,152.6,152.6,0,0,1-17-26.57c-3.22-6.58-6.53-13.13-9.62-19.77a62.5,62.5,0,0,1-2.59-7.62A278.59,278.59,0,0,1,233,223a227.47,227.47,0,0,1-3.9-34.77,111.39,111.39,0,0,1,2.37-25.88c2-9.81,4-19.62,7.34-29.12a92.65,92.65,0,0,1,13.77-25.53c5.33-7.05,12.37-12.13,20-16.47,12.67-7.24,26.39-11.71,40.53-15A283.8,283.8,0,0,1,356.25,70a354.66,354.66,0,0,1,39.34-1c18.43.69,36.64,2.92,54.46,7.83,17.58,4.84,34.13,11.88,48.65,23.14,17.58,13.64,29,31.2,33.21,53.19.22,1.11.37,2.24.57,3.36s.39,2.2.62,3.49h110V84.69l.62-.33c8.54,8.13,16.79,16.57,25.2,24.84s17,16.64,25.35,25.09,16.54,17,25,25.8a17.79,17.79,0,0,1-1.22,1.71q-27.41,32-54.85,64.06-9.28,10.83-18.68,21.55c-2.46,2.79-5.13,5.39-7.72,8a18.52,18.52,0,0,1-1.59,1.32ZM519.82,174.21c-.14-1.36-.28-2.57-.38-3.79-.26-3.29-.37-6.6-.77-9.88-2.31-18.93-11-34.41-25.45-46.75-11.75-10-25.39-16.58-40-21.26-19.22-6.16-39.07-8.8-59.18-9.34a338,338,0,0,0-60.56,3.63,192.6,192.6,0,0,0-37.83,9.32,75.07,75.07,0,0,0-20.53,11.37,61.63,61.63,0,0,0-16.41,19.6c-3.07,5.8-4.94,12-6.66,18.3-2.12,7.71-3.69,15.47-3.42,23.52.06,1.75-.18,3.51-.17,5.26,0,8-.3,15.92.17,23.85.43,7.3,1.67,14.56,2.62,21.83,2.22,16.87,7.87,32.68,15,48,3.36,7.25,8.06,13.67,12.42,20.33,10.69,16.33,24.06,30.17,38.76,42.82A140.67,140.67,0,0,0,338,345.38c7.53,4.44,15.59,7.59,23.48,11.16a23.05,23.05,0,0,0,4.12,1.34c5.52,1.33,11,2.84,16.6,3.83A172.92,172.92,0,0,0,422,364.14c7.54-.42,15-1,22.34-3.12a253.88,253.88,0,0,0,46.14-18.72c3.2-1.64,6.05-3.93,9.09-5.88a160.8,160.8,0,0,0,33.14-28.75c5.76-6.48,11.21-13.24,16.93-19.76,7.28-8.31,12.84-17.68,17.68-27.55,4.62-9.42,8.45-19.07,10.17-29.46a2.2,2.2,0,0,1,2.45-2.15c1.55-.05,3.09-.24,4.64-.28q25.88-.56,51.76-1.07c1.53,0,3.06.16,4.64.25l.9,3.06,58.36-69.77c-7.16-7.4-14-14.6-21-21.63s-14-14.1-21.25-20.91l-.66.32v55.49Z" transform="translate(-18.34 -28.64)"/><path d="M499.52,416,397.41,534.82c-2.16-1.36-104.84-120.6-106.56-123.72,1,.14,1.95.2,2.82.4,10.66,2.45,21.29,5,32,7.35a439,439,0,0,0,44.27,7.37,333.67,333.67,0,0,0,48.25,2.22A259.06,259.06,0,0,0,460,423.91c12.24-2.43,24.4-5.31,36.59-8,.85-.19,1.72-.3,2.59-.44ZM329.67,434.2l-.3.64,67.43,78.44a9.72,9.72,0,0,0,1.22-1q31.4-36.58,62.79-73.18c0-.06,0-.2,0-.29s-.06-.18-.2-.61C416.75,446.24,373.13,442.84,329.67,434.2Z" transform="translate(-18.34 -28.64)"/><path d="M129.39,225.22a22.5,22.5,0,0,0-1.37-2q-24.12-28.53-48.26-57A20,20,0,0,1,78,164a6.89,6.89,0,0,1,.09-8.13,19,19,0,0,1,2.44-2.8q43.06-41.78,86.13-83.55A5.77,5.77,0,0,1,171,67.6c20.16.06,40.31,0,60.47,0,.59,0,1.18.07,2,.12-.37,1.42-1.47,1.88-2.28,2.55-8.34,6.93-17,13.52-25,20.84Q152.87,140,134,210c-1.32,4.88-2.53,9.79-3.79,14.68Zm-6.24-29.73c2.77-7.39,5.17-14.41,8-21.24s6.08-13.81,9.54-20.51,7.11-13.08,11.07-19.37,8.32-12.59,12.87-18.6S174,104.14,178.9,98.59s10.27-10.83,15.59-16.39a6.66,6.66,0,0,0-1.18-.29c-5.79,0-11.58,0-17.37,0a4.28,4.28,0,0,0-3.23,1.5c-2.65,2.62-5.34,5.18-8,7.78l-69,66.92c-.72.7-1.39,1.46-2.23,2.36Z" transform="translate(-18.34 -28.64)"/><path d="M569,67.9c3.22,18.2-3.3,32.5-17.14,44.37-.75-1-1.57-2-2.29-3.07a103.72,103.72,0,0,0-22-23.85,143.3,143.3,0,0,0-13.74-8.92c-4-2.43-8.06-4.63-12.08-7-.59-.34-1.11-.79-1.78-1.28C502.41,67.53,564.09,67.3,569,67.9ZM545.42,82l7,7.43c2-3,2.52-4.76,2.34-7.43Z" transform="translate(-18.34 -28.64)"/><path d="M378,172.42l8.36-44.9c2.9.33,5.45.54,8,.93,8.06,1.24,16.12,2.54,24.17,3.82.41.06.8.19,1.21.29,2.89.71,3,.88,2.46,3.8q-3.36,17.18-6.75,34.35c-.17.88-.23,1.79-.37,3l20.91,1.88c1.14-5.21,2.23-10.13,3.31-15,1.72-7.87,3.43-15.74,5.17-23.6.82-3.71,1.3-4.05,5.06-3.35,7.71,1.45,15.42,3,23.12,4.45l7.93,1.53-8.35,38.29c2.15.23,4.08.44,6,.62,4.42.41,8.85.74,13.26,1.23,2.28.26,2.41.51,1.84,2.81q-4.16,16.84-8.4,33.65c-.61,2.42-.8,2.57-3.41,2.58-5.89,0-11.78,0-17.67,0H460l-3.37,13.89c1.28.15,2.35.37,3.42.39,5.89.11,11.78.18,17.67.27,1.12,0,2.23.1,3.63.17a14.92,14.92,0,0,1,0,2.85q-3.62,17-7.34,33.9a9.56,9.56,0,0,1-.43,1.19c-8.88,1.13-17.74.17-26.74.29-1.1,4.74-2.18,9.25-3.18,13.77-1.66,7.46-3.32,14.92-4.85,22.4-.33,1.62-.93,2.33-2.6,2.31-9-.09-18-.13-27-.2a10,10,0,0,1-1.87-.47l6.89-38.45c-7.86-.42-15.53,0-23.36,0a17.87,17.87,0,0,0-.7,2Q386.47,290,382.78,307c-.15.71-.37,1.4-.52,2.1a1.84,1.84,0,0,1-2,1.57c-9.81.15-19.62.31-29.43.43a6.47,6.47,0,0,1-1.77-.51c-.68-1.83,0-3.49.34-5.19q3.92-17.21,7.8-34.42a2.89,2.89,0,0,0-.14-.65c-1-.14-2.22-.37-3.41-.44-7.22-.41-14.44-.77-21.66-1.17a17.7,17.7,0,0,1-2-.34c-.48-2.36,3.64-30.33,5.55-37.64,9.55-.07,19.21.25,29.23.47l2.73-17c-2.84-.29-5.29-.58-7.74-.78-6-.48-11.94-.92-17.92-1.39-2.8-.22-3.21-.73-2.68-3.5q3.23-17.2,6.49-34.39c.41-2.18.5-2.3,2.88-2.25,6.82.14,13.63.38,20.45.53C371.81,172.48,374.7,172.42,378,172.42Zm-34.57,64.9-5,25.23c3.69.08,6.86.17,10,.22s6.2,0,9.3.09,6.3-.38,9.6.42l-8.76,41.31,18,1.5,9.59-43c12.64-.21,25.16.19,38.06.46l-8.92,38.67,16.87,1.43c3.32-13.51,5.86-26.87,9.5-40h2.76c6.82,0,13.64.08,20.46.11,2.5,0,2.53,0,3.11-2.39q2.06-8.43,4.06-16.87c.26-1.07.45-2.16.76-3.69-8.6-.68-17-.55-25.66-.94,2.36-10.5,4.55-20.52,7.19-30.53l26,1,5.49-22.78a18.21,18.21,0,0,0-3.12-.78c-6-.34-12-.57-18-.89-1.49-.08-3-.36-4.78-.59l9.81-42-16.89-3.14C449,155,446,169.81,442.35,184.34c-10.3.13-35.33-1.59-38.2-2.66,3.06-14.33,6.42-28.63,9.35-43.28L395.25,135c-3.56,15.55-6.43,30.92-10.12,46.29l-29.55-1.61-5,24.85c3.32.25,6.38.55,9.44.7,5.68.27,11.36.44,17,.7a22.27,22.27,0,0,1,2.68.45L372.95,238Z" transform="translate(-18.34 -28.64)"/><path d="M429.77,239.46l-38.24-1,6.88-31.6c12.75.32,25.38,1,38.48,1.58Zm-2.12-22.25-21.28-1-3.69,14.38,21.42.5Z" transform="translate(-18.34 -28.64)"/></svg>