<?xml version="1.0" encoding="utf-8"?>
<!-- Generator: Adobe Illustrator 21.0.0, SVG Export Plug-In . SVG Version: 6.00 Build 0)  -->
<svg version="1.1" id="Layer_1" xmlns="http://www.w3.org/2000/svg" xmlns:xlink="http://www.w3.org/1999/xlink" x="0px" y="0px"
	 viewBox="0 0 792 612" style="enable-background:new 0 0 792 612;" xml:space="preserve">
<style type="text/css">
	.st0{fill:#060505;}
	.st1{fill:#C62026;}
	.st2{fill:#FDE900;}
</style>
<g>
	<path class="st0" d="M768,151.6C643,300.4,518,449.1,392.8,598C267.7,449.1,142.7,300.4,17.7,151.6c0.7-0.8,1.3-1.5,1.9-2.1
		c39.9-39.3,79.8-78.6,119.7-117.8c2.6-2.5,5.2-5.1,7.7-7.6c1-1,2-1.7,3.5-1.5c0.6,0.1,1.2,0,1.8,0c160.5,0,321,0,481.5-0.1
		c2.5,0,4.2,0.8,5.9,2.5c41,40.5,82.1,80.9,123.2,121.4C764.6,148,766.2,149.7,768,151.6z M38.9,152.1
		c117.8,140.2,235,279.6,352.2,419c0.5,0.5,1,1,1.5,1.5c0.1,0.1,0.2,0.1,0.3,0.1c0.1,0,0.2,0,0.5,0c4.4-5.2,8.9-10.5,13.3-15.8
		c10.7-12.7,21.3-25.4,32-38.1c8-9.5,16-19,24-28.5c9.3-11.1,18.6-22.2,28-33.3c8.1-9.6,16.2-19.2,24.2-28.8
		c9.3-11,18.5-22.1,27.8-33.1c9.3-11.1,18.7-22.2,28-33.3c10.5-12.5,20.9-25,31.4-37.4c9.5-11.3,19.2-22.5,28.7-33.9
		c8-9.6,15.8-19.5,23.7-29.2c2.2-2.7,4.7-5.2,6.7-8.2c3.2-4.9,6.8-9.4,10.9-13.5c2.1-2.1,4.2-4.3,6.1-6.6
		c5.9-7.1,11.6-14.3,17.6-21.3c6.2-7.2,12.7-14.2,18.9-21.5c9.1-10.6,18.1-21.3,27.1-32c1.5-1.8,2.9-3.7,4.5-5.6
		c-1.1-1.2-1.9-2.1-2.8-3c-10.2-10.1-20.5-20.2-30.8-30.3c-11.4-11.2-22.9-22.5-34.3-33.8c-15-14.7-29.9-29.5-44.8-44.3
		c-1.9-1.9-3.8-2.6-6.5-2.6c-156.2,0.1-312.4,0-468.6,0c-0.6,0-1.2,0.1-1.8,0c-1.5-0.2-2.5,0.5-3.5,1.5c-3.8,3.8-7.7,7.5-11.5,11.3
		c-11.5,11.3-23,22.6-34.5,34c-11.4,11.3-22.9,22.5-34.3,33.8c-10.4,10.2-20.7,20.5-31.1,30.8C41,150.7,40,151.3,38.9,152.1z"/>
	<path class="st1" d="M38.9,152.1c1.1-0.8,2.1-1.4,3-2.2c10.4-10.2,20.7-20.5,31.1-30.8c11.4-11.3,22.9-22.5,34.3-33.8
		c11.5-11.3,23-22.7,34.5-34c3.8-3.8,7.7-7.5,11.5-11.3c1-1,2.1-1.7,3.5-1.5c0.6,0.1,1.2,0,1.8,0c156.2,0,312.4,0,468.6,0
		c2.6,0,4.5,0.7,6.5,2.6c14.9,14.8,29.8,29.6,44.8,44.3c11.4,11.3,22.8,22.5,34.3,33.8c10.3,10.1,20.5,20.2,30.8,30.3
		c0.9,0.9,1.7,1.8,2.8,3c-1.5,2-2.9,3.8-4.5,5.6c-9,10.7-18,21.4-27.1,32c-6.2,7.2-12.7,14.2-18.9,21.5c-6,7-11.7,14.3-17.6,21.3
		c-1.9,2.3-4,4.5-6.1,6.6c-4.1,4.1-7.7,8.6-10.9,13.5c-1.9,2.9-4.4,5.4-6.7,8.2c-7.9,9.7-15.7,19.6-23.7,29.2
		c-9.5,11.4-19.2,22.6-28.7,33.9c-10.5,12.4-20.9,24.9-31.4,37.4c-9.3,11.1-18.7,22.2-28,33.3c-9.3,11-18.5,22.1-27.8,33.1
		c-8.1,9.6-16.2,19.2-24.2,28.8c-9.3,11.1-18.6,22.2-28,33.3c-8,9.5-16,19-24,28.5c-10.7,12.7-21.3,25.4-32,38.1
		c-4.5,5.3-9,10.6-13.3,15.8c-0.3,0-0.4,0-0.5,0c-0.1,0-0.2,0-0.3-0.1c-0.5-0.5-1.1-1-1.5-1.5C273.8,431.7,156.7,292.3,38.9,152.1z
		 M628.5,253.7c1.2-1.1,1.8-1.6,2.4-2.2c3.4-3.7,6.8-7.2,10.1-11c11.1-13.1,22.2-26.3,33.3-39.4c12.3-14.7,24.6-29.4,36.9-44.1
		c0.6-0.7,0.9-1.5,1.4-2.3c-1.5-1.5-2.9-2.8-4.2-4.1c-21.3-21.5-42.7-43.1-64-64.7c-1.9-1.9-3.8-3.8-5.7-5.7c-0.4-0.4-1-0.7-1.6-1.1
		c-0.1,0.4-0.2,0.5-0.2,0.6c0,24.7,0,49.4-0.1,74.1c0,0.2,0,0.4,0,0.6c0,0.2-0.1,0.4-0.1,0.6c0,0.1-0.1,0.2-0.1,0.3
		c-0.1,0.1-0.1,0.1-0.2,0.2c-3.5,0.7-106.4,0.5-108.6-0.2c-0.1-0.2-0.2-0.4-0.2-0.6c-0.2-1-0.4-2.1-0.6-3.1
		c-3.5-23-14.5-41.5-32.2-55.9c-11.3-9.3-24.1-15.8-37.7-20.7C435,67.1,412.2,64,389,63.3c-11.4-0.4-22.7,0.2-34.1,0.9
		c-14.3,1-28.5,2.8-42.5,5.9c-15.3,3.4-30,8.3-43.7,16.2c-13.1,7.5-22.2,18.6-28.5,32.3c-4.4,9.4-7.1,19.4-9.2,29.5
		c-3,13.8-5.2,27.7-4,41.9c0.6,7.1,1.3,14.1,2.2,21.2c2,14.3,5.7,28.2,10.1,41.9c0.7,2.2,1.1,4.5,2.1,6.6c3,6.5,6.2,13,9.3,19.4
		c6.6,13.9,15.4,26.4,25.5,37.9c5.9,6.7,12.1,13.1,18.3,19.4c3.3,3.4,6.9,6.5,10.6,9.6c4,3.3,8.3,6.1,12.3,9.3
		c7.1,5.7,15.2,9.8,23.3,13.9c11.3,5.6,23.4,9,35.5,12.1c12.6,3.3,25.6,3.1,38.5,1.7c13.5-1.5,26.6-4.6,39.4-9.2
		c11.6-4.2,23.2-8.1,33.9-14.6c9.2-5.5,18.4-11,26.5-18c4.9-4.2,9.5-8.9,14.1-13.5c3.6-3.7,6.9-7.7,10.3-11.6
		c4.3-4.8,8.8-9.3,12.4-14.8c0.7-1.1,1.7-2.1,2.5-3.1c7-8.2,13-17.3,18.2-26.7c3.5-6.3,6.5-12.8,9.4-19.4c2.3-5,4.5-10.1,4.6-15.8
		c0-1.7,1-2,2.4-2c8.6-0.1,17.2-0.4,25.8-0.4c4.1,0,8.2,0.5,12.3,0.7c1.5,0.1,2.3,0.8,2.3,2.3c0,0.6,0,1.3,0,1.9
		c-0.2,3.9-0.4,7.7-0.5,11.6C628.2,251.2,628.3,252.1,628.5,253.7z M393.1,534.8c33.8-40.2,67.5-80.2,101.2-120.3
		c-1.1-0.4-1.8-0.3-2.6-0.2c-14.5,3.3-28.8,7.1-43.5,9.4c-11.5,1.8-23.1,3-34.8,3.3c-16,0.5-31.9-0.2-47.8-2.4
		c-10.3-1.4-20.7-2.8-30.9-4.8c-13.1-2.6-26.2-5.8-39.2-8.8c-2.5-0.6-4.9-1.1-7.6-1.7C289,411.9,389,531,393.1,534.8z M231.2,62.2
		c-1.6-0.1-2.4-0.2-3.3-0.2c-19.5,0-38.9,0-58.4,0c-2.1,0-3.7,0.6-5.2,2.1c-9.6,9.7-19.4,19.2-29.1,28.9c-1.5,1.5-3.1,3.1-4.6,4.6
		c-17.3,17.1-34.6,34.2-51.8,51.3c-4.3,4.3-4.3,7.9-0.4,12.6c15.5,18.7,30.9,37.3,46.4,56c1,1.2,2.1,2.4,3.4,4
		c0.6-2.4,1.1-4.2,1.5-6c4.6-19.7,11-38.7,19.9-56.8c7.5-15.3,16.4-29.7,26.8-43.1c9.8-12.8,20.7-24.6,32.9-35
		c6.3-5.4,12.7-10.6,19-15.8C229.2,64.1,229.9,63.4,231.2,62.2z M494.7,62.2c0.9,0.7,1.3,1.1,1.8,1.4c4,2.4,7.9,4.8,12,7
		c9.3,4.9,17.5,11.3,24.4,19.2c4.3,5,8.2,10.4,12.3,15.6c0.4,0.5,0.9,1,1.4,1.5c15.7-14.3,19.4-28.4,16.6-44.8
		C540.6,62.2,517.9,62.2,494.7,62.2z"/>
	<path class="st0" d="M628.5,253.7c-0.1-1.6-0.2-2.5-0.2-3.4c0.2-3.9,0.4-7.7,0.5-11.6c0-0.6,0-1.3,0-1.9c0-1.5-0.8-2.3-2.3-2.3
		c-4.1-0.2-8.2-0.7-12.3-0.7c-8.6,0-17.2,0.3-25.8,0.4c-1.4,0-2.4,0.4-2.4,2c-0.1,5.7-2.4,10.8-4.6,15.8c-2.9,6.6-5.9,13.1-9.4,19.4
		c-5.3,9.4-11.2,18.5-18.2,26.7c-0.9,1-1.8,2-2.5,3.1c-3.5,5.4-8.1,10-12.4,14.8c-3.5,3.9-6.7,7.9-10.3,11.6
		c-4.6,4.7-9.2,9.3-14.1,13.5c-8.1,7-17.4,12.5-26.5,18c-10.7,6.5-22.3,10.4-33.9,14.6c-12.8,4.6-25.9,7.7-39.4,9.2
		c-12.9,1.4-25.8,1.6-38.5-1.7c-12.1-3.2-24.2-6.5-35.5-12.1c-8.1-4-16.2-8.1-23.3-13.9c-4-3.2-8.3-6.1-12.3-9.3
		c-3.7-3-7.2-6.2-10.6-9.6c-6.2-6.3-12.4-12.7-18.3-19.4c-10.1-11.5-18.9-23.9-25.5-37.9c-3.1-6.5-6.3-12.9-9.3-19.4
		c-0.9-2.1-1.4-4.4-2.1-6.6c-4.4-13.7-8.2-27.6-10.1-41.9c-1-7-1.6-14.1-2.2-21.2c-1.2-14.2,1-28.1,4-41.9
		c2.2-10.1,4.9-20.1,9.2-29.5c6.3-13.7,15.5-24.7,28.5-32.3c13.7-7.9,28.4-12.8,43.7-16.2c14-3.1,28.2-4.9,42.5-5.9
		c11.3-0.8,22.7-1.3,34.1-0.9C412.2,64,435,67.1,457.1,75c13.6,4.9,26.4,11.4,37.7,20.7c17.7,14.5,28.7,32.9,32.2,55.9
		c0.2,1,0.4,2.1,0.6,3.1c0,0.2,0.2,0.4,0.2,0.6c2.1,0.7,105.1,0.9,108.6,0.2c0.1-0.1,0.2-0.1,0.2-0.2c0.1-0.1,0.1-0.2,0.1-0.3
		c0.1-0.2,0.1-0.4,0.1-0.6c0-0.2,0-0.4,0-0.6c0-24.7,0-49.4,0.1-74.1c0-0.1,0.1-0.2,0.2-0.6c0.6,0.4,1.2,0.7,1.6,1.1
		c1.9,1.9,3.8,3.8,5.7,5.7c21.3,21.6,42.7,43.1,64,64.7c1.3,1.3,2.7,2.6,4.2,4.1c-0.5,0.8-0.9,1.6-1.4,2.3
		c-12.3,14.7-24.6,29.4-36.9,44.1c-11.1,13.2-22.1,26.3-33.3,39.4c-3.2,3.8-6.7,7.4-10.1,11C630.3,252.1,629.6,252.6,628.5,253.7z
		 M635.3,227.1c19.7-24,38.9-47.6,58.3-71.2c-14.2-14.3-28.2-28.5-42.2-42.6c-0.2,0.1-0.5,0.2-0.7,0.3c0,18.7,0,37.5,0,56.3
		c-45.6,0-90.9,0-136.3,0c-0.1-1.4-0.2-2.6-0.3-3.8c-0.3-3.4-0.4-6.9-0.8-10.3c-2.3-18.9-10.9-34.4-25-46.8
		c-11.8-10.3-25.5-17-40.1-21.8c-18.8-6.1-38.1-8.8-57.8-9.4c-20.3-0.6-40.5,0.5-60.6,3.7c-12.8,2-25.4,4.7-37.5,9.5
		c-11.5,4.5-21.8,11.1-29.7,21c-3.5,4.3-6.4,9-8.6,14c-3.2,7.3-4.9,15-6.8,22.8c-1.6,6.8-1.2,13.7-1.6,20.6
		c-1.1,17.6,0.6,34.9,3.6,52.1c1.9,11.2,5.5,21.8,9.4,32.4c3,7.8,6.5,15.3,11,22.4c2.1,3.3,4.5,6.5,6.6,9.8
		c6.9,10.8,15,20.6,24.1,29.6c3.2,3.1,6.4,6.2,9.7,9.1c4.7,4,9.4,8,14.3,11.8c3.4,2.6,7.3,4.6,10.9,6.9c8.1,5.2,16.9,9,26,12
		c6,2,12.3,3.4,18.5,4.4c12.1,2,24.4,2.8,36.7,2.2c11.4-0.5,22.6-2.4,33.3-6.5c3.1-1.2,6.2-2.2,9.2-3.6c8.1-3.6,16.2-7,24.1-10.9
		c3.9-1.9,7.5-4.7,11.2-7.1c12.3-8.1,23.2-17.9,32.9-29.1c5.7-6.6,11.1-13.4,16.8-20c7.3-8.5,12.8-18.1,17.7-28.2
		c4.4-9.2,8-18.5,9.9-28.6c0.6-3.1,0.6-3.2,3.6-3.3c18.2-0.5,36.4-0.9,54.7-1.4c1.6,0,3.2,0.2,4.8,0.3
		C634.9,224.9,635,225.7,635.3,227.1z"/>
	<path class="st0" d="M393.1,534.8C389,531,289,411.9,287.9,409.4c2.7,0.6,5.2,1.1,7.6,1.7c13.1,3,26.1,6.2,39.2,8.8
		c10.2,2,20.6,3.4,30.9,4.8c15.8,2.2,31.8,2.8,47.8,2.4c11.7-0.4,23.3-1.5,34.8-3.3c14.7-2.3,29-6.1,43.5-9.4
		c0.7-0.2,1.5-0.2,2.6,0.2C460.6,454.6,426.9,494.6,393.1,534.8z M393.2,513.5c0.5-0.9,0.6-1.4,0.9-1.8c20.7-24.6,41.3-49.2,62-73.8
		c0-0.1,0-0.2,0-0.3c0-0.1,0-0.2-0.1-0.5c-21.5,3.6-43.2,5.2-65.1,4.2c-21.8-1-43.4-4.1-65.1-7.8C348,459.8,370.3,486.2,393.2,513.5
		z"/>
	<path class="st0" d="M231.2,62.2c-1.3,1.1-2,1.8-2.7,2.5c-6.3,5.3-12.8,10.5-19,15.8c-12.2,10.5-23.1,22.2-32.9,35
		c-10.4,13.4-19.3,27.8-26.8,43.1c-8.9,18.1-15.3,37.1-19.9,56.8c-0.4,1.8-0.9,3.6-1.5,6c-1.3-1.6-2.4-2.8-3.4-4
		c-15.5-18.7-30.9-37.4-46.4-56c-3.9-4.7-3.9-8.3,0.4-12.6c17.2-17.1,34.5-34.2,51.8-51.3c1.5-1.5,3.1-3.1,4.6-4.6
		c9.7-9.6,19.4-19.2,29.1-28.9c1.5-1.5,3-2.2,5.2-2.1c19.5,0.1,38.9,0,58.4,0C228.7,62,229.6,62.1,231.2,62.2z M92.5,156.3
		c9.4,11.3,19.1,23,29,34.9c2.8-7.5,5.1-14.6,8-21.5c2.9-7,6-14,9.4-20.8c3.4-6.7,7-13.2,11-19.6c4-6.4,8.2-12.7,12.8-18.8
		c4.4-6,9.2-11.8,14.1-17.4c4.9-5.6,10.2-10.9,15.7-16.9c-1.4,0-2.2,0-3,0c-4.8,0-9.6,0.1-14.4,0c-2-0.1-3.4,0.6-4.9,2
		c-21.3,21.1-42.7,42.2-64,63.3C101.5,146.2,97.3,151.2,92.5,156.3z"/>
	<path class="st0" d="M494.7,62.2c23.2,0,45.9,0,68.5,0c2.8,16.3-0.9,30.4-16.6,44.8c-0.5-0.5-0.9-1-1.4-1.5
		c-4.1-5.2-7.9-10.7-12.3-15.6c-6.9-7.9-15.1-14.3-24.4-19.2c-4.1-2.2-8-4.6-12-7C496,63.3,495.6,62.9,494.7,62.2z M549.8,76.6
		c-3.4,0-6.3,0-9.8,0c2.5,2.7,4.7,5,7.2,7.8C548.2,81.5,548.9,79.2,549.8,76.6z"/>
	<path class="st2" d="M635.3,227.1c-0.3-1.4-0.4-2.2-0.6-3.2c-1.6-0.1-3.2-0.3-4.8-0.3c-18.2,0.4-36.4,0.9-54.7,1.4
		c-3.1,0.1-3.1,0.1-3.6,3.3c-1.9,10-5.5,19.4-9.9,28.6c-4.8,10.1-10.4,19.7-17.7,28.2c-5.7,6.6-11.1,13.4-16.8,20
		c-9.7,11.1-20.5,21-32.9,29.1c-3.7,2.4-7.2,5.2-11.2,7.1c-7.9,3.9-16,7.4-24.1,10.9c-3,1.3-6.1,2.4-9.2,3.6
		c-10.7,4.1-21.9,6-33.3,6.5c-12.3,0.6-24.6-0.2-36.7-2.2c-6.3-1-12.5-2.4-18.5-4.4c-9-3-17.8-6.8-26-12c-3.6-2.3-7.5-4.4-10.9-6.9
		c-4.9-3.7-9.7-7.7-14.3-11.8c-3.4-2.9-6.6-6-9.7-9.1c-9.1-9-17.2-18.8-24.1-29.6c-2.1-3.3-4.5-6.5-6.6-9.8c-4.4-7.1-8-14.6-11-22.4
		c-4-10.6-7.5-21.2-9.4-32.4c-3-17.3-4.7-34.6-3.6-52.1c0.4-6.9,0-13.8,1.6-20.6c1.8-7.7,3.6-15.5,6.8-22.8c2.2-5.1,5.2-9.7,8.6-14
		c7.9-9.9,18.2-16.4,29.7-21c12.1-4.8,24.7-7.5,37.5-9.5c20.1-3.2,40.3-4.3,60.6-3.7c19.6,0.6,39,3.2,57.8,9.4
		c14.7,4.8,28.4,11.5,40.1,21.8c14.1,12.4,22.6,27.9,25,46.8c0.4,3.4,0.5,6.9,0.8,10.3c0.1,1.2,0.2,2.5,0.3,3.8
		c45.5,0,90.7,0,136.3,0c0-18.8,0-37.6,0-56.3c0.2-0.1,0.5-0.2,0.7-0.3c14,14.1,28,28.3,42.2,42.6
		C674.2,179.5,655,203.1,635.3,227.1z M386.4,267.8c8,0,15.6,0,23.5,0c-1.2,6.7-2.4,13.2-3.4,19.7c-1,6.4-2.6,12.8-3.2,19.8
		c10.4-0.1,20.5,0.3,30.5,0c2.9-13.2,5.6-25.9,8.4-38.8c9-0.1,17.8,0.8,26.6-0.2c3.2-12.6,5.9-25.2,8-38.4c-1.4-0.1-2.5-0.2-3.6-0.3
		c-5.9-0.1-11.9-0.2-17.8-0.3c-1.1,0-2.1-0.2-3.4-0.4c1.1-4.9,2.2-9.3,3.3-14c1.3,0,2.4,0,3.5,0c5.9,0,11.9,0.1,17.8,0
		c2.6,0,2.7-0.2,3.4-2.6c2.3-9,4.5-18,6.8-27c0.7-3,1.3-6.1,2-9.4c-7.2-1.7-14.4-1.1-21.4-2.5c1.4-6.6,2.9-12.9,4.1-19.2
		c1.3-6.4,3-12.7,3.9-19.4c-1.7-0.4-3.1-0.7-4.5-1c-8.6-1.7-17.3-3.4-25.9-5.1c-4-0.8-4.3-0.5-5.2,3.5c-1.9,8.9-3.8,17.8-5.7,26.6
		c-0.9,4.1-1.8,8.1-2.7,12.4c-7-0.6-13.8-1.3-20.7-1.9c0.2-1.3,0.3-2.2,0.4-3.1c2.1-11,4.3-21.9,6.4-32.9c1-5.3,0.8-5.4-4.5-6.2
		c-6-0.9-11.9-2-17.9-2.9c-4.1-0.6-8.3-1.2-12.8-1.8c-2.8,15.4-5.6,30.5-8.3,45.4c-5.5,0-10.7,0-15.9,0c-5.2,0-10.4,0-15.6,0
		c-0.1,0.3-0.3,0.5-0.4,0.8c-2.3,12.1-4.5,24.2-6.7,36.4c-0.4,2.3,0.1,2.9,2.6,3.1c5.9,0.5,11.8,0.9,17.8,1.4c2.5,0.2,5,0.5,7.9,0.8
		c-0.9,5.8-1.8,11.4-2.7,17.2c-10,0-19.6-0.7-29.1-0.4c-2.5,12.3-5.9,35.8-5.3,38.4c8.9,0.5,18,1,27.3,1.5
		c-2.8,12.2-5.4,23.9-8.1,35.6c-0.4,1.7-0.5,3.4-0.9,5.4c1.5,0.2,2.6,0.5,3.7,0.5c9.1-0.1,18.2-0.3,27.3-0.4c1.5,0,2.2-0.6,2.5-2.1
		c0.7-3.4,1.5-6.7,2.2-10.1C382.6,286.5,384.5,277.3,386.4,267.8z"/>
	<path class="st2" d="M393.2,513.5c-22.9-27.2-45.2-53.7-67.4-80.1c21.8,3.7,43.3,6.8,65.1,7.8c21.9,1,43.6-0.5,65.1-4.2
		c0.1,0.3,0.1,0.4,0.1,0.5c0,0.1,0,0.2,0,0.3c-20.7,24.6-41.3,49.2-62,73.8C393.8,512,393.6,512.6,393.2,513.5z"/>
	<path class="st2" d="M92.5,156.3c4.7-5.2,9-10.1,13.6-14.7c21.3-21.2,42.7-42.2,64-63.3c1.4-1.4,2.9-2,4.9-2c4.8,0.1,9.6,0,14.4,0
		c0.8,0,1.6,0,3,0c-5.5,5.9-10.8,11.2-15.7,16.9c-4.9,5.6-9.6,11.4-14.1,17.4c-4.5,6.1-8.8,12.4-12.8,18.8
		c-3.9,6.4-7.6,12.9-11,19.6c-3.4,6.8-6.6,13.7-9.4,20.8c-2.8,6.9-5.2,14-8,21.5C111.6,179.3,101.9,167.7,92.5,156.3z"/>
	<path class="st2" d="M549.8,76.6c-0.8,2.6-1.6,4.9-2.5,7.8c-2.6-2.8-4.7-5.1-7.2-7.8C543.5,76.6,546.4,76.6,549.8,76.6z"/>
	<path class="st0" d="M386.4,267.8c-2,9.5-3.9,18.7-5.8,27.9c-0.7,3.4-1.5,6.7-2.2,10.1c-0.3,1.5-1.1,2.1-2.5,2.1
		c-9.1,0.1-18.2,0.3-27.3,0.4c-1.1,0-2.2-0.3-3.7-0.5c0.3-2,0.5-3.7,0.9-5.4c2.6-11.7,5.3-23.4,8.1-35.6c-9.3-0.5-18.4-1-27.3-1.5
		c-0.5-2.6,2.8-26,5.3-38.4c9.5-0.3,19.1,0.4,29.1,0.4c0.9-5.7,1.8-11.3,2.7-17.2c-2.8-0.3-5.3-0.6-7.9-0.8
		c-5.9-0.5-11.8-0.9-17.8-1.4c-2.5-0.2-3-0.8-2.6-3.1c2.2-12.1,4.5-24.2,6.7-36.4c0.1-0.3,0.3-0.6,0.4-0.8c5.2,0,10.4,0,15.6,0
		c5.2,0,10.4,0,15.9,0c2.7-14.9,5.5-30,8.3-45.4c4.5,0.6,8.6,1.2,12.8,1.8c6,0.9,11.9,2,17.9,2.9c5.4,0.8,5.5,0.8,4.5,6.2
		c-2.1,11-4.2,21.9-6.4,32.9c-0.2,0.9-0.3,1.8-0.4,3.1c6.9,0.6,13.7,1.2,20.7,1.9c0.9-4.3,1.8-8.3,2.7-12.4
		c1.9-8.9,3.8-17.8,5.7-26.6c0.9-4,1.2-4.3,5.2-3.5c8.7,1.7,17.3,3.4,25.9,5.1c1.4,0.3,2.8,0.6,4.5,1c-0.9,6.7-2.7,13-3.9,19.4
		c-1.3,6.3-2.7,12.6-4.1,19.2c7,1.4,14.2,0.8,21.4,2.5c-0.7,3.4-1.3,6.4-2,9.4c-2.2,9-4.5,18-6.8,27c-0.6,2.5-0.8,2.6-3.4,2.6
		c-5.9,0-11.9,0-17.8,0c-1.1,0-2.2,0-3.5,0c-1.1,4.7-2.1,9.2-3.3,14c1.2,0.1,2.3,0.4,3.4,0.4c5.9,0.1,11.9,0.2,17.8,0.3
		c1.1,0,2.2,0.2,3.6,0.3c-2.1,13.1-4.7,25.7-8,38.4c-8.8,1-17.6,0.1-26.6,0.2c-2.8,12.9-5.6,25.6-8.4,38.8c-10,0.3-20-0.1-30.5,0
		c0.6-7,2.2-13.3,3.2-19.8c1.1-6.5,2.3-12.9,3.4-19.7C402,267.8,394.4,267.8,386.4,267.8z M339.6,233.6c-1.7,8.7-3.3,16.8-5,25.4
		c1.3,0.2,2.4,0.4,3.4,0.4c7.3,0.1,14.5,0.1,21.8,0.1c1.1,0,2.2,0.1,3.5,0.2c-2.9,14.1-5.8,27.9-8.7,42c6.1,0.6,11.9,1.1,18,1.6
		c3.2-14.5,6.3-28.9,9.5-43.6c12.4-0.6,24.7,0.5,37.3,0.4c-0.3,1.4-0.4,2.5-0.6,3.5c-2.4,10.5-4.8,21-7.1,31.4
		c-0.3,1.4-0.4,2.8-0.6,4.4c5,0.4,9.5,0.7,14.1,1.1c2.4,0.2,2.7,0,3.2-2.2c2.6-11.5,5.1-23,7.6-34.5c0.3-1.2,0.7-2.3,1.1-3.6
		c8.7-0.2,17.1,0.5,25.5-0.2c1.8-7.8,3.7-15.2,5.3-23.2c-8.7-0.3-16.9-0.6-25.5-0.8c2.4-10.5,4.5-20.6,7.2-30.8
		c4.8,0.2,9.2,0.5,13.6,0.7c3.4,0.1,6.8,0.2,10.1,0.3c1.5,0.1,2.2-0.5,2.5-2.1c0.4-2.1,1-4.1,1.4-6.1c1-4.3,2-8.5,3-12.8
		c0.4-1.9,0-2.5-1.7-2.8c-0.4-0.1-0.8,0-1.2-0.1c-5.9-0.3-11.9-0.5-17.8-0.8c-1.3-0.1-2.6-0.4-4.3-0.7c3.2-14.3,6.4-28.2,9.6-42.3
		c-1-0.3-1.7-0.7-2.4-0.8c-3.9-0.7-7.8-1.5-11.8-2.2c-2.8-0.5-2.8-0.5-3.4,2.3c-3,13-5.9,26.1-8.9,39.1c-0.2,1.1-0.7,2.1-1.1,3.1
		c-12.6-0.8-24.8-1.5-37.4-2.4c3.2-14.9,6.3-29.4,9.4-43.7c-0.5-0.4-0.7-0.6-1-0.7c-5.2-1.1-10.4-2.1-15.7-3.1
		c-1.4-0.3-2,0.5-2.3,1.9c-2.4,12-4.9,23.9-7.4,35.9c-0.6,2.9-1.3,5.8-2,8.9c-3.1-0.2-5.8-0.3-8.6-0.5c-6.1-0.3-12.2-0.7-18.3-1
		c-2.2-0.1-2.5,0.1-2.9,2.3c-0.9,4.5-1.7,9-2.6,13.5c-0.6,2.9-1.2,5.9-1.9,9.2c9.7,1.1,19.1,1,28.9,1.6c-2.3,11-4.3,21.6-6.8,32.2
		C359,234.1,349.5,233.8,339.6,233.6z"/>
	<path class="st1" d="M339.6,233.6c9.8,0.2,19.3,0.5,29.1,0.7c2.6-10.6,4.5-21.2,6.8-32.2c-9.7-0.6-19.2-0.5-28.9-1.6
		c0.7-3.3,1.3-6.3,1.9-9.2c0.9-4.5,1.7-9,2.6-13.5c0.4-2.2,0.6-2.4,2.9-2.3c6.1,0.3,12.2,0.7,18.3,1c2.7,0.1,5.5,0.3,8.6,0.5
		c0.7-3.1,1.4-6,2-8.9c2.5-11.9,5-23.9,7.4-35.9c0.3-1.4,0.9-2.1,2.3-1.9c5.2,1,10.4,2.1,15.7,3.1c0.3,0.1,0.5,0.3,1,0.7
		c-3.1,14.4-6.2,28.8-9.4,43.7c12.6,0.9,24.9,1.6,37.4,2.4c0.4-1,0.8-2.1,1.1-3.1c3-13,6-26,8.9-39.1c0.6-2.8,0.7-2.8,3.4-2.3
		c3.9,0.7,7.9,1.4,11.8,2.2c0.7,0.1,1.3,0.4,2.4,0.8c-3.2,14.1-6.4,28-9.6,42.3c1.7,0.3,3,0.6,4.3,0.7c5.9,0.3,11.9,0.6,17.8,0.8
		c0.4,0,0.8,0,1.2,0.1c1.8,0.3,2.2,0.9,1.7,2.8c-1,4.3-2,8.5-3,12.8c-0.5,2-1.1,4-1.4,6.1c-0.3,1.5-1,2.1-2.5,2.1
		c-3.4-0.1-6.8-0.2-10.1-0.3c-4.4-0.2-8.8-0.4-13.6-0.7c-2.7,10.2-4.8,20.3-7.2,30.8c8.6,0.3,16.8,0.6,25.5,0.8
		c-1.6,8-3.5,15.4-5.3,23.2c-8.4,0.7-16.9,0-25.5,0.2c-0.4,1.2-0.8,2.4-1.1,3.6c-2.6,11.5-5.1,23-7.6,34.5c-0.5,2.2-0.8,2.4-3.2,2.2
		c-4.6-0.4-9.1-0.7-14.1-1.1c0.2-1.6,0.3-3.1,0.6-4.4c2.4-10.5,4.8-21,7.1-31.4c0.2-1,0.4-2,0.6-3.5c-12.6,0.1-24.9-0.9-37.3-0.4
		c-3.2,14.7-6.3,29-9.5,43.6c-6.1-0.6-11.9-1.1-18-1.6c2.9-14.2,5.8-27.9,8.7-42c-1.3-0.1-2.4-0.2-3.5-0.2c-7.3,0-14.5-0.1-21.8-0.1
		c-1.1,0-2.1-0.3-3.4-0.4C336.3,250.4,337.9,242.3,339.6,233.6z M432.3,204.4c-12.9-0.5-25.3-1.3-37.9-1.5
		c-2.3,10.7-4.5,21-6.8,31.8c12.7,0.3,25.1,0.7,37.6,1C427.6,225.2,429.9,215.1,432.3,204.4z"/>
	<path class="st0" d="M432.3,204.4c-2.4,10.7-4.7,20.8-7.1,31.3c-12.5-0.3-24.9-0.7-37.6-1c2.3-10.8,4.5-21.1,6.8-31.8
		C407,203.1,419.4,204,432.3,204.4z M419.7,227.4c1-4.8,2.7-9.3,3.3-14.2c-7.1-0.3-13.9-0.6-20.8-0.9c-1.3,5-2.4,9.6-3.7,14.5
		C405.6,227,412.4,227.2,419.7,227.4z"/>
	<path class="st2" d="M419.7,227.4c-7.2-0.2-14.1-0.4-21.2-0.6c1.2-4.9,2.4-9.5,3.7-14.5c6.9,0.3,13.7,0.6,20.8,0.9
		C422.4,218.2,420.7,222.6,419.7,227.4z"/>
</g>
</svg>
