<svg id="Layer_1" data-name="Layer 1" xmlns="http://www.w3.org/2000/svg" viewBox="0 0 753.96 565.89"><title>fsharp-blank</title><path d="M772,152.43,395.32,591.27c-2-1.27-374.6-435-377.28-439.1.66-.69,1.33-1.44,2.05-2.14L139.93,34.47c2.59-2.5,5.23-5,7.76-7.53a4.47,4.47,0,0,1,3.84-1.52c.82.08,1.65,0,2.47,0q241.22,0,482.43-.06a9.6,9.6,0,0,1,7.29,3Q705,87.6,766.4,146.73C768.24,148.5,770,150.37,772,152.43Zm-377,415,355.2-413.82c-2.17-2.29-4-4.38-6-6.31Q690.73,95.7,637.3,44.11a9.22,9.22,0,0,0-7.06-2.8q-234.85.09-469.69.06c-.82,0-1.65.07-2.47,0a5.19,5.19,0,0,0-4.37,1.73Q97.85,97,41.93,150.92c-.79.76-1.51,1.58-2.35,2.46Z" transform="translate(-18.04 -25.38)"/><path d="M75.36,154.58c.78-.84,1.31-1.46,1.89-2q44.15-43.19,88.28-86.4a6.4,6.4,0,0,1,4.9-2q55.59,0,111.18,0,61.46,0,122.91,0l147.62,0c24,0,48,0,72,0a8.14,8.14,0,0,1,6.47,2.8Q659.21,97.17,688,127.3c8,8.32,16.29,16.32,24.46,24.45.87.87,1.88,1.6,3,2.57-.87,1.12-1.44,1.93-2.08,2.68q-27.38,32.05-54.76,64.09-29.57,34.64-59.11,69.31Q550,348.54,500.33,406.67q-51,59.62-102,119.16c-.93,1.09-1.89,2.14-3.07,3.47-.89-1-1.64-1.8-2.35-2.63L288.63,405q-54.36-63.41-108.7-126.82-24.11-28.14-48.17-56.31-22.8-26.61-45.62-53.2c-3.34-3.91-6.39-8.06-9.55-12.11A21.83,21.83,0,0,1,75.36,154.58Zm19.47.49L394.19,504.62c2.76-2.07,296.89-348.75,297.9-351.42-3.52-3.61-7.09-7.3-10.69-11q-17-17.26-34-34.51Q633.72,93.87,620.12,80c-1-1-1.91-1.92-3.63-1.9-18.94.18-37.87.34-56.81.35q-77.51,0-155-.07-114.57,0-229.13,0a6.06,6.06,0,0,0-4.56,2q-32,31.06-64.09,62.09C102.82,146.41,99,150.64,94.83,155.07Z" transform="translate(-18.04 -25.38)"/><path d="M382.38,271.2c.92,1.45,1.43,2.31,2,3.14q31.09,45.5,62.18,91,12.45,18.23,24.81,36.51c1.82,2.69,1.83,2.72-.52,5.19q-15.59,16.49-31.22,33Q428.35,451.85,417,463.61c-.57.59-1.21,1.1-2,1.84-.9-1.1-1.81-2-2.54-3.13q-18.19-27.2-36.33-54.43-57-86-113.84-172Q214.68,164.12,167.1,92.32c-.49-.75-.92-1.53-1.54-2.56H607c-.64,1.37-1,2.37-1.56,3.29Q592,116.67,578.53,140.27c-4,7.06-8.1,14.1-12,21.23a4.8,4.8,0,0,1-4.88,2.79q-118.59-.1-237.18-.06h-3.42c.5,1.13.76,1.88,1.15,2.55,5.11,8.81,10.26,17.59,15.32,26.43.82,1.43,1.72,2.2,3.4,2a20.68,20.68,0,0,1,2.47,0H474.18c-.69,1.52-1.07,2.55-1.6,3.5q-19.91,35-39.81,70a4.37,4.37,0,0,1-4.4,2.53c-14-.08-28,0-42,0ZM584.89,100.86c-1.41-.08-2.22-.17-3-.17q-43.7.1-87.39.22c-24.19.09-48.37.29-72.56.38q-78.13.29-156.25.51l-44.16.11c-9.37,0-18.74,0-28.1,0-1,0-2,.08-3.62.15L416.62,437,452,401.86c-.54-.82-1.14-1.76-1.78-2.68Q439.14,383.24,428,367.29q-14.52-20.91-29-41.86Q376.35,292.72,353.67,260a29.47,29.47,0,0,1-1.69-3.4h3.9c20.38,0,40.77,0,61.15,0a4.46,4.46,0,0,0,4.46-2.36c8.69-14.46,17.5-28.85,26.26-43.28.45-.74.76-1.56,1.33-2.75-1.8-.08-3.11-.19-4.42-.2Q417,208,389.38,208c-20.18,0-40.35-.08-60.53.08a6.06,6.06,0,0,1-5.9-3.27Q306.8,178.84,290.55,153c-.46-.73-.8-1.53-1.4-2.69H554.81Z" transform="translate(-18.04 -25.38)"/><path d="M559,228.83a29.76,29.76,0,0,1-1.42,3c-3.13,4.83-6.35,9.61-9.43,14.48a4.23,4.23,0,0,1-4,2.19c-5.14-.08-10.28,0-15.6,0L519,264.26l19,.27a20.11,20.11,0,0,1-1.09,2.62c-3,4.8-6.09,9.54-9,14.36a3.85,3.85,0,0,1-3.82,2c-4.63-.1-9.26,0-13.89-.11a3.46,3.46,0,0,0-3.45,1.92c-4.44,7.29-9,14.49-13.48,21.78a3.9,3.9,0,0,1-3.67,2.21c-6.79,0-13.57.06-20.36.08-.16,0-.33-.21-.81-.53,1.21-3,3.18-5.56,4.82-8.34s3.42-5.62,5.12-8.44,3.32-5.61,5.23-8.82l-8.6-.28a2.91,2.91,0,0,0-2.69,1.75c-1.39,2.41-2.73,4.83-4.13,7.24-3,5.16-6,10.3-9,15.47a3.12,3.12,0,0,1-3,1.76c-5.25,0-10.49.06-15.74.09a10.34,10.34,0,0,1-1.23-.07c-2.09-.24-2.4-.94-1.32-2.78q5.53-9.46,11-18.93c.78-1.33,1.55-2.67,2.29-4,.28-.51.45-1.08.83-2H434.6a6.91,6.91,0,0,1,.33-2c2.95-5.07,6-10.09,8.92-15.16a2.78,2.78,0,0,1,2.78-1.47c4,.08,8,.08,12,.1h3.42L470.87,248c-5.91-.75-11.52.11-17.49-.55a12.69,12.69,0,0,1,.91-2.42c3.2-4.79,6.49-9.52,9.67-14.33a3.35,3.35,0,0,1,3.07-1.61c4.32-.07,8.64-.35,13-.31a5.22,5.22,0,0,0,5.19-2.89c4.46-7.63,9.25-15.08,13.7-22.72,1.46-2.51,3.07-3.66,6.08-3.53,4.82.21,9.67-.09,14.5-.14.89,0,1.79.11,3,.2-.65,3.07-2.58,5.15-3.88,7.51-1.39,2.52-2.92,5-4.4,7.43s-2.87,4.75-4.29,7.14-2.77,4.73-4.29,7.32c3.42,0,6.46.14,9.48-.1.76-.06,1.58-1.2,2.1-2,4.91-7.61,9.76-15.25,14.62-22.88,2.42-3.79,2.41-3.81,6.76-3.76q6.94.08,13.89.2c.88,0,1.77.16,3.23.31-1,1.83-1.67,3.26-2.48,4.62q-6.36,10.58-12.77,21.12c-.31.51-.56,1.07-1,1.88,3.33.61,6.46.21,9.56.29S555.19,228.83,559,228.83Zm-62,4.28,17.47-28.88a19.08,19.08,0,0,0-2.79-.61c-1.75-.07-3.52.14-5.24-.07-2.06-.25-3.16.61-4.17,2.32q-6.68,11.29-13.58,22.44c-3.22,5.21-1.32,4.12-7.64,4.29-2.26.06-4.53,0-6.79,0s-4.91-.56-6.64.43-2.87,3.62-4.16,5.59a14.87,14.87,0,0,0-2.44,4.44h18c0,.43.08.67,0,.81-4.31,7.25-8.66,14.48-12.94,21.74a3.06,3.06,0,0,1-3.08,1.5c-4.32,0-8.64,0-13,0-1.23,0-2.54-.11-3.3,1.16-1.57,2.61-3.09,5.25-4.91,8.33,1.5.15,2.47.32,3.45.34,3.81.06,7.61.06,11.42.11a18.12,18.12,0,0,1,2.2.33c-.88,1.55-1.56,2.8-2.29,4-4.1,6.9-8.23,13.78-12.31,20.69-.53.9-1.58,1.74-.75,3.23,2.16,0,4.43-.15,6.67,0,2.47.21,3.93-.68,5.16-2.88,4.12-7.36,8.54-14.55,12.69-21.89,1.29-2.28,2.65-3.46,5.51-3.26,5,.34,10.08.17,15.12.23.66,0,1.33.13,2.51.25-2.95,4.84-5.68,9.28-8.36,13.74s-5.72,8.86-8.32,14a49,49,0,0,1,6.41.05c3.11.45,4.8-.83,6.34-3.5,4.27-7.39,8.92-14.56,13.29-21.89a4,4,0,0,1,4.24-2.2c3.38.26,6.79.2,10.18.29,6.73.18,6.73.18,10.67-5.37.54-.76,1.1-1.49,1.58-2.28.35-.57.57-1.21,1.08-2.31L508.6,268a6.94,6.94,0,0,1,.38-1.27c4.4-7.2,8.83-14.37,13.19-21.6a3,3,0,0,1,3.07-1.48c4.32.17,8.65.14,13,.45,2.74.2,4.83-.3,6.11-2.95a23.55,23.55,0,0,1,1.93-2.79c1-1.41,1.9-2.84,3.18-4.76-1.54-.19-2.5-.41-3.47-.42-4.63,0-9.26,0-13.89-.06-.75,0-1.5-.15-2.52-.26,1.12-1.89,2-3.48,3-5,4-6.58,8.08-13.15,12.08-19.74.6-1,1.67-1.91.84-3.6-2.26,0-4.62.13-7,0-2-.14-3.08.63-4.11,2.38-4.8,8.16-9.78,16.21-14.7,24.29-.63,1-1.11,2.07-2.73,2C510.58,233.05,504.2,233.11,497,233.11Z" transform="translate(-18.04 -25.38)"/><path d="M475.92,267.7c.88-1.48,1.59-2.69,2.32-3.9,3.78-6.25,7.6-12.48,11.33-18.76a3.69,3.69,0,0,1,3.7-2.1c5.76.2,11.52.23,17.28.33a9,9,0,0,1,1.36.27,15.58,15.58,0,0,1-.77,1.77c-4.2,7-8.43,13.9-12.6,20.87a3.29,3.29,0,0,1-3.19,1.89c-5.76-.1-11.53-.05-17.29-.08A18.36,18.36,0,0,1,475.92,267.7Zm28.76-19.41c-3.3,0-5.86.05-8.41,0a3,3,0,0,0-3,1.67c-2.23,3.81-4.58,7.56-6.84,11.35a12.67,12.67,0,0,0-.76,2.12c3,0,5.66.05,8.32,0a2.48,2.48,0,0,0,1.77-.88C498.66,258,501.44,253.49,504.68,248.29Z" transform="translate(-18.04 -25.38)"/></svg>