<svg id="Layer_1" data-name="Layer 1" xmlns="http://www.w3.org/2000/svg" viewBox="0 0 762.57 572.73"><defs><style>.cls-1{fill:#080705;}.cls-2{fill:#c42026;}.cls-3{fill:#fce800;}</style></defs><title>fsharp</title><path class="cls-1" d="M14.25,151.65c2.31-2.36,4.35-4.57,6.51-6.65Q83,84.93,145.26,24.85c1.57-1.52,3.15-1.69,5.06-1.69q98.69,0,197.39,0,146.48,0,293,0a7.52,7.52,0,0,1,5.74,2.32Q709,85.9,771.6,146.24c1.72,1.66,3.31,3.44,5.22,5.44L395.55,595.87ZM395.55,571.4,755,152.63c-1.09-1.11-2-2.09-3-3q-20.26-19.48-40.52-38.94Q694.2,94,676.9,77.31c-12.14-11.7-24.32-23.36-36.36-35.17a8.87,8.87,0,0,0-6.82-2.81q-238,.09-476,.05a16.14,16.14,0,0,1-1.87,0A4.81,4.81,0,0,0,151.76,41c-6.72,6.53-13.53,13-20.28,19.45Q114,77.27,96.63,94.08l-43.8,42.3c-2.7,2.6-5.46,5.13-8.12,7.77s-5.48,5.64-8.43,8.7Z" transform="translate(-14.25 -23.14)"/><path class="cls-2" d="M395.55,571.4,36.28,152.86c3-3.06,5.65-5.92,8.43-8.7s5.42-5.17,8.12-7.77l43.8-42.3Q114,77.28,131.48,60.49C138.23,54,145,47.57,151.76,41a4.81,4.81,0,0,1,4.13-1.67,16.14,16.14,0,0,0,1.87,0q238,0,476-.05a8.87,8.87,0,0,1,6.82,2.81c12,11.81,24.22,23.46,36.36,35.17Q694.21,94,711.53,110.68q20.25,19.48,40.52,38.94c1,.92,1.86,1.89,3,3Zm.27-38.6c.8-.86,1.3-1.37,1.77-1.91q25-29.11,50.05-58.24,26.3-30.69,52.51-61.46,22-25.76,44-51.52,29.88-35,59.74-70.08,30.1-35.26,60.23-70.48,27.07-31.69,54.09-63.41c.45-.52.77-1.15,1.59-2.41a20.38,20.38,0,0,1-2.85-2c-10.46-10.44-21-20.79-31.28-31.43-12.7-13.19-25.11-26.66-37.69-40-4.86-5.14-9.85-10.16-14.73-15.29a6.32,6.32,0,0,0-5-2.05c-9.89.06-19.78,0-29.67,0q-83.07,0-166.15,0-53.4,0-106.81-.07-40.76,0-81.51,0-37.94,0-75.89,0a6,6,0,0,0-4.69,1.85c-3.43,3.49-7,6.79-10.55,10.2q-23,22.31-45.87,44.65C96.21,130,85.4,140.81,74.54,151.59c-.72.72-1.38,1.5-2.26,2.45.93,1.29,1.71,2.5,2.62,3.61,6.14,7.47,12.23,15,18.48,22.36,9.82,11.58,19.75,23.07,29.64,34.6q10,11.61,19.93,23.2,13.59,15.89,27.16,31.8c8.33,9.72,16.71,19.38,25,29.1q14.32,16.7,28.6,33.44c6.7,7.82,13.45,15.6,20.14,23.42Q256.27,370,268.62,384.5c6.84,8,13.71,15.92,20.55,23.9q12.08,14.1,24.13,28.23c8.19,9.56,16.43,19.07,24.62,28.63,7.85,9.16,15.65,18.37,23.5,27.54q12.88,15.06,25.8,30.08C390,526.1,392.78,529.3,395.82,532.81Z" transform="translate(-14.25 -23.14)"/><path class="cls-1" d="M395.82,532.81c-3-3.51-5.83-6.71-8.6-9.93q-12.91-15-25.8-30.08c-7.84-9.17-15.65-18.37-23.5-27.54-8.19-9.56-16.42-19.08-24.62-28.63q-12.08-14.09-24.13-28.23c-6.84-8-13.72-15.92-20.55-23.9Q256.24,370,243.89,355.56c-6.7-7.82-13.44-15.6-20.14-23.42q-14.31-16.7-28.6-33.44c-8.33-9.71-16.71-19.38-25-29.1Q156.5,253.73,143,237.81,133,226.19,123,214.6c-9.89-11.53-19.82-23-29.64-34.6C87.13,172.63,81,165.12,74.9,157.65c-.91-1.1-1.69-2.31-2.62-3.61.87-1,1.53-1.73,2.26-2.45,10.86-10.78,21.67-21.62,32.6-32.32Q130,96.87,153,74.62c3.51-3.41,7.13-6.71,10.55-10.2a6,6,0,0,1,4.69-1.85q37.94,0,75.89,0,40.76,0,81.51,0,53.4,0,106.81.07,83.07,0,166.15,0c9.89,0,19.78.06,29.67,0a6.32,6.32,0,0,1,5,2.05c4.88,5.13,9.87,10.15,14.73,15.29,12.58,13.31,25,26.78,37.69,40,10.25,10.65,20.82,21,31.28,31.43a20.38,20.38,0,0,0,2.85,2c-.82,1.26-1.14,1.89-1.59,2.41q-27,31.72-54.09,63.41Q634,254.37,603.88,289.6q-29.89,35-59.74,70.08-22,25.77-44,51.52-26.25,30.73-52.51,61.46-25,29.16-50.05,58.24C397.12,531.43,396.62,531.94,395.82,532.81ZM91.65,153.87,395.14,508.25,696.42,152.92c-.93-1-1.55-1.7-2.2-2.36q-19-19.2-38-38.41Q639.7,95.34,623.32,78.39a6,6,0,0,0-4.9-2c-18.32.2-36.64.4-55,.4q-112.75,0-225.49-.07-81.67,0-163.34,0a7.83,7.83,0,0,0-6,2.41q-30.22,29.4-60.57,58.66C102.65,143.06,97.32,148.32,91.65,153.87Z" transform="translate(-14.25 -23.14)"/><path class="cls-3" d="M91.65,153.87c5.67-5.55,11-10.81,16.38-16q30.29-29.33,60.57-58.66a7.83,7.83,0,0,1,6-2.41q81.67.05,163.34,0,112.75,0,225.49.07c18.32,0,36.64-.2,55-.4a6,6,0,0,1,4.9,2q16.38,17,32.92,33.76,18.94,19.25,38,38.41c.65.66,1.26,1.35,2.2,2.36L395.14,508.25Zm518.46-65.6H163.4c.72,1.12,1.27,2,1.83,2.83q31.66,47.76,63.31,95.51,74.13,111.94,148.24,223.88,18,27.2,36.21,54.28c.79,1.19,1.76,2.26,2.76,3.53,1.5-1.39,2.85-2.52,4.06-3.79q26.35-27.74,52.65-55.52a29.63,29.63,0,0,0,2.07-2.78L382.71,271.8h3.6c14.16,0,28.32-.07,42.48.07a5.31,5.31,0,0,0,5.35-3.16q19.8-35.05,39.77-70c.6-1.05,1.06-2.18,1.85-3.8H343.23a21.53,21.53,0,0,0-2.5,0c-1.58.19-2.41-.56-3.18-1.89-5.22-9.12-10.53-18.19-15.79-27.28a19.37,19.37,0,0,1-.88-2.12h2.8q120.26,0,240.51.06a4.89,4.89,0,0,0,4.9-2.87q19.59-34.65,39.31-69.22C608.91,90.72,609.33,89.8,610.11,88.26ZM509.78,284.17h3.13c4.37,0,8.75,0,13.11.09a4.07,4.07,0,0,0,4-2.21c2.92-4.8,6-9.5,9-14.26a25.26,25.26,0,0,0,1.29-3H521l9.63-16.06c5.48,0,10.79,0,16.09,0a3.52,3.52,0,0,0,3.41-1.66c3.37-5.26,6.85-10.44,10.24-15.68a13.53,13.53,0,0,0,.91-2.61H541.45l16.92-28.14c-1.63-.17-2.61-.33-3.59-.35-4.27-.08-8.53-.16-12.8-.16-6.73,0-4.75-1.19-8.52,4.62-4.8,7.43-9.52,14.91-14.29,22.35-.6.93-1,2.13-2.45,2.13h-9.25c1.56-2.65,3-5.05,4.38-7.44s2.89-4.81,4.33-7.23,3-5,4.45-7.52c1.33-2.38,3.19-4.52,4.08-7.81-1.49,0-2.49,0-3.49,0-5.1.06-10.2.25-15.3.15a4.79,4.79,0,0,0-4.74,2.68c-4.9,8.22-10,16.33-14.89,24.54a3.85,3.85,0,0,1-3.71,2.18c-4.68,0-9.36.25-14,.35a3.36,3.36,0,0,0-3.15,1.52c-3.26,5-6.65,9.82-9.94,14.75a13.12,13.12,0,0,0-.92,2.59h17.62c-.43,1-.61,1.55-.91,2.05-2.21,3.77-4.53,7.47-6.63,11.3a3.54,3.54,0,0,1-3.77,2c-4.16-.15-8.33,0-12.49-.19a3.63,3.63,0,0,0-3.74,2.09c-2.67,4.7-5.5,9.32-8.24,14-.4.68-.65,1.45-1.17,2.63,1.5.11,2.59.26,3.68.27,4.06,0,8.12,0,12.18,0a17.78,17.78,0,0,1,2.13.27c-.28.63-.41,1-.61,1.37q-6.37,11.1-12.75,22.18c-.41.72-1,1.34-1.37,2.08a1.3,1.3,0,0,0,1,2.08,7.44,7.44,0,0,0,1.55.15c5.52,0,11-.08,16.55-.1a2.93,2.93,0,0,0,2.79-1.6c1.55-2.71,3.2-5.36,4.75-8.06,2.8-4.87,5.52-9.79,8.39-14.62.53-.89,1.56-2,2.43-2.08,2.92-.21,5.88,0,9.2.08-.8,1.36-1.31,2.25-1.84,3.12-4.14,6.86-8.3,13.7-12.41,20.58-.48.8-1.49,1.59-.76,2.57,6.29,0,12.42,0,18.55,0,4.85,0,4.85.11,7.36-3.91Z" transform="translate(-14.25 -23.14)"/><path class="cls-1" d="M610.11,88.26c-.78,1.53-1.2,2.46-1.71,3.34q-19.67,34.6-39.31,69.22a4.89,4.89,0,0,1-4.9,2.87q-120.26-.11-240.51-.06h-2.8a19.37,19.37,0,0,0,.88,2.12c5.26,9.09,10.57,18.16,15.79,27.28.76,1.33,1.6,2.07,3.18,1.89a21.53,21.53,0,0,1,2.5,0H475.76c-.78,1.62-1.25,2.75-1.85,3.8q-19.89,35-39.77,70a5.31,5.31,0,0,1-5.35,3.16c-14.16-.14-28.32-.07-42.48-.07h-3.6l91.81,134.41a29.63,29.63,0,0,1-2.07,2.78q-26.3,27.78-52.65,55.52c-1.21,1.27-2.56,2.4-4.06,3.79-1-1.28-2-2.35-2.76-3.53q-18.13-27.12-36.21-54.28Q302.64,298.56,228.54,186.6q-31.63-47.77-63.31-95.51c-.56-.85-1.1-1.71-1.83-2.83ZM417.81,440l35.71-35.81c-1.56-2.17-2.92-4-4.22-5.88q-15.82-22.8-31.62-45.62-18.55-26.8-37.09-53.62-13.42-19.38-26.88-38.72c-.62-.9-1.63-1.72-.7-3.34h3.22c20.51,0,41-.05,61.53,0a4.78,4.78,0,0,0,4.75-2.57c8.74-14.54,17.6-29,26.41-43.5.45-.75.78-1.57,1.44-2.92H445.8l-104.95,0c-4.48,0-9-.07-13.43,0a3.6,3.6,0,0,1-3.59-1.85c-2.44-4-5-7.88-7.54-11.84q-13.11-20.89-26.19-41.81c-.52-.83-.92-1.72-1.59-3h4q33.11,0,66.22.05H478.94q37.64,0,75.27,0c1.73,0,3.07-.11,4.15-1.91,9.12-15.16,18.36-30.25,27.55-45.36.51-.83.93-1.72,1.59-3h-3.36c-11.24,0-22.49,0-33.73,0q-63.08.27-126.17.59-94.16.36-188.33.63c-14.68,0-29.36,0-44,0h-3.95Z" transform="translate(-14.25 -23.14)"/><path class="cls-1" d="M509.78,284.17,496,306.27c-2.5,4-2.51,4-7.36,3.91-6.13-.06-12.26,0-18.55,0-.73-1,.28-1.77.76-2.57,4.11-6.87,8.27-13.72,12.41-20.58.53-.87,1-1.76,1.84-3.12-3.32-.07-6.27-.29-9.2-.08-.87.06-1.9,1.19-2.43,2.08-2.87,4.83-5.59,9.75-8.39,14.62-1.56,2.7-3.21,5.35-4.75,8.06a2.93,2.93,0,0,1-2.79,1.6c-5.52,0-11,.07-16.55.1a7.44,7.44,0,0,1-1.55-.15,1.3,1.3,0,0,1-1-2.08c.36-.74,1-1.36,1.37-2.08q6.39-11.08,12.75-22.18c.2-.35.33-.74.61-1.37a17.78,17.78,0,0,0-2.13-.27c-4.06,0-8.12,0-12.18,0-1.09,0-2.18-.15-3.68-.27.52-1.18.77-1.95,1.17-2.63,2.74-4.66,5.57-9.28,8.24-14a3.63,3.63,0,0,1,3.74-2.09c4.16.16,8.33,0,12.49.19a3.54,3.54,0,0,0,3.77-2c2.1-3.83,4.42-7.53,6.63-11.3.29-.5.48-1.07.91-2.05H454.54a13.12,13.12,0,0,1,.92-2.59c3.29-4.93,6.68-9.8,9.94-14.75a3.36,3.36,0,0,1,3.15-1.52c4.68-.1,9.36-.35,14-.35a3.85,3.85,0,0,0,3.71-2.18c4.92-8.21,10-16.32,14.89-24.54a4.79,4.79,0,0,1,4.74-2.68c5.1.1,10.2-.08,15.3-.15,1,0,2,0,3.49,0-.89,3.29-2.75,5.43-4.08,7.81-1.42,2.54-3,5-4.45,7.52s-2.9,4.81-4.33,7.23-2.82,4.79-4.38,7.44h9.25c1.43,0,1.85-1.2,2.45-2.13,4.77-7.45,9.48-14.93,14.29-22.35,3.76-5.82,1.79-4.63,8.52-4.62,4.27,0,8.53.08,12.8.16,1,0,2,.19,3.59.35l-16.92,28.14h19.85a13.53,13.53,0,0,1-.91,2.61c-3.39,5.24-6.87,10.42-10.24,15.68a3.52,3.52,0,0,1-3.41,1.66c-5.3,0-10.61,0-16.09,0L521,264.81h19.33a25.26,25.26,0,0,1-1.29,3c-3,4.76-6.06,9.47-9,14.26a4.07,4.07,0,0,1-4,2.21c-4.37-.13-8.74-.07-13.11-.09Zm42-50.33c-7-1.17-13.39-.06-20.12-.81,1.05-1.77,1.92-3.27,2.82-4.75,4.18-6.83,8.39-13.65,12.54-20.51a25.7,25.7,0,0,0,1.39-3.4c-3,0-5.36.13-7.73,0-2-.14-3.12.54-4.19,2.35-4.84,8.25-9.92,16.37-14.86,24.57a3.51,3.51,0,0,1-3.46,2c-5.72-.13-11.45-.07-17.17-.11a9.8,9.8,0,0,1-1.8-.38c.47-.89.78-1.54,1.15-2.16q5.35-8.8,10.72-17.59c1.3-2.13,2.64-4.24,3.82-6.44a3.9,3.9,0,0,0,.44-2.53c-.08-.33-1.41-.47-2.18-.5a34.92,34.92,0,0,1-4.67,0c-2.23-.4-3.37.44-4.48,2.33-4.69,8-9.59,15.84-14.31,23.81-1.21,2-2.47,3.21-5.11,3.1-4.56-.19-9.15.13-13.72.2-1.19,0-2.28.1-3,1.23-1.84,2.87-3.7,5.73-5.75,8.9,3.36,1.17,6.33.18,9.26.19s6.14,0,9.2,0c0,.51.08.75,0,.9-4.36,7.33-8.76,14.64-13.1,22a2.87,2.87,0,0,1-2.85,1.45c-3.23,0-6.45,0-9.68,0-7.73.05-5.76-.66-9.42,5.34-.82,1.34-2.07,2.56-2.11,4.51,5.57.37,11-.13,16.89.54-3,5-5.69,9.51-8.34,14.08s-5.66,8.84-8.17,14.26a71.3,71.3,0,0,1,7.37,0c2.81.32,4.33-.86,5.67-3.24,4.23-7.53,8.75-14.89,13-22.39a4.54,4.54,0,0,1,4.67-2.69c5.2.23,10.4.14,15.61.21a21,21,0,0,1,2.54.37c-5.39,9.58-11.43,18.26-16.84,28.06,2.75,0,4.92-.18,7,0,2.77.29,4.34-.82,5.73-3.19,4.48-7.62,9.24-15.08,13.79-22.66a4,4,0,0,1,4-2.18c5,.2,10,.16,15,.37a3.49,3.49,0,0,0,3.47-1.51c1.46-2.15,3-4.24,4.47-6.4a11.94,11.94,0,0,0,.84-2.34l-19.59-.26a4.83,4.83,0,0,1,.23-1.25c4.44-7.28,8.92-14.55,13.34-21.84a3,3,0,0,1,3.08-1.58c3.63.21,7.27.42,10.9.42,7.58,0,5.48,1,9.77-5C549.12,237.75,550.27,236.06,551.81,233.85Z" transform="translate(-14.25 -23.14)"/><path class="cls-2" d="M417.81,440,187.93,100.64h3.95c14.68,0,29.36,0,44,0q94.16-.29,188.33-.63,63.08-.24,126.17-.59c11.24,0,22.49,0,33.73,0h3.36c-.66,1.24-1.08,2.13-1.59,3-9.19,15.12-18.43,30.2-27.55,45.36-1.08,1.8-2.42,1.91-4.15,1.91q-37.64,0-75.27,0H358.69q-33.11,0-66.22-.05h-4c.68,1.29,1.08,2.19,1.59,3q13.08,20.91,26.19,41.81c2.49,4,5.09,7.85,7.54,11.84a3.6,3.6,0,0,0,3.59,1.85c4.47-.09,9,0,13.43,0l104.95,0h4.54c-.66,1.35-1,2.17-1.44,2.92-8.81,14.5-17.67,29-26.41,43.5a4.78,4.78,0,0,1-4.75,2.57c-20.51-.07-41,0-61.53,0H353c-.93,1.62.07,2.44.7,3.34q13.43,19.36,26.88,38.72,18.56,26.8,37.09,53.62,15.8,22.82,31.62,45.62c1.3,1.87,2.66,3.71,4.22,5.88Z" transform="translate(-14.25 -23.14)"/><path class="cls-2" d="M551.81,233.85c-1.55,2.22-2.7,3.9-3.88,5.56-4.29,6-2.19,5-9.77,5-3.63,0-7.27-.22-10.9-.42a3,3,0,0,0-3.08,1.58c-4.42,7.29-8.9,14.56-13.34,21.84a4.83,4.83,0,0,0-.23,1.25l19.59.26a11.94,11.94,0,0,1-.84,2.34c-1.45,2.16-3,4.25-4.47,6.4a3.49,3.49,0,0,1-3.47,1.51c-5-.21-10-.18-15-.37a4,4,0,0,0-4,2.18c-4.54,7.59-9.31,15-13.79,22.66-1.39,2.37-3,3.48-5.73,3.19-2.12-.22-4.29,0-7,0,5.4-9.8,11.45-18.47,16.84-28.06a21,21,0,0,0-2.54-.37c-5.2-.07-10.41,0-15.61-.21a4.54,4.54,0,0,0-4.67,2.69c-4.28,7.5-8.79,14.87-13,22.39-1.34,2.38-2.86,3.56-5.67,3.24a71.3,71.3,0,0,0-7.37,0c2.51-5.42,5.55-9.73,8.17-14.26s5.39-9.1,8.34-14.08c-5.85-.67-11.32-.17-16.89-.54,0-1.95,1.29-3.17,2.11-4.51,3.67-6,1.69-5.29,9.42-5.34,3.23,0,6.45,0,9.68,0a2.87,2.87,0,0,0,2.85-1.45c4.34-7.34,8.74-14.66,13.1-22,.09-.15,0-.39,0-.9-3.06,0-6.13,0-9.2,0s-5.9,1-9.26-.19c2.06-3.18,3.92-6,5.75-8.9.72-1.13,1.81-1.21,3-1.23,4.58-.06,9.16-.39,13.72-.2,2.64.11,3.91-1.06,5.11-3.1,4.73-8,9.63-15.82,14.31-23.81,1.11-1.89,2.25-2.73,4.48-2.33a34.92,34.92,0,0,0,4.67,0c.77,0,2.1.17,2.18.5a3.9,3.9,0,0,1-.44,2.53c-1.19,2.19-2.53,4.31-3.82,6.44q-5.36,8.8-10.72,17.59c-.37.61-.68,1.26-1.15,2.16a9.8,9.8,0,0,0,1.8.38c5.72,0,11.45,0,17.17.11a3.51,3.51,0,0,0,3.46-2c4.93-8.2,10-16.32,14.86-24.57,1.06-1.81,2.17-2.49,4.19-2.35,2.37.16,4.76,0,7.73,0a25.7,25.7,0,0,1-1.39,3.4c-4.15,6.85-8.36,13.67-12.54,20.51-.9,1.48-1.77,3-2.82,4.75C538.42,233.79,544.83,232.68,551.81,233.85ZM477.2,268.71c7.3,0,13.84,0,20.38,0,1.59,0,2.12-1,2.77-2.09q5.9-9.73,11.81-19.45c.57-.95,1-2,1.58-3a4.74,4.74,0,0,0-1.08-.38c-5.81-.17-11.62-.23-17.42-.52a4.12,4.12,0,0,0-4.21,2.42c-3.2,5.47-6.52,10.87-9.79,16.29Z" transform="translate(-14.25 -23.14)"/><path class="cls-1" d="M477.2,268.71l4-6.72c3.27-5.43,6.6-10.82,9.79-16.29a4.12,4.12,0,0,1,4.21-2.42c5.8.29,11.61.35,17.42.52a4.74,4.74,0,0,1,1.08.38c-.56,1.07-1,2.09-1.58,3q-5.89,9.73-11.81,19.45c-.65,1.07-1.18,2.11-2.77,2.09C491,268.67,484.5,268.71,477.2,268.71Zm29.19-20.05c-3.06,0-5.61.11-8.15,0a3.31,3.31,0,0,0-3.43,2c-2.17,3.78-4.51,7.46-6.75,11.2a17,17,0,0,0-.87,2.08c2.91,0,5.5-.07,8.09,0a2.75,2.75,0,0,0,2.73-1.59c1.81-3,3.71-6,5.57-9C504.42,251.95,505.25,250.54,506.38,248.65Z" transform="translate(-14.25 -23.14)"/><path class="cls-3" d="M506.38,248.65c-1.14,1.89-2,3.3-2.82,4.68-1.85,3-3.75,6-5.57,9a2.75,2.75,0,0,1-2.73,1.59c-2.58-.1-5.17,0-8.09,0a17,17,0,0,1,.87-2.08c2.24-3.74,4.58-7.42,6.75-11.2a3.31,3.31,0,0,1,3.43-2C500.77,248.77,503.32,248.65,506.38,248.65Z" transform="translate(-14.25 -23.14)"/></svg>