<svg id="Layer_1" data-name="Layer 1" xmlns="http://www.w3.org/2000/svg" viewBox="0 0 752.41 564.64"><title>vb-blank</title><path d="M394.06,590.4l-375.93-438c.9-1,1.66-1.91,2.51-2.73Q50.38,121,80.15,92.29q33-31.81,65.94-63.64a9.27,9.27,0,0,1,7-2.89q241.31.1,482.61,0a9,9,0,0,1,6.81,2.69q61.35,59.29,122.8,118.48c1.76,1.7,3.49,3.42,5.17,5.07C769,154.89,396.46,588.7,394.06,590.4ZM39.36,153.11c2.22,3.63,353.18,412.24,355.13,413.53a2.08,2.08,0,0,0,.57-.19,3.6,3.6,0,0,0,.68-.62L748.66,154.7a7.12,7.12,0,0,0,.66-1,.63.63,0,0,0,0-.3,2.7,2.7,0,0,0,0-.3l.55-.54a34.73,34.73,0,0,1-3.2-2.44q-11.94-11.4-23.81-22.88-43.55-42-87.06-84a6.24,6.24,0,0,0-5.16-2.16c-1.12.1-2.26,0-3.39,0H161.59a27.47,27.47,0,0,1-2.78,0,7.07,7.07,0,0,0-6,2.36c-8,7.86-16.09,15.62-24.16,23.4L41.31,151C40.65,151.63,40.06,152.34,39.36,153.11Z" transform="translate(-18.13 -25.76)"/><path d="M75.31,154.64c1-1,1.73-1.89,2.53-2.67q42.45-41.56,84.91-83.11c4.37-4.27,4.4-4,10.43-4.49,4-.31,6.2,1.22,7.89,4.74,3.81,8,8,15.75,11.91,23.69,2.08,4.24,3.7,8.7,5.73,13q3.23,6.82,6.89,13.43a6.2,6.2,0,0,0,3,2.4c2.86,1.13,5.81,2,8.77,2.9a25.93,25.93,0,0,1,13,9,49.84,49.84,0,0,1,6.85,11.67c5.57,12.71,11.36,25.33,16.77,38.11,3.24,7.66,5.91,15.57,8.85,23.36,2.86,7.6,5.82,15.16,8.58,22.79,3.72,10.24,7.58,20.45,10.87,30.83,5.57,17.57,12.22,34.71,19.38,51.67a298.79,298.79,0,0,1,11.46,33.87c3.07,10.69,6.54,21.21,10.58,31.56.45,1.15.95,2.28,1.33,3.45A29.94,29.94,0,0,0,331.81,392c10,10.75,19.85,21.7,29.84,32.5,3.7,4,7.63,7.78,11.42,11.7,2.07,2.14,4.06,4.36,6.1,6.53a21.84,21.84,0,0,0,1.83,1.48c.12-2,.28-3.46.28-4.94q0-40.12,0-80.24,0-139.18.09-278.36c0-4.42.13-8.84.3-13.25.1-2.59.25-2.7,2.94-2.82,1.85-.08,3.7.05,5.55,0q6.79,0,13.57-.13c2.41,0,2.81.3,3,2.8,0,.72,0,1.44,0,2.16q0,97.37,0,194.73,0,85.32,0,170.63c0,1.42,0,2.83,0,4.13,1.65.61,2.22-.47,2.91-1.12q13-12.13,25.86-24.31,13.34-12.62,26.61-25.3c7.45-7.08,15-14,22.34-21.26,16.35-16.23,32.68-32.47,48.74-49a270.12,270.12,0,0,0,19.92-23.11c2.7-3.49,5.8-6.68,7.93-10.58a118,118,0,0,0,12.78-36.77c2.5-14.61-.59-28-6.89-40.91A58.18,58.18,0,0,0,553.07,189c-2.61-2.33-5.1-4.77-7.71-7.1-1.38-1.23-2.86-2.34-4.34-3.44-4-3-8.1-5.93-12.36-9a18.93,18.93,0,0,1,1.4-1.64A178.7,178.7,0,0,0,554.8,140c2.49-3.53,3.54-7.58,4.6-11.68,4.72-18.15-.09-34-12-47.84a51.3,51.3,0,0,0-20.15-13.91c-.86-.34-1.71-.71-2.55-1.09-.17-.08-.3-.26-.76-.67,1-.1,1.78-.23,2.53-.23l93.19.15h.93c8.34,0,5.73-1.08,11.57,5,17.34,18.14,34.5,36.46,51.89,54.55,9.34,9.71,19,19.11,28.55,28.62a21.52,21.52,0,0,0,3,2.08c-1.16,1.55-1.77,2.46-2.47,3.29-29.85,35.1-59.57,70.32-89.61,105.26-25.48,29.64-51.33,59-77,88.44-15.06,17.3-30.37,34.4-45,52-34.29,41.18-69.8,81.32-104.46,122.18-.66.77-1.17,1.67-1.91,2.75-1.37-1.5-2.22-2.37-3-3.29q-73.7-86-147.4-172Q187.56,287,130.45,220.34q-21.08-24.6-42.19-49.19c-3.8-4.46-7.36-9.12-11-13.71C76.62,156.64,76.09,155.77,75.31,154.64Zm18.63-.15c1,1.27,1.69,2.25,2.48,3.17l77.89,90.94q36.93,43.13,73.86,86.27,34.23,40,68.47,79.91l74.46,87c3,3.45,3,3.43,5.88,0l50.88-60q32.53-38.36,65.07-76.72,23.44-27.66,46.85-55.35,29.84-35.18,59.72-70.33,28.45-33.53,56.88-67.07,7-8.24,13.93-16.51c1.69-2,1.65-2.21-.11-4.11-.91-1-1.86-1.93-2.79-2.88q-19.71-20-39.42-40Q633.7,94.22,619.45,79.66a5.18,5.18,0,0,0-4-1.79c-14.61.09-29.21.08-43.82.12-1.08,0-2.15.17-3.58.28.43,1.16.64,1.92,1,2.63,1.74,3.61,3.69,7.13,5.23,10.82,5.33,12.78,7.86,25.88,4.7,39.75-1.71,7.51-4.74,14.43-8,21.32a39.34,39.34,0,0,1-7.77,11c-.84.85-1.59,1.79-2.51,2.84,2.46,2.59,4.67,5,7,7.33a79.78,79.78,0,0,1,19.81,34.4,81.57,81.57,0,0,1,1.67,37.29c-.89,5.05-1.47,10.26-3.21,15-5.26,14.43-11.63,28.31-21.46,40.4-5.51,6.78-10.73,13.78-16.8,20.09-3.56,3.7-7,7.55-10.44,11.33-6.6,7.19-13,14.62-19.86,21.53-12.19,12.24-24.77,24.09-37.06,36.24-8.56,8.46-17,17.07-25.32,25.73-10.08,10.44-20.78,20.22-31.53,30-6.7,6.07-13.26,12.31-19.85,18.51-2.14,2-4.45,3.75-7.21,5.91-.17-3.37-.41-6-.41-8.67q0-36,0-71.91Q396,236,396,82.16a7.07,7.07,0,0,0-.12-2.44,2.72,2.72,0,0,0-1.54-1.53c-1.75-.45-2.67.32-2.69,2.29,0,3.29.12,6.58.12,9.87q0,57.71-.05,115.42,0,121.44-.07,242.87c0,7.51-.23,15-.38,22.52,0,.88-.19,1.75-.31,2.84a10.83,10.83,0,0,1-5.93-3.53c-1.35-1.68-2.69-3.39-4.15-5q-12.7-13.89-25.45-27.73c-2.85-3.11-5.55-6.35-8.44-9.42-9.23-9.82-18.6-19.5-27.7-29.43a25.19,25.19,0,0,1-4.68-7.87c-3.73-9.69-7.07-19.52-10.72-29.24-5.31-14.15-10.78-28.24-16.12-42.38-4.9-13-9.63-26-14.59-39q-8.54-22.33-17.36-44.55c-8.42-21.22-16.86-42.43-25.54-63.54a171.79,171.79,0,0,0-9.28-18.8c-3.55-6.31-8.28-11.54-15.84-13.25-1.8-.41-3.49-1.27-5.27-1.72a5.13,5.13,0,0,1-3.56-3.1q-2.29-4.89-4.73-9.7c-4.07-8.08-8.19-16.14-12.25-24.23-2.45-4.87-4.81-9.78-7.27-14.64-.82-1.61-1.86-3.12-3.06-5.12C143.75,106.11,118.82,130.09,93.94,154.49Z" transform="translate(-18.13 -25.76)"/><path d="M266,64.68c3.5,0,6.35-.12,9.2-.12q19,0,37.93,0c4,0,8,0,12,0,3,0,3.13.16,3.14,3.15q0,15.89,0,31.77-.09,49.34-.21,98.69c0,11.52,0,23,.05,34.55,0,1.07-.13,2.15-.2,3.26-.59-.1-.88-.06-1-.18-5.11-7.07-10.2-14.08-12.8-22.66-2.4-8-5.55-15.68-8.42-23.48-4.38-11.87-7.75-24-11.18-36.21-2.84-10.08-6-20.06-9.07-30.09-3.29-10.92-6.35-21.91-9.92-32.74-2.44-7.4-5.58-14.57-8.38-21.85C266.81,67.7,266.56,66.53,266,64.68Zm45.77,98.5.72-.06c.06-1.19.17-2.37.17-3.56q0-15.11,0-30.23,0-23.9,0-47.81c0-3.2-.22-3.45-3.23-3.47-5.65,0-11.31,0-17,0a24,24,0,0,0-3.07.46C297.92,106.73,303,135.44,311.79,163.18Z" transform="translate(-18.13 -25.76)"/><path d="M444,330.23c0-2.35,0-4,0-5.6,0-15.53-.09-31.06-.08-46.59q0-30.7.08-61.4c0-.41,0-.82,0-1.23.13-7.06.16-6.48,6.91-7.45a119,119,0,0,1,26.17-.59,41.65,41.65,0,0,1,9.62,2,104.65,104.65,0,0,1,26,13.23c5.94,4,8.17,10.23,9.2,16.82,1.57,10.07-.79,19.62-5.07,28.72a23.69,23.69,0,0,1-3,4.32c-10.06,12.86-21.75,24-34.27,34.51-10.17,8.51-21.3,15.4-32.75,21.9C446.22,329.28,445.48,329.55,444,330.23Zm15.19-26.29a42.65,42.65,0,0,0,8.39-5.63c7.77-6.25,15.46-12.6,23.25-18.83A50.55,50.55,0,0,0,502.91,266c3.88-6.49,6.08-13.59,4.66-21.2-2.47-13.25-10.29-22.15-23.92-25.05-3.12-.66-6.21-1.44-9.34-2a32.31,32.31,0,0,0-12.87-.16c-2.18.46-2.33.67-2.43,2.84-.14,3.08-.32,6.16-.34,9.25q-.1,22.68-.09,45.36c0,8.33.18,16.66.29,25C458.9,301.08,459,302.19,459.18,303.94Z" transform="translate(-18.13 -25.76)"/><path d="M442.26,163.14a19,19,0,0,1-.57-3.22q0-21,0-42c0-9.45,0-18.91.09-28.36,0-7.64.3-6.36,6.63-6.9,7.76-.67,15.31,1.31,22.9,2.56,10.46,1.72,19.76,6.24,28.36,12.18a35.36,35.36,0,0,1,12.81,15.87,17.06,17.06,0,0,1,1.14,8.78c-1.28,9.74-5.87,17.4-14.27,22.66a127.31,127.31,0,0,1-20.8,10c-10.51,4.18-21.6,5.76-32.62,7.73Zm11.53-15.08a88,88,0,0,0,9.56-1.44c6.76-1.79,13.44-3.84,20.14-5.87a28.63,28.63,0,0,0,11.16-6.4c4.48-4.11,6.28-9.46,4.66-15.12-2.35-8.16-7.14-14.63-15.18-18.47-8.95-4.27-18.34-5.05-28-4.52-2.76.15-2.88.4-3,3.16,0,.31,0,.62,0,.93q.17,22.06.35,44.13C453.52,145.44,453.66,146.44,453.79,148.06Z" transform="translate(-18.13 -25.76)"/></svg>