<svg id="Layer_1" data-name="Layer 1" xmlns="http://www.w3.org/2000/svg" viewBox="0 0 748.52 562.14"><defs><style>.cls-1{fill:#090705;}.cls-2{fill:#c62026;}.cls-3{fill:#fbe700;}</style></defs><title>vb</title><path class="cls-1" d="M394.87,588.53,20.57,152.45c.64-.7,1.21-1.38,1.84-2L142,35.15c2.5-2.41,5-4.79,7.47-7.26a4,4,0,0,1,3.5-1.46,20,20,0,0,0,2.14,0q240,0,480-.05a8.06,8.06,0,0,1,6.16,2.51Q702.49,88,763.75,147c1.76,1.69,3.39,3.51,5.34,5.54Zm0-24L747.72,153.42c-2.46-2.33-4.76-4.47-7-6.65l-36.4-35.11L671.87,80.39C659.66,68.62,647.41,56.89,635.29,45a8.72,8.72,0,0,0-6.7-2.73q-233.45.1-466.9.06a20.52,20.52,0,0,1-2.14,0,4.47,4.47,0,0,0-3.8,1.51c-7.11,6.9-14.3,13.72-21.44,20.59Q118.05,80.05,101.85,95.7q-28.79,27.77-57.56,55.56c-.71.69-1.34,1.45-2.13,2.32Z" transform="translate(-20.57 -26.39)"/><path class="cls-2" d="M394.87,564.5,42.15,153.58c.79-.86,1.42-1.63,2.13-2.32q28.77-27.79,57.56-55.56,16.21-15.64,32.45-31.26c7.14-6.87,14.33-13.69,21.44-20.59a4.47,4.47,0,0,1,3.8-1.51,20.52,20.52,0,0,0,2.14,0q233.45,0,466.9-.06a8.72,8.72,0,0,1,6.7,2.73c12.12,11.86,24.37,23.6,36.58,35.37l32.44,31.27,36.4,35.11c2.26,2.18,4.56,4.32,7,6.65ZM77.56,154.84c1,1.37,1.76,2.55,2.65,3.64,6,7.33,12,14.7,18.14,21.95,9.3,11,18.71,21.89,28.08,32.81q10.27,12,20.57,23.93,13.75,16,27.47,32.12l20.11,23.51q11.76,13.73,23.53,27.44,12.18,14.17,24.38,28.33,13.85,16.16,27.66,32.36c6.71,7.83,13.47,15.62,20.18,23.45,8,9.3,15.9,18.64,23.88,27.94s16,18.56,24,27.87q13.85,16.16,27.66,32.37,10.45,12.22,20.92,24.43c2.71,3.16,5.46,6.29,8.78,10.11a18.46,18.46,0,0,1,1.43-2.37c4.1-4.82,8.24-9.61,12.37-14.41q17.69-20.55,35.38-41.11,18.28-21.26,36.53-42.54,8.37-9.77,16.62-19.63c2.76-3.28,5.36-6.69,8.15-9.95q9.16-10.7,18.45-21.3,13.58-15.59,27.2-31.15,9.57-11,19.16-21.9,13.7-15.69,27.39-31.39c6.38-7.3,12.82-14.56,19.16-21.9q14-16.22,28-32.53C655.58,225,665.86,213.06,676,201.06c10.5-12.39,20.88-24.88,31.31-37.33,2.15-2.57,4.26-5.17,6.47-7.87-.74-.81-1.33-1.49-2-2.13q-19-19.32-38.08-38.64c-5.29-5.4-10.42-11-15.62-16.44q-15-15.77-30-31.56a5.85,5.85,0,0,0-4.61-1.92c-9.3,0-18.59-.1-27.89-.1q-34.64,0-69.28,0h-3.83a84.29,84.29,0,0,0,8.94,4.75,54.54,54.54,0,0,1,17,13.32,45,45,0,0,1,8.3,14.57c3.65,10.08,5,20.36,1.74,30.93-1.19,3.91-2.05,7.89-4.47,11.31a170.75,170.75,0,0,1-22.55,25.77c-1.24,1.16-2.44,2.37-4,3.93.7.43,1.15.67,1.57,1,7,4.82,14.08,9.43,19.89,15.7a5.24,5.24,0,0,0,.69.6,51.75,51.75,0,0,1,10.07,10.23c3.08,4.07,6.27,8.1,8,13,1.51,4.23,3.08,8.45,4.26,12.77,1.51,5.53,2.4,11.17,1.54,17-.48,3.23-.87,6.47-1.29,9.71-1.53,11.83-6.17,22.57-11.6,33a58.21,58.21,0,0,1-8.32,11.31c-6.59,7.52-12.66,15.51-19.5,22.78-11.27,12-22.91,23.6-34.54,35.23-5.84,5.84-12,11.32-18,17-6.49,6.21-12.92,12.5-19.36,18.77-4.39,4.27-8.68,8.64-13.14,12.84-8.11,7.63-16.33,15.14-24.47,22.73-4.48,4.18-8.88,8.46-13.34,12.66-.68.64-1.22,1.77-2.75,1.06,0-12.26,0-24.61,0-37s0-24.93,0-37.4,0-24.73,0-37.09,0-24.73,0-37.09,0-24.73,0-37.09,0-24.93,0-37.4,0-24.73,0-37.09,0-24.73,0-37.09,0-24.93,0-37.4.1-24.65-.1-37.4c-8.51.56-16.61-.14-24.72.31a16.16,16.16,0,0,0-.33,1.89c-.17,5-.43,10-.44,15q-.07,84.3-.06,168.6,0,94,0,187.91c0,1.06-.09,2.13-.17,3.8-1.91-2.13-3.33-3.82-4.85-5.4C370.68,431,364.7,425,358.9,418.82c-8.1-8.64-16.09-17.38-24.1-26.11-3-3.23-6.1-6.35-7.68-10.59-2.5-6.69-5.16-13.33-7.45-20.1s-4.09-13.69-6.3-20.48c-3-9.32-5.85-18.72-9.44-27.82-6.63-16.81-13.66-33.45-19.2-50.68-3.5-10.88-7.38-21.64-11.24-32.4-2.82-7.88-5.87-15.67-8.84-23.5-3.3-8.69-6.39-17.46-10-26-5-11.95-10.51-23.71-15.68-35.6a48.57,48.57,0,0,0-7.11-12.11,26,26,0,0,0-13-8.77,86,86,0,0,1-8.43-2.76,6.2,6.2,0,0,1-3-2.37c-2.35-4.17-4.57-8.43-6.62-12.76-2.27-4.79-4.15-9.77-6.47-14.54-3.22-6.61-6.69-13.09-10-19.63-1-1.9-1.94-3.82-2.93-5.72A3.21,3.21,0,0,0,178.14,65c-2.35.09-4.7.12-7,.06a4.53,4.53,0,0,0-3.52,1.46c-3.34,3.31-6.78,6.51-10.15,9.78q-22,21.36-43.94,42.75c-11.24,11-22.36,22.15-33.53,33.24C79.24,153,78.56,153.78,77.56,154.84Zm189.6-89.53a27,27,0,0,0,1.08,4,200.67,200.67,0,0,1,9,23.74c3.13,10.25,6.15,20.53,9.23,30.79s6.2,20.5,9.27,30.77c2.69,9,5.08,18.08,8,27,3.83,11.52,8.07,22.9,12.22,34.31a45.45,45.45,0,0,0,3.64,8.07c2.43,4,5.24,7.78,7.92,11.63a6.69,6.69,0,0,0,1.35,1.08,6.51,6.51,0,0,0,.29-1.18q.07-84.41.12-168.81a3.91,3.91,0,0,0-.16-.9c0-.09-.11-.16-.18-.24l-.25-.27ZM443.92,329.51a12.64,12.64,0,0,0,1.59-.52c10.44-6,21.06-11.71,30.3-19.55,5.44-4.62,11-9.1,16.3-13.9a184,184,0,0,0,19.18-20.59c3.25-4,6.13-8.07,7.8-13,2.88-8.46,4.19-17.07,2-25.84-1.24-5.06-3.09-10-7.69-13.21-9-6.28-18.59-11.47-29.19-14.53a34.89,34.89,0,0,0-7.81-1.41c-9.39-.48-18.77-.5-28.09,1.05-3.91.65-4.27.92-4.34,4.83-.18,10.11-.39,20.21-.43,30.32,0,9.29.19,18.58.22,27.87q.1,26,.11,52.08C443.92,325.1,443.92,327.1,443.92,329.51Zm-2.19-166.06c2-.32,3.66-.56,5.34-.86,6.13-1.09,12.33-1.87,18.36-3.37a126.56,126.56,0,0,0,29.33-11.4,58.73,58.73,0,0,0,8.62-5.78c5.71-4.54,8.49-10.78,9.91-17.8a18.74,18.74,0,0,0-1.42-11.63c-4.2-9.48-11.85-15.38-20.75-19.95-2.63-1.35-5.35-2.54-8.09-3.66a35.43,35.43,0,0,0-6.64-2.27c-6.71-1.28-13.45-2.42-20.21-3.4a42.6,42.6,0,0,0-13.77.51c-1.87,6.33-.4,12.69-.52,18.95C441.48,122.88,441.73,143,441.73,163.44Z" transform="translate(-20.57 -26.39)"/><path class="cls-1" d="M77.56,154.84c1-1.06,1.69-1.81,2.41-2.52,11.17-11.09,22.29-22.22,33.53-33.24q21.89-21.45,43.94-42.75c3.37-3.27,6.81-6.48,10.15-9.78a4.53,4.53,0,0,1,3.52-1.46c2.35.05,4.7,0,7-.06a3.21,3.21,0,0,1,3.24,1.84c1,1.9,2,3.81,2.93,5.72,3.36,6.54,6.83,13,10,19.63,2.32,4.77,4.2,9.75,6.47,14.54,2,4.33,4.27,8.59,6.62,12.76a6.2,6.2,0,0,0,3,2.37,86,86,0,0,0,8.43,2.76,26,26,0,0,1,13,8.77A48.57,48.57,0,0,1,239,145.52c5.17,11.89,10.65,23.65,15.68,35.6,3.6,8.56,6.69,17.33,10,26,3,7.82,6,15.62,8.84,23.5,3.86,10.76,7.74,21.52,11.24,32.4,5.54,17.23,12.56,33.88,19.2,50.68,3.59,9.1,6.41,18.51,9.44,27.82,2.21,6.79,4,13.72,6.3,20.48s5,13.4,7.45,20.1c1.58,4.24,4.72,7.36,7.68,10.59,8,8.73,16,17.47,24.1,26.11,5.8,6.18,11.78,12.19,17.65,18.3,1.52,1.58,2.94,3.27,4.85,5.4.08-1.67.17-2.74.17-3.8q0-94,0-187.91,0-84.3.06-168.6c0-5,.27-10,.44-15a16.16,16.16,0,0,1,.33-1.89c8.11-.45,16.21.25,24.72-.31.19,12.75.07,25.08.1,37.4s0,24.93,0,37.4,0,24.73,0,37.09,0,24.73,0,37.09,0,24.93,0,37.4,0,24.73,0,37.09,0,24.73,0,37.09,0,24.73,0,37.09,0,24.93,0,37.4,0,24.7,0,37c1.53.71,2.07-.42,2.75-1.06,4.46-4.2,8.86-8.47,13.34-12.66,8.14-7.6,16.36-15.11,24.47-22.73,4.46-4.2,8.75-8.57,13.14-12.84,6.44-6.27,12.87-12.55,19.36-18.77,6-5.71,12.18-11.2,18-17,11.63-11.63,23.27-23.26,34.54-35.23,6.84-7.27,12.91-15.26,19.5-22.78a58.21,58.21,0,0,0,8.32-11.31c5.43-10.45,10.07-21.2,11.6-33,.42-3.24.81-6.48,1.29-9.71.86-5.78,0-11.43-1.54-17-1.18-4.32-2.75-8.54-4.26-12.77-1.74-4.88-4.93-8.91-8-13A51.75,51.75,0,0,0,549.65,187a5.24,5.24,0,0,1-.69-.6c-5.81-6.27-12.93-10.89-19.89-15.7-.42-.29-.87-.53-1.57-1,1.6-1.56,2.8-2.77,4-3.93A170.75,170.75,0,0,0,554.09,140c2.42-3.41,3.28-7.39,4.47-11.31,3.22-10.57,1.9-20.85-1.74-30.93a45,45,0,0,0-8.3-14.57,54.54,54.54,0,0,0-17-13.32,84.29,84.29,0,0,1-8.94-4.75h3.83q34.64,0,69.28,0c9.3,0,18.59.12,27.89.1a5.85,5.85,0,0,1,4.61,1.92q14.95,15.81,30,31.56c5.21,5.48,10.34,11,15.62,16.44q19,19.38,38.08,38.64c.63.64,1.22,1.32,2,2.13-2.21,2.69-4.32,5.3-6.47,7.87-10.42,12.45-20.81,24.94-31.31,37.33-10.17,12-20.44,23.91-30.68,35.85q-14,16.28-28,32.53c-6.34,7.34-12.78,14.6-19.16,21.9q-13.7,15.69-27.39,31.39-9.57,11-19.16,21.9-13.6,15.57-27.2,31.15-9.25,10.62-18.45,21.3c-2.79,3.26-5.39,6.67-8.15,9.95q-8.27,9.85-16.62,19.63Q463,447.95,444.72,469.19,427,489.76,409.35,510.3c-4.13,4.8-8.27,9.59-12.37,14.41a18.46,18.46,0,0,0-1.43,2.37c-3.33-3.83-6.07-7-8.78-10.11q-10.47-12.2-20.92-24.43Q352,476.37,338.19,460.18c-8-9.3-16-18.56-24-27.87s-15.9-18.64-23.88-27.94c-6.71-7.83-13.47-15.62-20.18-23.45q-13.85-16.17-27.66-32.36-12.16-14.19-24.38-28.33-11.78-13.71-23.53-27.44l-20.11-23.51Q160.74,253.22,147,237.16q-10.27-12-20.57-23.93c-9.37-10.93-18.78-21.83-28.08-32.81-6.13-7.24-12.12-14.61-18.14-21.95C79.32,157.39,78.55,156.2,77.56,154.84Zm19-.19L394.47,502.52,690.22,153.73c-1.64-1.69-3-3.15-4.47-4.59q-18.1-18.31-36.2-36.61-15.91-16.17-31.71-32.45a4,4,0,0,0-3.19-1.39c-14.92.11-29.84.14-44.75.21a17.85,17.85,0,0,0-2.26.3l5.52,11.59c3.64,7.65,5.41,15.83,6.67,24.12a28.29,28.29,0,0,1,.06,6.73,79.13,79.13,0,0,1-7.95,28.46c-2.24,4.49-4.43,9-8,12.66l-3.7,3.82c1.85,2,3.49,3.94,5.32,5.69a79.06,79.06,0,0,1,16.27,22.84,76.9,76.9,0,0,1,7.44,43.17c-.48,4.25-1.14,8.49-1.88,12.71a52.49,52.49,0,0,1-2.14,9.52c-5.43,14.37-11.63,28.36-21.67,40.27-5.4,6.4-10.65,12.91-16.1,19.26-3.58,4.18-7.42,8.13-11.1,12.22s-6.85,8.14-10.57,11.91c-10,10.11-20.06,20.09-30.17,30.07-6.69,6.6-13.55,13-20.21,19.66-7,7-13.75,14.28-20.83,21.21-9.56,9.36-19.28,18.56-29,27.73-5.95,5.6-12.06,11-18.1,16.53q-5.27,4.81-10.5,9.66l-.89-.31q.14-194.67,0-389.49H392.4c0,3.35,0,6.49,0,9.64q0,184.69,0,369.38c0,4.66-.33,9.33-.52,14.25a12,12,0,0,1-6.42-3.69c-1.51-1.8-2.94-3.67-4.52-5.41-8.27-9-16.59-18-24.87-27.08-2.9-3.16-5.66-6.45-8.6-9.57-9.23-9.83-18.6-19.53-27.71-29.47a24.13,24.13,0,0,1-4.44-7.6c-3.73-9.72-7.1-19.58-10.76-29.33-5.35-14.25-10.87-28.43-16.24-42.67-4.76-12.61-9.35-25.29-14.16-37.89q-8.32-21.75-16.91-43.4c-8.21-20.7-16.38-41.41-24.86-62A198.36,198.36,0,0,0,222,153.22c-3.35-6-8-10.89-15.15-12.47-1.69-.37-3.27-1.22-4.95-1.6a5.75,5.75,0,0,1-4.22-3.57c-2-4.26-4.16-8.42-6.25-12.63q-8.54-17.14-17.1-34.27c-1-2-2.16-3.83-3.41-6Z" transform="translate(-20.57 -26.39)"/><path class="cls-1" d="M267.16,65.31h61.58l.25.27c.07.08.16.15.18.24a3.91,3.91,0,0,1,.16.9q0,84.41-.12,168.81a6.51,6.51,0,0,1-.29,1.18,6.69,6.69,0,0,1-1.35-1.08c-2.68-3.85-5.49-7.63-7.92-11.63a45.45,45.45,0,0,1-3.64-8.07c-4.15-11.41-8.39-22.79-12.22-34.31-3-8.9-5.36-18-8-27-3.07-10.26-6.19-20.51-9.27-30.77s-6.11-20.54-9.23-30.79a200.67,200.67,0,0,0-9-23.74A27,27,0,0,1,267.16,65.31Zm23.76,13.81c.31,1.31.5,2.19.73,3.06,2.36,8.76,4.8,17.5,7.07,26.28,4.52,17.47,9,35,13.44,52.44a27.15,27.15,0,0,0,1,2.66V79.12Z" transform="translate(-20.57 -26.39)"/><path class="cls-1" d="M443.92,329.51c0-2.4,0-4.41,0-6.42q0-26-.11-52.08c0-9.29-.26-18.58-.22-27.87,0-10.11.25-20.21.43-30.32.07-3.9.43-4.18,4.34-4.83,9.32-1.55,18.71-1.54,28.09-1.05a34.89,34.89,0,0,1,7.81,1.41c10.6,3.07,20.18,8.25,29.19,14.53,4.6,3.2,6.45,8.16,7.69,13.21,2.15,8.77.84,17.37-2,25.84-1.68,4.93-4.56,9-7.8,13a184,184,0,0,1-19.18,20.59c-5.28,4.8-10.85,9.28-16.3,13.9-9.24,7.85-19.86,13.57-30.3,19.55A12.64,12.64,0,0,1,443.92,329.51Zm15.58-26.57c2.88-2.08,5.41-3.75,7.77-5.65,7.65-6.13,15.2-12.39,22.86-18.51a51.16,51.16,0,0,0,11.59-12.56c5.51-8.73,7.53-18,3.64-28-1.76-4.5-4.13-8.78-7.89-11.88a30.2,30.2,0,0,0-13.06-6.48c-3.6-.75-7.17-1.69-10.79-2.3-4.73-.8-9.49-1-14.08.46C458.69,224.58,458.62,294.5,459.5,302.94Z" transform="translate(-20.57 -26.39)"/><path class="cls-1" d="M441.73,163.44c0-20.46-.25-40.56.15-60.65.12-6.25-1.35-12.62.52-18.95a42.6,42.6,0,0,1,13.77-.51c6.76,1,13.5,2.12,20.21,3.4A35.43,35.43,0,0,1,483,89c2.74,1.12,5.46,2.31,8.09,3.66,8.9,4.56,16.56,10.47,20.75,19.95a18.74,18.74,0,0,1,1.42,11.63c-1.42,7-4.2,13.26-9.91,17.8a58.73,58.73,0,0,1-8.62,5.78,126.56,126.56,0,0,1-29.33,11.4c-6,1.5-12.23,2.28-18.36,3.37C445.39,162.88,443.71,163.13,441.73,163.44Zm12.18-66.3a5.34,5.34,0,0,0-.33,1.14q.09,23.9.21,47.8a7.83,7.83,0,0,0,.15,1.2.53.53,0,0,0,.17.25,2.08,2.08,0,0,0,.31.2,7.67,7.67,0,0,0,.83,0c10.56-1.07,20.55-4.42,30.41-8.07a30.46,30.46,0,0,0,8.51-5.31,13.48,13.48,0,0,0,4.74-14.08c-2-7.84-6.38-14.28-13.86-18.21C475.27,96.93,464.81,96.3,453.9,97.15Z" transform="translate(-20.57 -26.39)"/><path class="cls-3" d="M96.55,154.65l74.32-72c1.25,2.2,2.42,4.06,3.41,6q8.59,17.12,17.1,34.27c2.1,4.2,4.28,8.37,6.25,12.63a5.75,5.75,0,0,0,4.22,3.57c1.68.38,3.26,1.23,4.95,1.6,7.19,1.58,11.8,6.49,15.15,12.47a198.36,198.36,0,0,1,10.37,21.16c8.48,20.59,16.65,41.3,24.86,62q8.58,21.65,16.91,43.4c4.82,12.59,9.4,25.27,14.16,37.89,5.38,14.24,10.89,28.42,16.24,42.67,3.66,9.75,7,19.61,10.76,29.33a24.13,24.13,0,0,0,4.44,7.6c9.11,9.94,18.48,19.64,27.71,29.47,2.94,3.13,5.7,6.41,8.6,9.57,8.28,9,16.6,18,24.87,27.08,1.58,1.73,3,3.61,4.52,5.41a12,12,0,0,0,6.42,3.69c.19-4.92.52-9.58.52-14.25q.05-184.69,0-369.38c0-3.14,0-6.29,0-9.64h3.75q0,194.88,0,389.49l.89.31q5.25-4.83,10.5-9.66c6-5.51,12.15-10.93,18.1-16.53,9.74-9.17,19.46-18.37,29-27.73,7.08-6.93,13.81-14.21,20.83-21.21,6.65-6.64,13.52-13.06,20.21-19.66,10.11-10,20.21-20,30.17-30.07,3.72-3.78,7-8,10.57-11.91s7.52-8,11.1-12.22c5.45-6.35,10.71-12.87,16.1-19.26,10-11.91,16.23-25.9,21.67-40.27a52.49,52.49,0,0,0,2.14-9.52c.74-4.22,1.4-8.46,1.88-12.71a76.9,76.9,0,0,0-7.44-43.17,79.06,79.06,0,0,0-16.27-22.84c-1.83-1.75-3.47-3.7-5.32-5.69l3.7-3.82c3.53-3.67,5.72-8.17,8-12.66a79.13,79.13,0,0,0,7.95-28.46,28.29,28.29,0,0,0-.06-6.73c-1.26-8.3-3-16.47-6.67-24.12l-5.52-11.59a17.85,17.85,0,0,1,2.26-.3c14.92-.07,29.84-.1,44.75-.21a4,4,0,0,1,3.19,1.39q15.82,16.25,31.71,32.45,18.06,18.35,36.2,36.61c1.43,1.44,2.83,2.91,4.47,4.59L394.47,502.52Z" transform="translate(-20.57 -26.39)"/><path class="cls-3" d="M290.91,79.12h22.27v84.44a27.15,27.15,0,0,1-1-2.66c-4.49-17.48-8.92-35-13.44-52.44-2.27-8.78-4.71-17.52-7.07-26.28C291.41,81.31,291.22,80.43,290.91,79.12Z" transform="translate(-20.57 -26.39)"/><path class="cls-3" d="M459.5,302.94c-.88-8.44-.81-78.36,0-84.91,4.6-1.47,9.35-1.26,14.08-.46,3.62.61,7.19,1.54,10.79,2.3a30.2,30.2,0,0,1,13.06,6.48c3.76,3.1,6.13,7.38,7.89,11.88,3.89,10,1.87,19.26-3.64,28a51.16,51.16,0,0,1-11.59,12.56c-7.66,6.12-15.21,12.38-22.86,18.51C464.91,299.18,462.38,300.86,459.5,302.94Z" transform="translate(-20.57 -26.39)"/><path class="cls-3" d="M453.9,97.15c10.91-.84,21.37-.22,31.16,4.93,7.48,3.93,11.88,10.37,13.86,18.21a13.48,13.48,0,0,1-4.74,14.08,30.46,30.46,0,0,1-8.51,5.31c-9.86,3.64-19.85,7-30.41,8.07a7.67,7.67,0,0,1-.83,0,2.08,2.08,0,0,1-.31-.2.53.53,0,0,1-.17-.25,7.83,7.83,0,0,1-.15-1.2q-.12-23.9-.21-47.8A5.34,5.34,0,0,1,453.9,97.15Z" transform="translate(-20.57 -26.39)"/></svg>