<svg id="Logo_Color_2010x2000_Image" data-name="Logo_Color_2010x2000 Image" xmlns="http://www.w3.org/2000/svg" viewBox="0 0 1500 1449.73"><defs><style>.cls-1{fill:#fff;}</style></defs><title>Logo_Mono_W</title><path class="cls-1" d="M1497.35,661.42c-.74,1.53-1.31,2.68-1.85,3.84-21.21,46.16-45.24,90.74-74.91,132.09-22.24,31-47.18,59.55-77.5,83q-1.48,1.15-3,2.23c-.17.12-.45.09-1.2.22.84-1.25,1.44-2.25,2.14-3.17,35-46.21,60.56-97.1,75.69-153.13,10.86-40.22,15.63-81.13,13.37-122.75-2.81-51.68-15.87-100.44-42.59-145.13a252.3,252.3,0,0,0-39.88-50.92c-.75-.74-1.56-1.41-2.67-2.42,3.84,9.73,7.8,18.85,11.06,28.22,13.93,40,18.57,81.41,17.43,123.57-1.82,67.27-17.91,131.35-43.93,193.1a655.67,655.67,0,0,1-138.35,207.24,555.74,555.74,0,0,1-87.53,72.7c-1,.69-2.07,1.39-3.09,2.12-.17.12-.21.41-.59,1.18,45.42,5.73,89.75,1.75,133.37-11.1s82.81-34.48,118.15-63.46c-.78.93-1.53,1.91-2.36,2.8a687.73,687.73,0,0,1-157.86,125.55c-57.15,33.19-117.65,58-182.38,72a471.76,471.76,0,0,1-73,10.28,170.06,170.06,0,0,0-18,1.74c66.61,63.16,144.87,95.73,237.74,91-6,1.3-11.93,2.7-17.92,3.88-47.15,9.26-94.77,12.21-142.76,11.3-60-1.13-116.66-15.81-171.17-40.1-58.3-26-111.72-59.92-161.82-99.24-38.52-30.23-74.69-63-106.87-100a15.1,15.1,0,0,1-1.21-1.88l-1.33.51c.48,6.74.66,13.52,1.47,20.22,5.88,48.63,28.44,89.66,58.4,127.24,15.94,20,33.9,38.07,53.06,55,1.35,1.19,2.67,2.41,4,3.62l-.52.79c-6.53-3-13.13-5.84-19.59-9-44.89-21.83-86.2-49-122.41-83.49-57.27-54.62-95.56-120.17-113.25-197.53a418.45,418.45,0,0,1-9.4-121.69c2.58-38.85,8.9-77.13,21.13-114.16,14.39-43.59,39-81,70.93-113.8,41.58-42.66,90.95-73.59,146.15-95.17,20.4-8,41.65-13.77,62.59-20.35a10.26,10.26,0,0,1,6.67.59c73.36,33,148.32,61.66,225.79,83.53,42.29,11.93,85.06,21.66,128.55,28,31.67,4.62,63.51,7.54,95.56,6.72,32.84-.84,65.24-4.63,96.06-17,13.28-5.34,25.81-12.07,36.74-21.4,22.34-19.09,32.46-43.65,32.25-72.79-.19-26.59-8.32-51.09-19.95-74.55-18.54-37.42-43.61-70.24-72.73-99.89Q1113.84,199.06,954.12,136A669.81,669.81,0,0,0,811.84,97.09a631.56,631.56,0,0,0-112-7.65,9.1,9.1,0,0,1-7-2.71C662.29,58.3,627.29,37.95,586.14,29.09A198.25,198.25,0,0,0,528,25.49c-14.59,1.18-29,3.32-42.91,8-18.64,6.27-34.22,17.59-47.68,31.58-14.63,15.21-28.54,31.12-42.7,46.79S366,142.47,348.52,154.4c-20.51,14-43,22.4-67.88,24.38-22.65,1.8-45.18,4.55-67,11.16-15.15,4.58-29.53,10.79-42.24,20.43-18.53,14.06-28.79,33.08-33.19,55.59-3.66,18.74-3.74,37.72-3.81,56.71-.07,18.61-.32,37.22-4.37,55.52-4.31,19.46-13.9,35.48-29.62,48.08-21.76,17.42-43.06,35.41-61.79,56.2C29.68,492.36,21.69,502.89,16,515c-8.31,17.84-8.63,36.44-5,55.34,5,25.92,14.3,50.57,22.39,75.57,5,15.59,8.79,31.41,9.65,47.88,1.17,22.2-4.8,42.18-17.52,60.27-.5.72-1,1.44-1.5,2.15C14.78,769.31,4.17,781.65.75,798v13.5c.68,3,1.37,6,2,9,4.66,21.21,15,39.79,28.31,56.43,17.55,21.93,36.28,42.93,54.42,64.39a26.81,26.81,0,0,1,4.31,6.89c18.62,45,37,90,61.59,132.21a760.73,760.73,0,0,0,138.85,174C385.15,1343,495.43,1404.65,619.53,1442c38.27,11.51,77.16,20.32,116.81,25.31,23.13,2.91,46.42,4.89,69.7,6.18,19.94,1.1,40,1.38,60,.65,22.18-.82,44.37-2.61,66.44-5a655.49,655.49,0,0,0,160.3-38.64c89.25-33.59,167.23-84.72,234.94-151.64,40.57-40.1,77-83.62,107.25-132.13A548.54,548.54,0,0,0,1485.85,1041c.32-.91.62-1.83,1.28-3.78-2.84,2.2-4.86,3.77-6.89,5.33-46.77,35.91-95.58,68.59-149.2,93.54-31.11,14.47-63.25,25.88-97.23,31.54a81.8,81.8,0,0,1-15.76,1.22c1-.54,2-1.14,3-1.62,117.64-54.71,200.18-143,250.48-262.06a434.79,434.79,0,0,0,28.39-100.24,14.53,14.53,0,0,1,.82-2.4v-126ZM933.06,320c17.72-.08,32.09,13.83,32.22,31.18.13,17.19-14.37,31.52-31.91,31.53-17.92,0-32.64-14.23-32.46-31.39C901.1,333.95,915.36,320.05,933.06,320ZM590,200.12l212.33,63.67L591.67,204.12c-180.67,44-80.07,151.42-57,167L750,363.45s-216.58,12.78-218.33,11.33C503.82,351.85,401.34,249.45,590,200.12Z" transform="translate(-0.75 -24.78)"/></svg>