<?xml version="1.0" encoding="UTF-8"?>
<!DOCTYPE svg PUBLIC "-//W3C//DTD SVG 1.1//EN" "http://www.w3.org/Graphics/SVG/1.1/DTD/svg11.dtd">
<svg version="1.1" xmlns="http://www.w3.org/2000/svg" xmlns:xlink="http://www.w3.org/1999/xlink" x="0" y="0" width="2750" height="1000" viewBox="0, 0, 2750, 1000">
  <g id="Layer_1">
    <path d="M542.5,32.5 C313.26,32.5 122.78,198.39 84.518,416.668 C128.583,416.703 164.295,452.432 164.295,496.505 C164.295,540.597 128.55,576.343 84.455,576.343 C84.365,576.343 84.278,576.335 84.188,576.335 C121.635,795.595 312.563,962.5 542.5,962.5 C799.312,962.5 1007.5,754.312 1007.5,497.5 C1007.5,240.688 799.312,32.5 542.5,32.5" fill="#68217A"/>
    <path d="M456.858,638.43 L392.781,638.43 L276.617,461.334 C269.803,450.982 265.086,443.185 262.465,437.944 L261.679,437.944 C262.727,448.427 263.251,463.627 263.251,483.545 L263.251,638.43 L203.302,638.43 L203.302,356.57 L271.703,356.57 L383.543,528.163 L397.695,551.16 L398.481,551.16 C397.433,544.346 396.909,531.439 396.909,512.438 L396.909,356.57 L456.858,356.57 z" fill="#FFFFFF"/>
    <path d="M690.366,638.43 L521.328,638.43 L521.328,356.57 L683.88,356.57 L683.88,408.264 L584.816,408.264 L584.816,470.965 L677,470.965 L677,522.463 L584.816,522.463 L584.816,586.933 L690.366,586.933 z" fill="#FFFFFF"/>
    <path d="M933.505,408.264 L853.114,408.264 L853.114,638.43 L789.43,638.43 L789.43,408.264 L709.432,408.264 L709.432,356.57 L933.505,356.57 z" fill="#FFFFFF"/>
    <text transform="matrix(1, 0, -0, 1, 1565.828, 522.647)">
      <tspan x="-508.95" y="102.5" font-family="Avenir-Light" font-size="325" fill="#682A7A">found</tspan>
      <tspan x="340.275" y="102.5" font-family="Avenir-Light" font-size="325" kerning="0" fill="#682A7A">a</tspan>
    </text>
    <text transform="matrix(1, 0, -0, 1, 2128.89, 522.647)">
      <tspan x="-54.112" y="102.5" font-family="Avenir-Light" font-size="325" kerning="0" fill="#682A7A">t</tspan>
    </text>
    <text transform="matrix(1, 0, -0, 1, 2318.853, 522.647)">
      <tspan x="-135.525" y="102.5" font-family="Avenir-Light" font-size="325" fill="#682A7A">i</tspan>
      <tspan x="-57.525" y="102.5" font-family="Avenir-Light" font-size="325" kerning="0" fill="#682A7A">o</tspan>
    </text>
    <text transform="matrix(1, 0, -0, 1, 2544.728, 522.647)">
      <tspan x="-90.35" y="102.5" font-family="Avenir-Light" font-size="325" kerning="0" fill="#682A7A">n</tspan>
    </text>
    <path d="M140.706,497.917 C140.706,530.364 114.404,556.667 81.956,556.667 C49.509,556.667 23.206,530.364 23.206,497.917 C23.206,465.469 49.509,439.167 81.956,439.167 C114.404,439.167 140.706,465.469 140.706,497.917" fill="#CF18FD"/>
  </g>
</svg>
