<svg width="128" height="128" viewBox="0 0 128 128" fill="none" xmlns="http://www.w3.org/2000/svg">
<mask id="mask0" mask-type="alpha" maskUnits="userSpaceOnUse" x="0" y="0" width="128" height="128">
<rect width="128" height="128" fill="#C4C4C4"/>
</mask>
<g mask="url(#mask0)">
<path d="M64 0C55.1641 0 48 7.16284 48 16C48 18.009 48.3706 19.9304 49.0459 21.7C23.6943 27.5859 4 48.1848 4 74C4 104.717 31.813 128 64 128C96.187 128 124 104.717 124 74C124 48.1848 104.306 27.5859 78.9541 21.7C79.6294 19.9304 80 18.009 80 16C80 7.16284 72.8359 0 64 0Z" fill="black"/>
<rect x="60" y="16" width="8" height="16" fill="#E1D2E3"/>
<ellipse cx="64" cy="74" rx="52" ry="46" fill="#AE8CBA"/>
<path d="M114.768 84C115.574 80.7808 116 77.4341 116 74C116 66.0308 113.709 58.5352 109.679 52H18.3213C14.291 58.5352 12 66.0308 12 74C12 77.4341 12.4258 80.7808 13.2324 84H114.768Z" fill="#9664A3"/>
<path d="M106.461 84C107.465 80.8135 108 77.4609 108 74C108 65.8008 104.994 58.2085 99.8809 52H28.1191C23.0059 58.2085 20 65.8008 20 74C20 77.4609 20.5352 80.8135 21.5391 84H106.461Z" fill="white"/>
<circle cx="64" cy="16" r="8" fill="#AE8CBA"/>
<path d="M64 68L44 84H84L64 68Z" fill="#E1D2E3"/>
<rect x="80" y="60" width="8" height="16" rx="4" fill="#783B8B"/>
<rect x="40" y="60" width="8" height="16" rx="4" fill="#783B8B"/>
</g>
</svg>
