<svg xmlns="http://www.w3.org/2000/svg" viewBox="0 0 16 16"><defs><style>.icon-canvas-transparent{fill:#f6f6f6;opacity:0;}.brand-visualstudio{fill:#5c2d91;}</style></defs><title>BrandBlazor_nohalo_16x</title><g id="canvas"><path class="icon-canvas-transparent" d="M16,0V16H0V0Z"/></g><g id="iconBg"><path class="brand-visualstudio" d="M15.919,5.4a9.294,9.294,0,0,1-9.113,7.829,6.753,6.753,0,0,1-1.332-.081A4.082,4.082,0,0,1,2.079,9.3a3.964,3.964,0,0,1,7.927-.056c.016.657-.268,1.234-.853,1.25-.625,0-.918-.446-.918-1.047V7.777A1.023,1.023,0,0,0,7.22,6.753h-1.4a2.437,2.437,0,1,0,1.8,4.061l.049-.073.049.081a1.724,1.724,0,0,0,1.47.7,1.943,1.943,0,0,0,1.8-2.031A5.288,5.288,0,0,0,10.843,8.2,4.946,4.946,0,0,0,1.064,9.271a5.008,5.008,0,0,0,4.881,4.946s.366.033.78.024a10.557,10.557,0,0,0,5.661-1.689c.024-.016.048.016.032.041A8.31,8.31,0,0,1,5.945,15.24,5.841,5.841,0,0,1,0,9.247,6.045,6.045,0,0,1,2.428,4.406,5.92,5.92,0,0,1,5.921,3.253H7.8a5.285,5.285,0,0,0,3.9-1.722.075.075,0,0,1,.13.057,5.3,5.3,0,0,1-.82,2.371.073.073,0,0,0,.081.106A5.682,5.682,0,0,0,15.041.808a.1.1,0,0,1,.171,0A7.2,7.2,0,0,1,15.919,5.4ZM5.815,7.728A1.454,1.454,0,1,0,7.269,9.182V7.825a.105.105,0,0,0-.1-.1Z"/></g></svg>