<?xml version="1.0" encoding="UTF-8"?>
<!DOCTYPE svg PUBLIC "-//W3C//DTD SVG 1.1//EN" "http://www.w3.org/Graphics/SVG/1.1/DTD/svg11.dtd">
<svg version="1.1" xmlns="http://www.w3.org/2000/svg" xmlns:xlink="http://www.w3.org/1999/xlink" x="0" y="0" width="4000" height="4000" viewBox="0, 0, 4000, 4000">
  <g id="Layer_1">
    <path d="M1168,1184 L3216,3232 C3536,3552 3520,3992 3520,3992 C3520,3992 3048,3976 2760,3688 L712,1640 L1168,1184 z" fill="#AFAFAF"/>
    <path d="M3664,16 C3632,128 3544,224 3424,264 C3392,272 3352,280 3320,280 L3120,224 L2944,176 L2904,168 C2848,152 2784,184 2768,248 C2752,304 2784,368 2848,384 L3184,472 L3256,488 C3312,496 3376,496 3432,472 C3480,456 3520,432 3560,400 C3664,312 3712,160 3664,16 z" fill="#999999"/>
    <path d="M3050,951 C2994,967 2930,935 2914,871 L2762,303 C2746,247 2778,183 2842,167 L2842,167 C2898,151 2962,183 2978,247 L3130,815 C3146,871 3106,935 3050,951 L3050,951 z" fill="#E5E5E5"/>
    <path d="M2346,665 C2330,721 2362,785 2426,801 L2994,953 C3050,969 3114,937 3130,873 L3130,873 C3146,817 3114,753 3050,737 L2482,585 C2426,569 2362,609 2346,665 L2346,665 z" fill="#999999"/>
    <path d="M2632,1368 C2576,1384 2512,1352 2496,1288 L2344,720 C2328,664 2360,600 2424,584 L2424,584 C2480,568 2544,600 2560,664 L2712,1232 C2728,1296 2696,1352 2632,1368 L2632,1368 z" fill="#E5E5E5"/>
    <path d="M1926,1086 C1910,1142 1942,1206 2006,1222 L2574,1374 C2630,1390 2694,1358 2710,1294 L2710,1294 C2726,1238 2694,1174 2630,1158 L2062,1006 C2006,998 1942,1030 1926,1086 L1926,1086 z" fill="#999999"/>
    <path d="M2211,1791 C2155,1807 2091,1775 2075,1711 L1923,1143 C1907,1087 1939,1023 2003,1007 L2003,1007 C2059,991 2123,1023 2139,1087 L2291,1655 C2307,1711 2267,1775 2211,1791 L2211,1791 z" fill="#E5E5E5"/>
    <path d="M1505,1503 C1489,1559 1521,1623 1585,1639 L2153,1791 C2209,1807 2273,1775 2289,1711 L2289,1711 C2305,1655 2273,1591 2209,1575 L1641,1423 C1585,1407 1521,1439 1505,1503 L1505,1503 z" fill="#999999"/>
    <path d="M1792,2206 C1736,2222 1672,2190 1656,2126 L1504,1558 C1488,1502 1520,1438 1584,1422 L1584,1422 C1640,1406 1704,1438 1720,1502 L1872,2070 C1888,2134 1848,2190 1792,2206 L1792,2206 z" fill="#E5E5E5"/>
    <path d="M1088,1920 C1072,1976 1104,2040 1168,2056 L1736,2208 C1792,2224 1856,2192 1872,2128 L1872,2128 C1888,2072 1856,2008 1792,1992 L1224,1840 C1168,1824 1104,1864 1088,1920 L1088,1920 z" fill="#999999"/>
    <path d="M1592,3408 C1592,3736 1328,4000 1000,4000 L1000,4000 C672,4000 408,3736 408,3408 L408,592 C408,264 672,0 1000,0 L1000,0 C1328,0 1592,264 1592,592 L1592,3408 z" fill="#0072C6"/>
    <path d="M408,2608 L408,592 C408,264 672,0 1000,0 L1000,0 C1328,0 1592,264 1592,592 L1592,1568 L408,2608 z" fill="#FFFFFF" opacity="0.1"/>
    <path d="M1400,2216 C1400,2168 1360,2120 1304,2120 C1304,2120 1296,2120 1296,2120 C1304,2096 1304,2080 1304,2056 C1304,1920 1192,1808 1056,1808 C944,1808 856,1880 824,1976 C808,1968 792,1968 768,1968 C672,1968 600,2048 600,2136 C600,2232 672,2304 768,2304 C768,2304 768,2304 768,2304 L768,2304 L1312,2304 L1312,2304 C1360,2304 1400,2264 1400,2216" fill="#FFFFFF"/>
  </g>
</svg>
