<svg width="261" height="261" viewBox="0 0 261 261" fill="none" xmlns="http://www.w3.org/2000/svg">
<mask id="mask0_382_495" style="mask-type:alpha" maskUnits="userSpaceOnUse" x="0" y="0" width="261" height="261">
<path d="M130.283 260.567C202.237 260.567 260.567 202.237 260.567 130.283C260.567 58.3298 202.237 0 130.283 0C58.3298 0 0 58.3298 0 130.283C0 202.237 58.3298 260.567 130.283 260.567Z" fill="#D9D9D9"/>
</mask>
<g mask="url(#mask0_382_495)">
<rect x="-8.46533" y="-8.46545" width="279.36" height="279.36" fill="url(#paint0_linear_382_495)"/>
<rect x="-8.46533" y="-8.46533" width="279.36" height="280.451" fill="url(#paint1_linear_382_495)"/>
<path d="M90.43 175.16L74.85 134.77H74.62C74.77 137.24 74.85 139.78 74.85 142.37V175.16H72.05V131.42H76.56L91.3601 169.89H91.53L106.33 131.42H110.73V175.16H107.79V142.01C107.79 139.7 107.91 137.3 108.13 134.83H107.9L92.27 175.16H90.41H90.43Z" fill="white"/>
<path d="M142.68 159.72H125.71L119.88 175.16H116.65L133.45 131.24H135.31L151.77 175.16H148.48L142.68 159.72ZM126.77 156.97H141.71L136.03 141.2C135.55 139.96 134.98 138.25 134.31 136.05C133.8 137.96 133.23 139.7 132.62 141.26L126.76 156.97H126.77Z" fill="white"/>
<path d="M186.48 131.42V159.72C186.48 164.75 185.09 168.68 182.31 171.51C179.53 174.34 175.65 175.76 170.68 175.76C165.71 175.76 162.06 174.34 159.34 171.51C156.63 168.66 155.28 164.69 155.28 159.6V131.42H158.22V159.72C158.22 163.93 159.34 167.21 161.56 169.56C163.79 171.89 166.94 173.06 171.02 173.06C175.1 173.06 178.09 171.91 180.28 169.62C182.47 167.31 183.56 164.1 183.56 160.02V131.42H186.48Z" fill="white"/>
<path d="M197.88 175.16V131.42H200.79V175.16H197.88Z" fill="white"/>
<path d="M63.72 117.72C63.23 117.73 62.75 117.64 62.3 117.45C61.85 117.26 61.43 116.98 61.08 116.63C60.74 116.29 60.46 115.87 60.28 115.41C60.1 114.95 60 114.46 60 113.96C60 113.46 60.1 112.97 60.28 112.51C60.46 112.05 60.74 111.64 61.08 111.29C61.8 110.57 62.75 110.17 63.73 110.17C64.71 110.17 65.67 110.57 66.38 111.29C66.73 111.63 67.01 112.04 67.2 112.5C67.39 112.96 67.49 113.46 67.49 113.96C67.49 114.46 67.39 114.96 67.2 115.42C67.01 115.88 66.73 116.29 66.38 116.63C66.03 116.99 65.61 117.27 65.15 117.45C64.69 117.64 64.2 117.73 63.71 117.72H63.72Z" fill="white"/>
<path d="M109.55 117.72H101.52L80.37 85.59C79.84 84.79 79.4 83.94 79.04 83.06H78.85C79.07 85.06 79.15 87.06 79.1 89.07V117.73H72V74H80.55L100.99 105.37C101.85 106.67 102.41 107.57 102.66 108.06H102.78C102.53 106.11 102.42 104.14 102.47 102.18V74H109.54V117.72H109.55Z" fill="white"/>
<path d="M139.44 117.72H115.41V74H138.48V80.16H122.51V92.54H137.22V98.67H122.51V111.6H139.43V117.73L139.44 117.72Z" fill="white"/>
<path d="M177.12 80.16H164.29V117.72H156.88V80.16H144.08V74H177.12V80.16Z" fill="white"/>
<path d="M137.085 202.294C137.673 201.331 136.229 199.392 133.851 197.977C131.479 196.556 129.083 196.189 128.494 197.152C127.906 198.115 129.356 200.048 131.728 201.469C134.1 202.89 136.502 203.258 137.085 202.294Z" fill="#ECFFFE"/>
<path d="M144.67 232.765C145.373 231.928 144.518 230.056 142.752 228.58C140.987 227.105 138.979 226.587 138.269 227.424C137.559 228.261 138.421 230.134 140.186 231.609C141.958 233.084 143.966 233.602 144.67 232.765Z" fill="#ECFFFE"/>
<path d="M56.2781 131.01C56.5936 129.98 55.2104 128.65 53.1901 128.035C51.1699 127.421 49.2709 127.758 48.9555 128.782C48.64 129.812 50.0233 131.142 52.0435 131.757C54.0698 132.371 55.9627 132.04 56.2781 131.01Z" fill="#ECFFFE"/>
<path d="M38.8908 127.975C40.6199 128.349 42.1851 127.909 42.3853 126.988C42.5855 126.067 41.3479 125.025 39.6188 124.646C37.8898 124.272 36.3246 124.712 36.1244 125.633C35.9241 126.554 37.1557 127.602 38.8908 127.975Z" fill="#ECFFFE"/>
<path d="M26.7875 125.35C27.9402 125.597 28.9959 125.242 29.1475 124.555C29.2992 123.869 28.4923 123.104 27.3396 122.863C26.1869 122.616 25.1313 122.972 24.9796 123.658C24.828 124.345 25.6409 125.109 26.7875 125.35Z" fill="#ECFFFE"/>
<path d="M105.745 192.547C117.437 200.766 128.104 211.468 136.7 220.694C141.488 225.831 147.804 221.947 139.079 213.979C130.355 206.004 116.21 195.124 107.266 190.406C103.131 188.217 102.66 190.383 105.745 192.547Z" fill="#ECFFFE"/>
<path d="M-100.391 154.306C-93.0865 152.945 -56.1213 164.512 -12.9559 183.274C30.064 201.964 25.3925 234.352 80.8615 249.832C95.5129 252.921 124.943 255.709 107.659 242.017C84.3499 223.55 90.5563 216.09 108.969 226.338C126.963 236.351 128.171 226.789 121.333 217.727C111.505 204.716 95.1671 191.361 74.8432 176.976C45.8074 156.42 55.1018 158.202 66.3133 159.81C79.3933 161.682 74.6916 147.153 58.2019 139.494C9.86147 117.047 -55.8908 122.207 -97.0299 137.808C-109.303 143.552 -107.829 155.679 -100.391 154.306Z" fill="#ECFFFE"/>
<path d="M-100.239 159.683C-36.0462 159.249 11.639 230.619 80.8615 249.832C95.5129 252.921 109.636 251.482 94.2934 235.61C77.2517 217.98 83.6826 206.317 101.95 216.824C110.904 221.978 113.683 217.185 106.427 208.509C97.4543 197.767 82.3236 187.94 61.9997 173.55C32.9639 152.993 40.2987 150.729 57.4921 154.041C70.7784 156.6 67.4417 148.676 50.4485 142.215C0.536743 123.243 -59.3974 128.114 -100.53 143.721C-112.81 149.477 -107.744 159.731 -100.239 159.683Z" fill="#98F1FD"/>
<path d="M-92.8016 155.535C-51.6139 154.674 -13.9208 182.943 32.1932 218.324C61.1926 238.308 97.5147 249.61 81.207 231.865C64.8994 214.115 71.6154 200.417 93.371 209.466C105.699 214.596 84.4831 195.1 51.3643 177.488C15.4851 158.401 25.4893 147.195 38.7271 148.008C43.0831 148.273 43.6898 146.473 39.3217 145.262C-14.7155 130.27 -66.5687 139.97 -91.9644 147.304C-100.27 149.7 -101.641 155.721 -92.8016 155.535Z" fill="url(#paint2_radial_382_495)"/>
<path d="M-22.0221 171.978C11.0098 184.008 34.9142 176.743 64.4613 193.095C85.1975 204.569 70.333 206.238 61.8903 207.695C55.3471 207.695 52.0373 209.375 79.1482 219.206C106.259 229.036 107.728 243.18 117.908 252.911C127.819 262.374 156.587 265.281 185.944 259.249C215.3 253.216 242.467 267.059 257.881 274.707C213.47 275.163 -22.0715 274.718 -22.0715 274.718L-22.0221 171.978Z" fill="url(#paint3_linear_382_495)"/>
<path d="M-22.0244 175.097C9.73217 186.013 32.5608 181.187 60.9605 196.037C74.5406 203.137 50.8922 203.863 42.7729 205.171C29.1928 207.354 48.822 214.959 74.8819 223.884C100.942 232.808 103.67 248.03 113.46 256.856C122.987 265.446 147.262 271.436 175.489 265.958C203.716 260.48 221.744 268.872 230.726 274.724C188.034 275.139 -22.0715 274.718 -22.0715 274.718L-22.0244 175.097Z" fill="url(#paint4_linear_382_495)"/>
<path d="M-22.072 204.057C-3.03269 220.765 42.2499 225.04 61.7085 233.728C89.4188 246.11 92.8767 255.183 66.4799 250.115C43.7184 245.758 43.2042 251.129 62.0745 258.678C102.999 275.045 127.774 275.163 127.774 275.163L-22.0716 274.718L-22.072 204.057Z" fill="url(#paint5_linear_382_495)"/>
</g>
<defs>
<linearGradient id="paint0_linear_382_495" x1="108.711" y1="-8.46545" x2="96.076" y2="428.368" gradientUnits="userSpaceOnUse">
<stop offset="0.133313" stop-color="#7014E8"/>
<stop offset="1" stop-color="#4931DE"/>
</linearGradient>
<linearGradient id="paint1_linear_382_495" x1="131.215" y1="-8.46533" x2="131.215" y2="271.986" gradientUnits="userSpaceOnUse">
<stop stop-color="#28C2D1"/>
<stop offset="1" stop-color="#F3FEFF" stop-opacity="0.5"/>
</linearGradient>
<radialGradient id="paint2_radial_382_495" cx="0" cy="0" r="1" gradientUnits="userSpaceOnUse" gradientTransform="translate(44.9112 136.47) rotate(15.5142) scale(105.554 112.025)">
<stop stop-color="white"/>
<stop offset="0.1307" stop-color="#F7FAFE"/>
<stop offset="1" stop-color="#98F1FD"/>
</radialGradient>
<linearGradient id="paint3_linear_382_495" x1="123.158" y1="188.24" x2="-8.82902" y2="169.235" gradientUnits="userSpaceOnUse">
<stop stop-color="#E3F7FF"/>
<stop offset="1" stop-color="#6CDFEF"/>
</linearGradient>
<linearGradient id="paint4_linear_382_495" x1="104.327" y1="208.429" x2="112.352" y2="264.623" gradientUnits="userSpaceOnUse">
<stop stop-color="#BDF7FF"/>
<stop offset="1" stop-color="#D4F2F0" stop-opacity="0"/>
</linearGradient>
<linearGradient id="paint5_linear_382_495" x1="102.724" y1="251.062" x2="21.2115" y2="189.186" gradientUnits="userSpaceOnUse">
<stop stop-color="#98F1FD"/>
<stop offset="1" stop-color="#98F1FD" stop-opacity="0.51"/>
</linearGradient>
</defs>
</svg>
