<svg width="270" height="270" viewBox="0 0 270 270" fill="none" xmlns="http://www.w3.org/2000/svg">
<mask id="mask0_398_530" style="mask-type:alpha" maskUnits="userSpaceOnUse" x="0" y="0" width="270" height="270">
<circle cx="135.067" cy="135.457" r="134.5" fill="#A6A6A6"/>
</mask>
<g mask="url(#mask0_398_530)">
<circle cx="135.067" cy="135.457" r="134.5" fill="#28C2D1"/>
<path d="M-44.03 58.7883C-34.66 57.0483 -68.85 107.208 -63.95 140.998C-8.76999 164.968 -1.83002 395.998 292.4 207.468C266.25 199.838 245.01 188.868 222.84 171.298C192.94 147.608 200.9 138.038 224.52 151.188C247.6 164.028 249.15 151.768 240.38 140.148C227.77 123.458 206.82 106.328 180.74 87.8684C143.49 61.4984 155.42 63.7883 169.8 65.8483C186.58 68.2483 180.55 49.6083 159.4 39.7883C97.4 10.9983 13.05 17.6183 -39.72 37.6283C-55.46 44.9983 -53.57 60.5483 -44.03 58.7883Z" fill="#ECFFFE"/>
<path d="M-43.8399 65.6883C-28.5299 253.778 18.5668 351.957 316.38 227.088C270.61 212.918 229.27 192.418 209.58 172.058C187.72 149.438 192.09 125.518 215.52 138.988C227.01 145.598 230.57 139.448 221.26 128.318C209.75 114.538 190.34 101.928 164.27 83.4783C127.02 57.1083 136.43 54.2083 158.49 58.4483C175.53 61.7283 171.25 51.5683 149.45 43.2783C85.4301 18.9483 8.55011 25.1883 -44.2099 45.2083C-59.9599 52.5883 -53.4599 65.7483 -43.8399 65.6883Z" fill="#98F1FD"/>
<path d="M-34.3002 60.3683C18.5298 59.2683 70.0898 61.4383 124.58 127.918C163.27 166.058 209.83 181.048 188.91 158.278C167.99 135.508 176.61 117.938 204.51 129.548C220.32 136.128 193.11 111.118 150.63 88.5283C104.61 64.0483 117.44 49.6683 134.42 50.7083C140.01 51.0483 140.79 48.7383 135.18 47.1883C65.8598 27.9583 -0.650154 40.3983 -33.2302 49.8083C-43.8802 52.8783 -45.6402 60.6083 -34.3002 60.3683Z" fill="url(#paint0_radial_398_530)"/>
<path d="M235.21 93.6284C235.97 92.3884 234.11 89.9083 231.06 88.0883C228.02 86.2683 224.94 85.7984 224.19 87.0284C223.43 88.2684 225.29 90.7484 228.34 92.5684C231.38 94.3884 234.47 94.8584 235.21 93.6284Z" fill="#ECFFFE"/>
<path d="M245.02 132.028C245.92 130.958 244.83 128.548 242.56 126.658C240.3 124.768 237.72 124.098 236.81 125.178C235.9 126.248 237 128.658 239.27 130.548C241.54 132.438 244.12 133.108 245.02 132.028Z" fill="#ECFFFE"/>
<path d="M154.14 27.5083C154.54 26.1883 152.77 24.4783 150.18 23.6983C147.59 22.9083 145.15 23.3383 144.75 24.6583C144.35 25.9783 146.12 27.6883 148.71 28.4783C151.31 29.2683 153.74 28.8383 154.14 27.5183V27.5083Z" fill="#ECFFFE"/>
<path d="M131.84 23.6183C134.06 24.0983 136.07 23.5383 136.32 22.3483C136.58 21.1683 134.99 19.8283 132.77 19.3483C130.55 18.8683 128.54 19.4283 128.29 20.6183C128.03 21.7983 129.61 23.1483 131.84 23.6183Z" fill="#ECFFFE"/>
<path d="M116.31 20.2484C117.79 20.5684 119.14 20.1084 119.34 19.2284C119.53 18.3484 118.5 17.3684 117.02 17.0584C115.54 16.7384 114.19 17.1984 113.99 18.0784C113.8 18.9584 114.84 19.9384 116.31 20.2484Z" fill="#ECFFFE"/>
<path d="M192.95 80.6583C208.76 89.9383 223.53 102.498 235.49 113.388C242.15 119.448 249.82 113.818 237.82 104.548C225.83 95.2683 206.6 82.8483 194.67 77.7583C189.15 75.3983 188.78 78.2183 192.95 80.6583Z" fill="#ECFFFE"/>
</g>
<path d="M70.9967 206.117L55.4167 165.727H55.1867C55.3367 168.197 55.4167 170.737 55.4167 173.327V206.117H52.6167V162.377H57.1267L71.9267 200.847H72.0967L86.8967 162.377H91.2967V206.117H88.3567V172.967C88.3567 170.657 88.4767 168.257 88.6967 165.787H88.4667L72.8367 206.117H70.9767H70.9967Z" fill="black"/>
<path d="M123.247 190.677H106.277L100.447 206.117H97.2168L114.017 162.197H115.877L132.337 206.117H129.047L123.247 190.677ZM107.337 187.927H122.277L116.597 172.157C116.117 170.917 115.547 169.207 114.877 167.007C114.367 168.917 113.797 170.657 113.187 172.217L107.327 187.927H107.337Z" fill="black"/>
<path d="M167.047 162.377V190.677C167.047 195.707 165.657 199.637 162.877 202.467C160.097 205.297 156.217 206.717 151.247 206.717C146.277 206.717 142.627 205.297 139.907 202.467C137.197 199.617 135.847 195.647 135.847 190.557V162.377H138.787V190.677C138.787 194.887 139.907 198.167 142.127 200.517C144.357 202.847 147.507 204.017 151.587 204.017C155.667 204.017 158.657 202.867 160.847 200.577C163.037 198.267 164.127 195.057 164.127 190.977V162.377H167.047Z" fill="black"/>
<path d="M178.447 206.117V162.377H181.357V206.117H178.447Z" fill="black"/>
<path d="M44.2867 148.677C43.7967 148.687 43.3167 148.597 42.8667 148.407C42.4167 148.217 41.9967 147.937 41.6467 147.587C41.3067 147.247 41.0267 146.827 40.8467 146.367C40.6667 145.907 40.5667 145.417 40.5667 144.917C40.5667 144.417 40.6667 143.927 40.8467 143.467C41.0267 143.007 41.3067 142.597 41.6467 142.247C42.3667 141.527 43.3167 141.127 44.2967 141.127C45.2767 141.127 46.2366 141.527 46.9467 142.247C47.2966 142.587 47.5767 142.997 47.7667 143.457C47.9567 143.917 48.0567 144.417 48.0567 144.917C48.0567 145.417 47.9567 145.917 47.7667 146.377C47.5767 146.837 47.2966 147.247 46.9467 147.587C46.5967 147.947 46.1767 148.227 45.7167 148.407C45.2566 148.597 44.7667 148.687 44.2767 148.677H44.2867Z" fill="black"/>
<path d="M90.1167 148.677H82.0866L60.9366 116.547C60.4066 115.747 59.9666 114.897 59.6066 114.017H59.4167C59.6367 116.017 59.7167 118.017 59.6667 120.027V148.687H52.5667V104.957H61.1166L81.5567 136.327C82.4167 137.627 82.9766 138.527 83.2266 139.017H83.3467C83.0967 137.067 82.9867 135.097 83.0366 133.137V104.957H90.1067V148.677H90.1167Z" fill="black"/>
<path d="M120.007 148.677H95.9766V104.957H119.047V111.117H103.077V123.497H117.787V129.627H103.077V142.557H119.997V148.687L120.007 148.677Z" fill="black"/>
<path d="M157.687 111.117H144.857V148.677H137.447V111.117H124.647V104.957H157.687V111.117Z" fill="black"/>
<defs>
<radialGradient id="paint0_radial_398_530" cx="0" cy="0" r="1" gradientUnits="userSpaceOnUse" gradientTransform="translate(137.242 29.8299) rotate(15.51) scale(135.104 143.398)">
<stop stop-color="white"/>
<stop offset="0.13" stop-color="#F7FAFE"/>
<stop offset="1" stop-color="#98F1FD"/>
</radialGradient>
</defs>
</svg>
