<svg width="266" height="266" viewBox="0 0 266 266" fill="none" xmlns="http://www.w3.org/2000/svg">
<mask id="mask0_398_597" style="mask-type:alpha" maskUnits="userSpaceOnUse" x="0" y="0" width="266" height="266">
<circle cx="133.213" cy="132.684" r="132.5" fill="#D9D9D9"/>
</mask>
<g mask="url(#mask0_398_597)">
<path d="M276.474 -10.0428H-10.8469V275.855H276.474V-10.0428Z" fill="#28C2D1"/>
<path d="M266.647 -0.305405H-0.131104V266.473H266.647V-0.305405Z" stroke="black" stroke-miterlimit="10"/>
<path d="M233.922 114.956C228.453 95.7482 161.447 126.339 141.617 127.628C121.786 128.873 21.3442 138.477 24.3232 149.726C26.5019 157.952 70.6982 291.208 70.6982 291.208H276.384L277.096 251.947C277.096 251.947 236.857 125.227 233.922 114.956Z" fill="url(#paint0_linear_398_597)"/>
<path d="M197.062 165.066C193.728 165.066 190.882 164.71 188.481 163.999C186.969 164.488 185.368 164.71 183.679 164.71H178.921C176.387 164.71 173.986 164.043 171.896 162.843C169.806 164.043 167.361 164.71 164.871 164.71H127.655C125.343 164.71 123.12 164.132 121.03 163.065C118.896 164.177 116.584 164.71 114.139 164.71H67.897C65.7628 164.71 63.6285 164.266 61.6277 163.421C59.7602 164.266 57.7594 164.71 55.6252 164.71H43.131C32.1931 164.71 23.345 155.818 23.345 144.88C23.345 138.477 26.3685 132.608 31.3928 128.918V116.824C31.3928 107.931 38.5958 100.728 47.4884 100.728H53.7133C56.0698 100.728 58.4263 101.262 60.694 102.329C62.9171 101.306 65.3626 100.773 67.9414 100.773H135.837C138.638 100.773 141.306 101.573 143.707 103.04C146.463 101.573 149.665 100.817 153.311 100.817H156.912C159.624 100.817 162.203 101.351 164.471 102.329C166.694 101.351 169.184 100.817 171.718 100.817H217.738C226.63 100.817 233.833 108.02 233.833 116.913V148.659C233.833 157.552 226.63 164.755 217.738 164.755H212.224C210.223 164.755 208.356 164.444 206.622 163.866C203.687 164.622 200.486 165.066 197.062 165.066Z" fill="#512BD4"/>
<path d="M55.6252 154.795C58.382 154.795 59.6269 152.661 60.116 150.927C60.3383 150.26 61.2276 150.127 61.5833 150.705C62.7393 152.483 64.8291 154.795 67.8526 154.795H114.094C117.429 154.795 119.252 151.816 120.097 149.771C120.363 149.148 121.253 149.104 121.564 149.726C122.631 151.772 124.676 154.84 127.567 154.84H164.782C166.516 154.84 168.072 153.728 168.695 152.127L170.473 147.281C170.874 146.125 172.474 146.125 172.963 147.236L175.053 152.305C175.676 153.861 177.187 154.884 178.877 154.884H183.634C185.991 154.884 186.791 153.817 187.325 153.195C187.592 152.883 188.081 152.794 188.436 153.061C189.504 153.861 191.149 155.195 197.018 155.195C202.309 155.195 205.377 153.861 206.666 152.972C207.022 152.705 207.511 152.794 207.778 153.15C208.311 153.861 209.512 154.84 212.046 154.84H217.56C220.983 154.84 223.74 152.083 223.74 148.659V116.913C223.74 113.489 220.983 110.732 217.56 110.732H171.541C167.895 110.732 165.805 112.955 164.738 114.512C164.382 115.045 163.582 115.001 163.27 114.423C162.381 112.644 160.825 110.732 156.734 110.732H153.222C146.997 110.732 145.085 114.289 143.929 117.402C143.662 118.113 142.64 118.113 142.373 117.402C141.395 114.601 139.349 110.732 135.703 110.732H67.8971C64.3845 110.732 62.6504 112.866 61.8945 114.245C61.6278 114.734 60.9608 114.823 60.5606 114.423C59.2712 113.044 56.559 110.688 53.6689 110.688H47.444C44.0204 110.688 41.2637 113.444 41.2637 116.868V133.942C41.2637 134.653 40.819 135.276 40.1076 135.498C36.1059 136.743 33.1714 140.523 33.1714 144.924C33.1714 150.393 37.6177 154.84 43.0867 154.84C43.1311 154.795 50.9566 154.795 55.6252 154.795Z" fill="white"/>
<path d="M142.595 147.281L132.191 120.381H132.057C132.146 122.026 132.191 123.715 132.191 125.45V147.281H130.323V118.158H133.347L143.218 143.768H143.351L153.222 118.158H156.156V147.281H154.2V125.183C154.2 123.627 154.289 122.026 154.422 120.381H154.289L143.884 147.236H142.595V147.281Z" fill="#512BD4"/>
<path d="M177.41 137.054H166.072L162.203 147.281H160.069L171.274 118.247H172.519L183.501 147.281H181.322L177.41 137.054ZM166.827 135.231H176.787L173.008 124.783C172.697 123.982 172.296 122.826 171.852 121.359C171.496 122.604 171.14 123.76 170.74 124.783L166.827 135.231Z" fill="#512BD4"/>
<path d="M206.622 118.113V136.965C206.622 140.3 205.688 142.924 203.821 144.835C201.953 146.703 199.374 147.681 196.084 147.681C192.794 147.681 190.348 146.747 188.525 144.835C186.702 142.924 185.813 140.3 185.813 136.921V118.158H187.77V137.01C187.77 139.811 188.525 141.99 189.993 143.59C191.46 145.147 193.594 145.903 196.307 145.903C199.019 145.903 201.02 145.147 202.487 143.59C203.954 142.034 204.666 139.9 204.666 137.188V118.113H206.622Z" fill="#512BD4"/>
<path d="M214.225 147.281V118.158H216.181V147.281H214.225Z" fill="#512BD4"/>
<path d="M43.2199 147.281C42.9086 147.281 42.5529 147.236 42.2862 147.103C41.9749 146.97 41.7081 146.792 41.4858 146.57C41.2635 146.347 41.0857 146.08 40.9523 145.769C40.8189 145.458 40.7744 145.147 40.7744 144.791C40.7744 144.48 40.8189 144.124 40.9523 143.813C41.0857 143.502 41.2635 143.235 41.4858 143.012C41.9749 142.523 42.5974 142.257 43.2643 142.257C43.9313 142.257 44.5538 142.523 45.0429 143.012C45.2652 143.235 45.443 143.502 45.5764 143.813C45.7098 144.124 45.7543 144.435 45.7543 144.791C45.7543 145.147 45.6654 145.458 45.5764 145.769C45.443 146.08 45.2652 146.347 45.0429 146.57C44.8206 146.792 44.5093 147.014 44.2425 147.103C43.8868 147.236 43.5756 147.281 43.2199 147.281Z" fill="#512BD4"/>
<path d="M73.8105 147.281H68.475L54.3802 125.85C54.0245 125.316 53.7132 124.738 53.4909 124.16H53.3575C53.4909 125.494 53.5354 126.828 53.5354 128.162V147.281H48.7778V118.113H54.4691L68.1193 139.055C68.6973 139.944 69.053 140.523 69.2309 140.834H69.3198C69.1419 139.544 69.0975 138.21 69.0975 136.921V118.113H73.8105V147.281Z" fill="#512BD4"/>
<path d="M93.7303 147.281H77.7236V118.113H93.1079V122.204H82.4812V130.474H92.3075V134.564H82.4812V143.19H93.7748V147.281H93.7303Z" fill="#512BD4"/>
<path d="M118.852 122.248H110.315V147.325H105.379V122.248H96.8425V118.158H118.896V122.248H118.852Z" fill="#512BD4"/>
</g>
<defs>
<linearGradient id="paint0_linear_398_597" x1="109.35" y1="-40.46" x2="181.456" y2="380.259" gradientUnits="userSpaceOnUse">
<stop offset="0.21" stop-color="#512BD4"/>
<stop offset="0.77" stop-color="#512BD4" stop-opacity="0"/>
</linearGradient>
</defs>
</svg>
