<svg width="212" height="248" viewBox="0 0 212 248" fill="none" xmlns="http://www.w3.org/2000/svg">
<mask id="mask0_442_437" style="mask-type:alpha" maskUnits="userSpaceOnUse" x="0" y="0" width="212" height="248">
<path d="M74.773 227.49C81.8284 238.514 99.0512 247.714 118.944 247.714L118.956 247.72C129.306 247.72 140.387 245.227 151.132 239.2C169.893 228.674 175.764 217.887 179.648 210.747C181.694 206.981 182.548 205.572 184.063 204.542C190.653 200.078 196.547 191.274 202.618 176.846C206.554 167.495 209.089 159.147 209.218 158.724L209.219 158.718C210.351 154.959 209.62 150.962 207.445 147.931C209.149 145.225 210.398 142.165 211.153 138.796C214.353 124.486 207.775 107.66 202.488 97.7496C203.561 94.9137 204.08 92.1015 204.027 89.3367C203.767 75.9032 198.486 59.6339 197.885 57.8223C196.405 53.376 192.509 50.179 187.877 49.6165C184.705 41.5885 177.986 33.4775 168.072 25.8993C165.779 24.1469 163.551 17.1549 163.091 12.1284C162.697 7.32106 159.726 2.98139 155.187 1.41839C150.69 -0.126836 145.934 0.891476 142.692 4.35492C141.536 5.30219 133.055 11.7258 113.905 12.0396C96.0039 12.3357 86.6911 20.1506 82.0288 26.6512C81.9109 26.8111 81.793 26.9769 81.681 27.1426C79.3764 27.1841 77.0777 27.8886 75.0795 29.2621L75.0709 29.2681C74.1744 29.8888 55.7955 42.6138 44.3708 56.6322C42.6497 58.7399 40.9404 61.3863 39.685 64.5893C37.7812 65.1281 35.9952 66.1404 34.5099 67.5969C26.4938 75.477 21.9022 82.2736 16.3027 94.517C14.9117 97.5601 13.7682 101.592 13.8272 106.583C13.2672 107.056 12.7486 107.595 12.277 108.181C11.4165 109.247 6.98404 115.096 3.91317 125.653C-0.0241426 139.181 0.0171167 154.805 4.02516 170.843C8.7464 189.723 19.2027 198.645 27.1363 202.802C32.5 205.614 38.07 207.07 43.4985 207.627C42.8148 208.479 42.2254 209.207 41.7538 209.776C39.4787 212.535 38.5297 216.158 39.1663 219.681C39.8029 223.203 41.9542 226.264 45.0428 228.046L52.9233 232.587C58.2988 235.689 65.142 234.198 68.7551 229.141C68.9024 228.928 70.3524 226.892 72.5215 223.618C73.2288 224.956 73.9773 226.252 74.773 227.49Z" fill="#F3F3F3"/>
</mask>
<g mask="url(#mask0_442_437)">
<rect x="-11.0106" y="-6.28638" width="246" height="261" fill="#DFD8F7"/>
<path d="M191.867 90.1094C191.637 78.1383 186.344 62.2005 186.344 62.2005C186.344 62.2005 172.298 85.4026 155.476 89.6417C138.654 93.8807 145.745 81.9274 165.926 74.1006C186.108 66.2738 178.033 49.371 160.675 36.0915C152.293 29.6797 150.973 13.6649 150.973 13.6649C150.973 13.6649 140.192 24.2802 114.022 24.7124C83.7556 25.2097 85.0169 51.6503 89.6615 66.4277C94.3121 81.2051 94.5714 90.8258 86.3844 86.3677C67.9474 76.3326 81.8223 39.8154 81.8223 39.8154C81.8223 39.8154 64.1397 51.976 53.6363 64.8588C43.1329 77.7416 56.1472 93.9221 63.6977 105.905C71.254 117.888 75.1795 125.721 67.6939 123.199C49.0329 116.911 40.7516 87.4156 42.8794 76.8062C36.3015 83.2713 32.4349 88.6707 27.2009 100.121C21.513 112.566 34.6393 130.185 44.3117 138.917C53.9841 147.65 63.2379 154.826 50.365 153.979C26.4995 152.41 21.5896 116.349 21.5896 116.349C21.5896 116.349 7.13118 134.317 15.6601 168.425C23.5583 200.028 50.5006 199.483 69.7097 192.154C63.9924 202.272 50.9721 218.056 50.9721 218.056L58.8526 222.597C58.8526 222.597 67.8472 210.016 75.2385 195.73C76.7533 202.367 79.8595 213.657 84.8578 221.46C92.3257 233.129 119.716 243.395 145.149 229.127C170.583 214.859 166.522 202.26 177.214 195.007C187.906 187.755 197.566 155.72 197.566 155.72C197.566 155.72 177.774 179.816 143.741 168.348C129.117 163.422 131.363 160.687 140.517 158.863C149.676 157.04 173.365 157.282 191.861 146.91C208.695 137.467 194.537 107.107 188.507 98.6052C190.647 95.6272 191.902 92.7144 191.855 90.0976L191.867 90.1094ZM47.7893 181.42C38.3114 180.988 38.5943 173.226 48.7323 173.812C58.8703 174.398 56.2121 181.805 47.7893 181.42ZM106.89 208.127C105.299 214.574 91.0761 200.063 94.3297 191.153C97.5833 182.249 108.476 201.68 106.89 208.127ZM161.889 183.818C171.885 185.108 168.319 194.102 155.559 194.895C142.798 195.688 131.204 188.483 124.944 178.821C118.679 169.159 121.083 164.499 127.52 171.101C133.956 177.708 152.305 182.575 161.889 183.812V183.818ZM108.888 45.1616C111.346 55.5223 103.884 56.215 102.263 48.9684C99.9233 38.507 106.43 34.8008 108.888 45.1616ZM136.538 65.0483C145.426 56.4992 153.13 48.8381 154.209 44.2025C155.287 39.5668 165.443 45.1556 154.857 57.7306C144.271 70.2997 130.72 70.6431 136.532 65.0542L136.538 65.0483ZM177.32 143.529C169.964 145.862 167.282 148.266 160.073 146.211C152.865 144.163 172.068 133.926 183.344 128.853C194.619 123.779 190.576 139.32 177.314 143.523L177.32 143.529Z" fill="url(#paint0_linear_442_437)"/>
</g>
<path d="M94.9573 150.069L87.6951 131.233H87.5885C87.6596 132.386 87.6951 133.568 87.6951 134.777V150.069H86.3893V129.67H88.4946L95.397 147.613H95.4769L102.379 129.67H104.431V150.069H103.059V134.609C103.059 133.53 103.112 132.414 103.219 131.261H103.112L95.8234 150.069H94.9573Z" fill="white"/>
<path d="M119.329 142.869H111.414L108.695 150.069H107.19L115.025 129.586H115.891L123.566 150.069H122.034L119.329 142.869ZM111.907 141.586H118.876L116.224 134.233C116.002 133.656 115.735 132.856 115.424 131.833C115.185 132.726 114.923 133.535 114.638 134.261L111.907 141.586Z" fill="white"/>
<path d="M140.662 129.67V142.869C140.662 145.214 140.014 147.046 138.717 148.367C137.42 149.688 135.612 150.348 133.293 150.348C131.037 150.348 129.274 149.688 128.003 148.367C126.742 147.037 126.111 145.186 126.111 142.814V129.67H127.484V142.869C127.484 144.832 128.003 146.362 129.043 147.46C130.082 148.548 131.552 149.092 133.453 149.092C135.31 149.092 136.749 148.558 137.771 147.488C138.792 146.409 139.303 144.916 139.303 143.009V129.67H140.662Z" fill="white"/>
<path d="M145.979 150.069V129.67H147.338V150.069H145.979Z" fill="white"/>
<path d="M82.5795 121.175C82.3558 121.18 82.1332 121.138 81.9248 121.052C81.7164 120.966 81.5262 120.838 81.3651 120.674C81.2071 120.516 81.0812 120.326 80.9952 120.115C80.9092 119.905 80.8649 119.678 80.8649 119.448C80.8649 119.219 80.9092 118.992 80.9952 118.781C81.0812 118.57 81.2071 118.38 81.3651 118.222C81.6942 117.893 82.1311 117.709 82.5854 117.709C83.0398 117.709 83.4768 117.893 83.8058 118.222C83.9671 118.378 84.096 118.568 84.1841 118.779C84.2722 118.99 84.3176 119.218 84.3176 119.448C84.3176 119.679 84.2722 119.907 84.1841 120.118C84.096 120.329 83.9671 120.518 83.8058 120.674C83.6429 120.839 83.4506 120.968 83.2402 121.053C83.0297 121.139 82.8052 121.181 82.5795 121.175Z" fill="white"/>
<path d="M103.653 121.175H99.9621L90.237 106.397C89.9945 106.03 89.7901 105.64 89.6267 105.234H89.5414C89.6416 106.151 89.6795 107.073 89.655 107.995V121.175H86.3894V101.069H90.3223L99.7208 115.497C100.118 116.095 100.373 116.506 100.488 116.731H100.544C100.428 115.833 100.38 114.929 100.402 114.025V101.069H103.653V121.175Z" fill="white"/>
<path d="M117.4 121.175H106.351V101.069H116.961V103.901H109.618V109.593H116.385V112.413H109.618V118.359H117.4V121.175Z" fill="white"/>
<path d="M134.728 103.901H128.828V121.175H125.42V103.901H119.535V101.069H134.728V103.901Z" fill="white"/>
<defs>
<linearGradient id="paint0_linear_442_437" x1="137.075" y1="33.6485" x2="94.5797" y2="222.366" gradientUnits="userSpaceOnUse">
<stop offset="0.133313" stop-color="#9249F1"/>
<stop offset="1" stop-color="#4931DE"/>
</linearGradient>
</defs>
</svg>
