<svg width="212" height="248" viewBox="0 0 212 248" fill="none" xmlns="http://www.w3.org/2000/svg">
<g clip-path="url(#clip0_362_436)">
<path d="M74.0923 226.987C81.1523 238.007 98.3723 247.207 118.262 247.207H118.272C128.622 247.207 139.702 244.717 150.452 238.697C169.212 228.167 175.082 217.387 178.972 210.247C181.012 206.487 181.872 205.077 183.392 204.047C189.982 199.587 195.872 190.777 201.942 176.347C205.882 166.997 208.412 158.647 208.542 158.227C209.672 154.467 208.942 150.467 206.772 147.437C208.472 144.727 209.722 141.667 210.482 138.297C213.682 123.987 207.102 107.167 201.822 97.2473C202.892 94.4073 203.412 91.5973 203.362 88.8373C203.102 75.4073 197.822 59.1373 197.222 57.3273C195.742 52.8773 191.842 49.6873 187.212 49.1173C184.042 41.0873 177.322 32.9773 167.412 25.3973C165.122 23.6473 162.892 16.6573 162.432 11.6273C162.032 6.81729 159.062 2.47729 154.532 0.917289C150.032 -0.632711 145.282 0.38729 142.032 3.85729C140.882 4.80729 132.392 11.2273 113.242 11.5373C95.3423 11.8373 86.0323 19.6473 81.3623 26.1473C81.2423 26.3073 81.1223 26.4773 81.0123 26.6373C78.7123 26.6773 76.4123 27.3873 74.4123 28.7573C73.5123 29.3873 55.1323 42.1073 43.7123 56.1273C41.9923 58.2373 40.2823 60.8773 39.0223 64.0873C37.1223 64.6273 35.3323 65.6373 33.8423 67.0973C25.8223 74.9773 21.2323 81.7773 15.6323 94.0173C14.2423 97.0573 13.1023 101.087 13.1523 106.087C12.5923 106.557 12.0723 107.097 11.6023 107.687C10.7423 108.757 6.31231 114.607 3.24231 125.157C-0.697689 138.687 -0.657689 154.307 3.35231 170.347C8.07231 189.227 18.5323 198.147 26.4623 202.307C31.8223 205.117 37.3923 206.577 42.8223 207.127C42.1423 207.977 41.5523 208.707 41.0823 209.277C38.8023 212.037 37.8623 215.657 38.4923 219.177C39.1323 222.697 41.2823 225.757 44.3723 227.547L52.2523 232.087C57.6323 235.187 64.4723 233.697 68.0823 228.637C68.2323 228.427 69.6823 226.387 71.8523 223.117C72.5623 224.457 73.3123 225.747 74.1023 226.987H74.0923Z" fill="#7BEDF9"/>
<path d="M189.562 90.2773C189.342 78.4873 184.122 62.7973 184.122 62.7973C184.122 62.7973 170.292 85.6473 153.722 89.8173C137.152 93.9873 144.132 82.2173 164.012 74.5073C183.892 66.7973 175.932 50.1673 158.842 37.0873C150.582 30.7673 149.292 15.0073 149.292 15.0073C149.292 15.0073 138.672 25.4573 112.902 25.8873C83.1023 26.3773 84.3423 52.4173 88.9123 66.9573C93.4923 81.5073 93.7423 90.9873 85.6923 86.5973C67.5323 76.7173 81.1923 40.7573 81.1923 40.7573C81.1923 40.7573 63.7823 52.7373 53.4323 65.4173C43.0823 78.0973 53.4323 88.7173 60.8723 100.517C68.3123 112.307 66.9723 118.487 59.6023 115.997C44.9723 110.057 40.7523 87.6273 42.8423 77.1773C36.3623 83.5373 32.5523 88.8673 27.4023 100.127C21.7923 112.377 34.7223 129.727 44.2523 138.327C53.7823 146.917 62.8923 153.997 50.2123 153.157C26.7023 151.617 21.8723 116.107 21.8723 116.107C21.8723 116.107 7.64229 133.797 16.0323 167.387C23.8123 198.497 50.3423 197.967 69.2623 190.747C63.6323 200.707 50.8123 216.247 50.8123 216.247L58.5823 220.717C58.5823 220.717 67.4423 208.327 74.7223 194.257C76.2123 200.797 79.2723 211.907 84.1923 219.597C91.5523 231.087 118.522 241.197 143.562 227.147C168.612 213.097 164.602 200.687 175.142 193.557C185.672 186.407 195.182 154.877 195.182 154.877C195.182 154.877 185.372 174.317 151.442 168.587C137.042 163.737 140.092 160.207 149.102 158.407C158.112 156.607 171.352 156.407 189.552 146.207C206.132 136.917 192.192 107.017 186.252 98.6373C188.352 95.7073 189.592 92.8373 189.542 90.2673H189.572L189.562 90.2773ZM47.6823 180.177C38.3523 179.757 38.6323 172.107 48.6123 172.687C58.5923 173.257 55.9823 180.557 47.6823 180.177ZM105.882 206.467C104.312 212.817 90.3023 198.527 93.5123 189.757C96.7123 180.987 107.442 200.127 105.882 206.467ZM160.042 182.537C169.892 183.807 165.052 192.377 155.672 192.757C146.292 193.127 137.642 187.457 134.462 183.637C128.292 174.127 132.562 173.457 136.362 175.577C140.162 177.697 150.582 181.307 160.032 182.537H160.042ZM107.842 46.0173C110.262 56.2173 102.912 56.8973 101.312 49.7673C99.0123 39.4673 105.412 35.8173 107.842 46.0173ZM135.072 65.5973C143.832 57.1773 151.412 49.6373 152.472 45.0673C153.532 40.5073 163.532 45.9973 153.112 58.3873C142.682 70.7673 129.332 71.0973 135.072 65.6073V65.5973ZM164.162 142.477C157.062 140.457 170.072 133.397 181.172 128.397C192.272 123.397 185.152 136.327 178.802 139.937C174.532 142.357 170.312 143.337 164.172 142.477H164.162Z" fill="#28C2D1"/>
<path d="M87.8223 147.827L80.6623 129.257H80.5523C80.6223 130.397 80.6623 131.557 80.6623 132.747V147.827H79.3723V127.717H81.4523L88.2623 145.407H88.3423L95.1523 127.717H97.1723V147.827H95.8223V132.587C95.8223 131.527 95.8723 130.427 95.9823 129.287H95.8823L88.6923 147.837H87.8423L87.8223 147.827Z" fill="black"/>
<path d="M111.852 140.727H104.052L101.372 147.827H99.8923L107.622 127.627H108.472L116.042 147.827H114.532L111.862 140.727H111.852ZM104.532 139.457H111.402L108.792 132.207C108.572 131.637 108.312 130.847 108.002 129.837C107.762 130.717 107.512 131.517 107.222 132.227L104.532 139.447V139.457Z" fill="black"/>
<path d="M131.992 127.717V140.727C131.992 143.037 131.352 144.847 130.072 146.147C128.792 147.447 127.012 148.097 124.722 148.097C122.432 148.097 120.762 147.447 119.502 146.147C118.262 144.837 117.632 143.007 117.632 140.667V127.707H118.982V140.717C118.982 142.657 119.492 144.157 120.522 145.247C121.552 146.317 122.992 146.857 124.872 146.857C126.752 146.857 128.122 146.327 129.132 145.277C130.142 144.217 130.642 142.737 130.642 140.857V127.707H131.982L131.992 127.717Z" fill="black"/>
<path d="M137.242 147.827V127.717H138.582V147.827H137.242Z" fill="black"/>
<path d="M75.5423 121.417C75.3223 121.417 75.0923 121.377 74.8923 121.297C74.6823 121.207 74.4923 121.087 74.3323 120.917C74.1723 120.757 74.0523 120.567 73.9623 120.357C73.8723 120.147 73.8323 119.917 73.8323 119.687C73.8323 119.457 73.8723 119.227 73.9623 119.017C74.0523 118.807 74.1723 118.617 74.3323 118.457C74.6623 118.127 75.1023 117.947 75.5523 117.947C76.0023 117.947 76.4423 118.127 76.7723 118.457C76.9323 118.617 77.0623 118.807 77.1523 119.017C77.2423 119.227 77.2823 119.457 77.2823 119.687C77.2823 119.917 77.2323 120.147 77.1523 120.357C77.0623 120.567 76.9323 120.757 76.7723 120.917C76.6123 121.087 76.4123 121.207 76.2023 121.297C75.9923 121.387 75.7623 121.427 75.5423 121.417Z" fill="black"/>
<path d="M96.6223 121.417H92.9323L83.2023 106.637C82.9623 106.267 82.7523 105.877 82.5923 105.477H82.5023C82.6023 106.397 82.6423 107.317 82.6123 108.237V121.417H79.3423V101.307H83.2723L92.6723 115.737C93.0723 116.337 93.3223 116.747 93.4423 116.977H93.5023C93.3823 116.077 93.3423 115.177 93.3623 114.267V101.307H96.6123V121.417H96.6223Z" fill="black"/>
<path d="M110.362 121.417H99.3123V101.307H109.922V104.137H102.582V109.827H109.352V112.647H102.582V118.587H110.362V121.407V121.417Z" fill="black"/>
<path d="M127.692 104.147H121.792V121.417H118.382V104.147H112.492V101.317H127.682V104.147H127.692Z" fill="black"/>
</g>
<defs>
<clipPath id="clip0_362_436">
<rect width="211.01" height="247" fill="white" transform="translate(0.312256 0.217285)"/>
</clipPath>
</defs>
</svg>
