<?xml version="1.0" encoding="utf-8"?>
<!-- Generator: Adobe Illustrator 19.1.1, SVG Export Plug-In . SVG Version: 6.00 Build 0)  -->
<svg version="1.1" xmlns="http://www.w3.org/2000/svg" xmlns:xlink="http://www.w3.org/1999/xlink" x="0px" y="0px"
	 viewBox="0 0 200 200" style="enable-background:new 0 0 200 200;" xml:space="preserve">
<style type="text/css">
	.st0{fill:#FFFFFF;stroke:#CCCCCC;stroke-miterlimit:10;}
	.st1{fill:#870812;}
	.st2{fill:#C1272D;}
</style>
<g id="Layer_2">
	<path class="st0" d="M102.8,190.3c-11.7,0-21.2-9.5-21.2-21.2c0-6.8,3.3-13.1,8.6-17l6.6-16.9l-3-7.6l-8.2-20.2l-1.4,3.6
		c0.7,2.2,1.1,4.4,1.1,6.7c0,11.7-9.5,21.2-21.2,21.2c-11.7,0-21.2-9.5-21.2-21.2c0-7.5,3.9-14.2,10-18l14.8-37l-5.2-13.1
		C56.5,45.6,53,39.1,53,31.9c0-11.7,9.5-21.2,21.2-21.2c11.7,0,21.2,9.5,21.2,21.2c0,2.3-0.4,4.7-1.1,6.9l20.2,50.7l2.6-6.8
		c-0.9-2.4-1.3-4.9-1.3-7.4c0-11.7,9.5-21.2,21.2-21.2c11.7,0,21.2,9.5,21.2,21.2c0,7.1-3.5,13.5-9,17.4l-26.6,68.7
		c0.9,2.4,1.4,5,1.4,7.6C124,180.8,114.5,190.3,102.8,190.3z"/>
	<path class="st1" d="M146.9,75.3c0-5.4-4.4-9.8-9.8-9.8c-5.4,0-9.8,4.4-9.8,9.8c0,2.5,1,4.8,2.5,6.6l-15.2,38.8L81.8,38.2
		c1.4-1.7,2.3-3.9,2.3-6.3c0-5.4-4.4-9.8-9.8-9.8c-5.4,0-9.8,4.4-9.8,9.8c0,4.4,2.9,8.1,6.9,9.4l8.4,21.3l-18.2,45.5
		c-4.3,1.1-7.5,4.9-7.5,9.5c0,5.4,4.4,9.8,9.8,9.8c5.4,0,9.8-4.4,9.8-9.8c0-2.3-0.8-4.5-2.2-6.1l13.7-34.9l19,46.6l4.6,11.9
		l-9.7,24.8c-3.7,1.4-6.3,5-6.3,9.2c0,5.4,4.4,9.8,9.8,9.8c5.4,0,9.8-4.4,9.8-9.8c0-2.6-1-4.9-2.6-6.6l30.1-77.7
		C144,83.4,146.9,79.7,146.9,75.3z"/>
</g>
<g id="Layer_8">
	<g>
		<g>
			<polygon class="st2" points="132.4,75 114.6,120.5 78.3,29 66.5,29 79.7,62.5 56,122 67.5,122 85.3,76.7 104.4,123.3 
				104.4,123.3 109,135.2 95.8,169 107.5,169 143.9,75 			"/>
		</g>
	</g>
	<circle class="st1" cx="74.2" cy="31.9" r="9.8"/>
	<circle class="st1" cx="63.9" cy="117.6" r="9.8"/>
	<circle class="st1" cx="102.8" cy="169" r="9.8"/>
	<circle class="st1" cx="137" cy="75.3" r="9.8"/>
</g>
</svg>
