<?xml version="1.0" encoding="utf-8"?>
<!-- Generator: Adobe Illustrator 18.1.1, SVG Export Plug-In . SVG Version: 6.00 Build 0)  -->
<svg version="1.1" id="Layer_8" xmlns="http://www.w3.org/2000/svg" xmlns:xlink="http://www.w3.org/1999/xlink" x="0px" y="0px"
	 viewBox="0 0 500 356" style="enable-background:new 0 0 500 356;" xml:space="preserve">
<style type="text/css">
	.st0{fill:#FFFFFF;stroke:#B3B3B3;stroke-miterlimit:10;}
	.st1{fill:#C1272D;}
	.st2{fill:#870812;}
	.st3{fill:none;}
</style>
<g>
	<path class="st0" d="M125.8,148.6c-1.8,1.2-4.3,3.7-6.3,7.4v-7.5h-9v53h10v-28.3c0-3.8,0.7-7.3,1.8-10.5c0.7-2.1,2-3.7,3.6-4.9
		c1.6-1.2,3.6-1.8,5.6-1.8c2.3,0,4.7,0.6,7,1.9l3.3-8.3c-3.3-1.9-6.7-2.9-9.8-2.9C129.7,146.8,127.6,147.4,125.8,148.6z"/>
	<path class="st0" d="M170.1,146.8c-6.9,0-12.8,2-17.6,5.9c-5.8,4.7-8.6,12-8.6,21.8c0,8.9,2.4,15.8,7.2,20.6
		c4.8,4.8,11.1,7.1,19,7.1c4.9,0,9.4-1.1,13.5-3.2c4.1-2.2,7.3-5.2,9.4-9.1c2.2-3.9,3.2-9.3,3.2-16.1c0-8.4-2.4-15-7.3-19.8
		C184.1,149.2,177.8,146.8,170.1,146.8z M181.8,189.7c-3.1,3.4-7,5.1-11.7,5.1c-4.7,0-8.7-1.7-11.8-5.1c-3.1-3.4-4.7-8.5-4.7-15.2
		s1.6-11.9,4.7-15.2c3.1-3.4,7-5,11.8-5c4.7,0,8.6,1.7,11.7,5.1c3.1,3.4,4.7,8.3,4.7,14.9C186.5,181.1,185,186.3,181.8,189.7z"/>
	<path class="st0" d="M241.5,173c-2.6-1.1-7.3-2.5-14-4.2c-4.6-1.2-7.4-2-8.4-2.3c-1.6-0.6-2.9-1.4-3.6-2.4c-0.8-0.9-1.2-2-1.2-3.1
		c0-1.8,0.9-3.4,2.8-4.8c1.9-1.4,5-2,9.3-2c3.7,0,6.5,0.8,8.5,2.3c2,1.5,3.2,3.7,3.7,6.4l9.3-1.2c-0.6-3.4-1.7-6.2-3.3-8.2
		c-1.6-2-4-3.7-7.3-4.9c-3.3-1.2-7.2-1.8-11.5-1.8c-2.9,0-5.6,0.4-8.2,1.1c-2.5,0.7-4.5,1.6-6,2.6c-2,1.3-3.5,3-4.7,5
		c-1.1,2-1.7,4.2-1.7,6.6c0,2.6,0.7,5,2.1,7.1c1.4,2.1,3.4,3.8,6.1,5c2.7,1.2,7.5,2.7,14.4,4.3c5.2,1.2,8.4,2.2,9.7,3
		c1.9,1.2,2.8,2.8,2.8,4.8c0,2.3-1.1,4.2-3.2,5.9c-2.1,1.7-5.3,2.5-9.7,2.5c-4.3,0-7.7-0.9-10.1-2.8s-3.9-4.6-4.4-8.2l-9.4,1.4
		c1.1,5.6,3.5,9.9,7.3,12.7c3.8,2.9,9.3,4.3,16.6,4.3c4.4,0,8.3-0.7,11.8-2.2c3.5-1.4,6.1-3.5,8-6.1s2.8-5.5,2.8-8.5
		c0-3.1-0.8-5.6-2.3-7.7C246.2,175.7,244.1,174.1,241.5,173z"/>
	<path class="st0" d="M387,159.9c-0.6-2.6-1.5-4.8-2.9-6.6c-1.4-1.9-3.5-3.4-6.3-4.5c-2.8-1.1-6-1.7-9.4-1.7
		c-7.8,0-13.9,2.9-17.9,8.7v-7.2h-9v53h10v-29.3c0-6.8,1.6-11.4,4.5-13.8c2.9-2.4,6.5-3.6,10.5-3.6c2.5,0,4.8,0.5,6.6,1.6
		c1.9,1.1,2.9,2.5,3.6,4.3c0.7,1.8,0.8,4.5,0.8,8.2v32.6h10v-32.9C387.5,164.4,387.4,161.5,387,159.9z"/>
	<path class="st0" d="M368.1,165.5l-0.1,39.9c0,3.1,2.5,5.6,5.6,5.6h18.8c3.1,0,5.7-2.5,5.7-5.7v-36.8c0-5.3-0.5-8.8-0.9-10.9
		c-0.8-3.8-2.5-7.4-4.8-10.5c-2.5-3.3-6.1-5.9-10.6-7.8c-4.1-1.7-8.3-2.5-13-2.5c-3,0-5.9,0.3-8.6,1h-23.7c-2.4,0-4.3,1.9-4.3,4.3
		l0,0c-1.5-0.4-3.1-0.6-4.7-0.6c-10.3,0-18.6,8.3-18.6,18.6c0,2.2,0.4,4.4,1.2,6.5l-0.3,0.7c-0.7,1.9-3.4,1.9-4.1,0l-14.9-37.5
		c-0.4-1-0.5-2.1-0.2-3.2c0.4-1.4,0.5-2.9,0.5-4.5c0-11-9.5-19.7-20.7-18.5c-8.6,1-15.6,8-16.4,16.7c-0.6,6.6,2.2,12.7,7.1,16.5
		c0.6,0.5,1.1,1.2,1.4,1.9c0.9,2.2,2.6,6.6,3.5,8.8c0.4,0.9,0.3,1.9,0,2.8l-3.9,9.9c-0.8,2-3.8,1.7-4.1-0.4v0
		c-0.9-5-2.6-9.3-5.2-12.6c-2.8-3.6-6.7-6.3-11.9-8.2c-4.4-1.6-9.4-2.4-14.9-2.4c-3.8,0-7.5,0.5-10.9,1.4c-3.6,1-6.6,2.3-9,4
		c-1.8,1.2-3.5,2.7-4.9,4.3c-1.3,1.5-3.6,1.7-5,0.3l0,0c-6.8-6.6-15.5-10-25.8-10c-6.7,0-12.8,1.4-18.1,4.3
		c-1.6,0.9-3.5,0.9-5.1-0.1l0,0c-4.8-2.8-9.8-4.3-14.8-4.3c-2.5,0-4.9,0.4-7.1,1.2h-18c-3.3,0-6,2.7-6,6v60.8c0,3.4,2.8,6.2,6.2,6.2
		h18c3.2,0,5.8-2.6,5.8-5.8v-32c0-2,0.2-3.9,0.6-5.6c0.2-0.9,1.3-1.4,2.1-0.9l0,0l0.7,0.4c-0.3,2.3-0.5,4.8-0.5,7.3
		c0,11.7,3.4,21,10.2,27.7c6.7,6.6,15.5,10,26,10c6.5,0,12.6-1.5,18.1-4.4c3.1-1.6,5.9-3.7,8.2-6.1c1.1-1.2,3.1-1.1,4.1,0.2
		c1.3,1.5,2.7,2.8,4.2,4c5.6,4.2,13.2,6.3,22.6,6.3c5.7,0,10.9-1,15.6-2.9c1-0.4,2-0.9,2.9-1.4c0.8-0.4,1.8-0.2,2.4,0.5
		c3.4,4.5,8.8,7.5,14.9,7.5c10.3,0,18.6-8.3,18.6-18.6c0-2-0.3-4-1-5.9l0,0c0.5-1.1,2.1-1.2,2.5,0l5.9,14.5l2.1,5.3
		c0.3,0.9,0.3,1.9,0,2.7l-5.1,12.9c-0.1,0.3-0.4,0.6-0.7,0.9c-5.8,4.7-8.7,12.7-6.1,20.5c2.3,6.9,8.5,11.9,15.8,12.6
		c11.1,1.1,20.4-7.6,20.4-18.5c0-1.9-0.3-3.8-0.9-5.6c-0.2-0.7-0.2-1.4,0-2.1l15.4-39.6c0.3-0.9,1.6-0.6,1.6,0.3v8.7
		c0,3.9,3.2,7.1,7.1,7.1h16.5c3.5,0,6.4-2.9,6.4-6.4v-32.4c0-1.4,0.1-2.6,0.2-3.5C362.8,164.2,366.3,163.3,368.1,165.5"/>
	<path class="st0" d="M327.3,151.7c-4.7,0-8.6,3.8-8.6,8.6c0,2.2,0.8,4.2,2.2,5.7l-13.3,33.9l-28.7-72.2c1.2-1.5,2-3.4,2-5.5
		c0-4.7-3.8-8.6-8.6-8.6c-4.7,0-8.6,3.8-8.6,8.6c0,3.9,2.5,7.1,6,8.2l7.4,18.7l-15.9,39.8c-3.7,0.9-6.5,4.3-6.5,8.3
		c0,4.7,3.8,8.6,8.6,8.6c4.7,0,8.6-3.8,8.6-8.6c0-2-0.7-3.9-1.9-5.4l12-30.5l16.7,40.8l4.1,10.4l-8.5,21.7c-3.2,1.2-5.6,4.4-5.6,8
		c0,4.7,3.8,8.6,8.6,8.6c4.7,0,8.6-3.8,8.6-8.6c0-2.2-0.9-4.3-2.3-5.8l26.4-68c3.4-1.1,5.9-4.4,5.9-8.2
		C335.9,155.5,332,151.7,327.3,151.7z"/>
</g>
<g>
	<g>
		<path class="st1" d="M111.5,201v-53h8.5v8c2.2-3.8,4.2-6.2,6-7.4c1.8-1.2,3.9-1.8,6.1-1.8c3.2,0,6.4,1,9.7,2.9l-3.3,8.3
			c-2.3-1.3-4.6-1.9-6.9-1.9c-2.1,0-3.9,0.6-5.6,1.8c-1.6,1.2-2.8,2.8-3.5,4.9c-1.1,3.2-1.6,6.7-1.6,10.5V201H111.5z"/>
		<path class="st1" d="M143.9,174.5c0-9.8,2.9-17.1,8.6-21.8c4.8-3.9,10.7-5.9,17.6-5.9c7.7,0,14,2.4,18.8,7.2
			c4.9,4.8,7.3,11.4,7.3,19.8c0,6.8-1.1,12.2-3.2,16.1c-2.2,3.9-5.3,6.9-9.4,9.1c-4.1,2.2-8.6,3.2-13.5,3.2c-7.8,0-14.1-2.4-19-7.1
			C146.3,190.3,143.9,183.4,143.9,174.5z M153.7,174.5c0,6.8,1.6,11.9,4.7,15.2c3.1,3.4,7,5.1,11.8,5.1c4.7,0,8.6-1.7,11.7-5.1
			c3.1-3.4,4.7-8.6,4.7-15.5c0-6.6-1.6-11.5-4.7-14.9c-3.1-3.4-7-5.1-11.7-5.1c-4.7,0-8.7,1.7-11.8,5
			C155.2,162.6,153.7,167.7,153.7,174.5z"/>
		<path class="st1" d="M203.6,185.2l9.4-1.4c0.5,3.6,2,6.3,4.4,8.2s5.8,2.8,10.1,2.8c4.3,0,7.6-0.8,9.7-2.5c2.1-1.7,3.2-3.6,3.2-5.9
			c0-2-0.9-3.6-2.8-4.8c-1.3-0.8-4.5-1.8-9.7-3c-6.9-1.7-11.8-3.1-14.4-4.3c-2.7-1.2-4.7-2.9-6.1-5c-1.4-2.1-2.1-4.5-2.1-7.1
			c0-2.4,0.6-4.5,1.7-6.6c1.1-2,2.7-3.7,4.7-5c1.5-1,3.5-1.9,6-2.6c2.5-0.7,5.3-1.1,8.2-1.1c4.4,0,8.2,0.6,11.5,1.8
			c3.3,1.2,5.8,2.8,7.3,4.9c1.6,2,2.7,4.8,3.3,8.2l-9.3,1.2c-0.4-2.7-1.6-4.9-3.7-6.4c-2-1.5-4.9-2.3-8.5-2.3c-4.3,0-7.5,0.7-9.3,2
			c-1.9,1.4-2.8,3-2.8,4.8c0,1.2,0.4,2.2,1.2,3.1c0.8,1,2,1.8,3.6,2.4c0.9,0.3,3.7,1.1,8.4,2.3c6.7,1.7,11.4,3.1,14,4.2
			c2.6,1.1,4.7,2.7,6.2,4.7c1.5,2.1,2.3,4.6,2.3,7.7c0,3-0.9,5.8-2.8,8.5s-4.5,4.7-8,6.1c-3.5,1.4-7.4,2.2-11.8,2.2
			c-7.3,0-12.8-1.4-16.6-4.3C207,195,204.6,190.8,203.6,185.2z"/>
		<path class="st1" d="M342.2,201.2v-53h8.5v7.5c4.1-5.8,10-8.7,17.8-8.7c3.4,0,6.5,0.6,9.3,1.7c2.8,1.1,4.9,2.7,6.3,4.5
			c1.4,1.9,2.4,4.1,2.9,6.6c0.4,1.7,0.5,4.6,0.5,8.7v32.6h-9.5v-32.2c0-3.7-0.4-6.4-1.1-8.2c-0.7-1.8-2-3.3-3.9-4.3
			c-1.9-1.1-4.1-1.6-6.6-1.6c-4,0-7.5,1.2-10.4,3.6c-2.9,2.4-4.4,7-4.4,13.8v28.9H342.2z"/>
		<polygon class="st1" points="323.2,160 307.6,199.9 275.8,120 265.6,120 277.1,149.1 256.4,201 266.4,201 282,161.4 298.7,202.2 
			298.7,202.2 302.7,212.6 291.2,242 301.4,242 333.2,160 		"/>
	</g>
</g>
<circle class="st2" cx="272.3" cy="122.3" r="8.6"/>
<circle class="st2" cx="263.3" cy="197.3" r="8.6"/>
<circle class="st2" cx="297.3" cy="242.3" r="8.6"/>
<circle class="st2" cx="327.3" cy="160.3" r="8.6"/>
<line class="st3" x1="250" y1="-7894" x2="250" y2="8489"/>
</svg>
