<?xml version="1.0" encoding="UTF-8"?>
<!DOCTYPE svg PUBLIC "-//W3C//DTD SVG 1.1//EN" "http://www.w3.org/Graphics/SVG/1.1/DTD/svg11.dtd">
<svg version="1.1" xmlns="http://www.w3.org/2000/svg" xmlns:xlink="http://www.w3.org/1999/xlink" x="0" y="0" width="500" height="356" viewBox="0, 0, 500, 356">
  <g id="Layer_8">
    <path d="M125.767,148.582 C123.926,149.779 121.501,152.258 119.501,156.016 L119.501,148.499 L110.501,148.499 L110.501,201.499 L120.501,201.499 L120.501,173.229 C120.501,169.436 121.243,165.944 122.296,162.751 C122.997,160.656 124.28,159.018 125.929,157.837 C127.576,156.658 129.489,156.065 131.558,156.065 C133.872,156.065 136.214,156.715 138.527,158.012 L141.803,149.68 C138.507,147.751 135.146,146.786 131.956,146.786 C129.747,146.786 127.608,147.385 125.767,148.582" fill="#FFFFFF"/>
    <path d="M125.767,148.582 C123.926,149.779 121.501,152.258 119.501,156.016 L119.501,148.499 L110.501,148.499 L110.501,201.499 L120.501,201.499 L120.501,173.229 C120.501,169.436 121.243,165.944 122.296,162.751 C122.997,160.656 124.28,159.018 125.929,157.837 C127.576,156.658 129.489,156.065 131.558,156.065 C133.872,156.065 136.214,156.715 138.527,158.012 L141.803,149.68 C138.507,147.751 135.146,146.786 131.956,146.786 C129.747,146.786 127.608,147.385 125.767,148.582 z" fill-opacity="0" stroke="#C0C0C0" stroke-width="1"/>
    <path d="M181.844,189.693 C178.721,193.086 174.812,194.782 170.115,194.782 C165.381,194.782 161.452,193.094 158.333,189.718 C155.21,186.342 153.65,181.261 153.65,174.476 C153.65,167.691 155.21,162.62 158.333,159.259 C161.452,155.9 165.381,154.22 170.115,154.22 C174.777,154.22 178.678,155.909 181.818,159.285 C184.954,162.661 186.525,167.625 186.525,174.177 C186.525,181.129 184.965,186.3 181.844,189.693 M170.115,146.787 C163.206,146.787 157.35,148.75 152.547,152.673 C146.796,157.397 143.921,164.665 143.921,174.476 C143.921,183.423 146.331,190.275 151.152,195.031 C155.973,199.788 162.295,202.166 170.115,202.166 C174.988,202.166 179.484,201.085 183.605,198.923 C187.726,196.761 190.865,193.726 193.021,189.818 C195.176,185.91 196.256,180.547 196.256,173.728 C196.256,165.313 193.818,158.719 188.945,153.946 C184.07,149.173 177.794,146.787 170.115,146.787" fill="#FFFFFF"/>
    <path d="M181.844,189.693 C178.721,193.086 174.812,194.782 170.115,194.782 C165.381,194.782 161.452,193.094 158.333,189.718 C155.21,186.342 153.65,181.261 153.65,174.476 C153.65,167.691 155.21,162.62 158.333,159.259 C161.452,155.9 165.381,154.22 170.115,154.22 C174.777,154.22 178.678,155.909 181.818,159.285 C184.954,162.661 186.525,167.625 186.525,174.177 C186.525,181.129 184.965,186.3 181.844,189.693 z M170.115,146.787 C163.206,146.787 157.35,148.75 152.547,152.673 C146.796,157.397 143.921,164.665 143.921,174.476 C143.921,183.423 146.331,190.275 151.152,195.031 C155.973,199.788 162.295,202.166 170.115,202.166 C174.988,202.166 179.484,201.085 183.605,198.923 C187.726,196.761 190.865,193.726 193.021,189.818 C195.176,185.91 196.256,180.547 196.256,173.728 C196.256,165.313 193.818,158.719 188.945,153.946 C184.07,149.173 177.794,146.787 170.115,146.787 z" fill-opacity="0" stroke="#C0C0C0" stroke-width="1"/>
    <path d="M241.463,173.004 C238.815,171.924 234.143,170.534 227.446,168.838 C222.817,167.641 220.029,166.876 219.083,166.543 C217.434,165.911 216.224,165.113 215.453,164.149 C214.682,163.218 214.296,162.17 214.296,161.005 C214.296,159.176 215.225,157.58 217.084,156.216 C218.942,154.853 222.046,154.17 226.394,154.17 C230.076,154.17 232.924,154.936 234.941,156.465 C236.957,157.995 238.176,160.124 238.596,162.851 L247.854,161.653 C247.257,158.229 246.171,155.492 244.593,153.446 C243.015,151.401 240.569,149.779 237.255,148.582 C233.942,147.385 230.093,146.786 225.71,146.786 C222.799,146.786 220.073,147.144 217.531,147.858 C214.988,148.574 212.981,149.447 211.508,150.479 C209.545,151.809 207.993,153.481 206.854,155.492 C205.713,157.505 205.144,159.691 205.144,162.053 C205.144,164.648 205.836,167.017 207.222,169.162 C208.607,171.308 210.641,172.987 213.323,174.201 C216.005,175.416 220.818,176.855 227.761,178.517 C232.916,179.748 236.142,180.762 237.44,181.561 C239.297,182.725 240.227,184.321 240.227,186.35 C240.227,188.612 239.175,190.583 237.071,192.262 C234.967,193.941 231.741,194.781 227.393,194.781 C223.08,194.781 219.722,193.833 217.32,191.938 C214.919,190.042 213.455,187.315 212.929,183.755 L203.566,185.152 C204.618,190.774 207.046,195.015 210.851,197.875 C214.655,200.736 220.187,202.166 227.446,202.166 C231.829,202.166 235.756,201.442 239.228,199.996 C242.699,198.548 245.356,196.503 247.196,193.858 C249.037,191.214 249.958,188.396 249.958,185.401 C249.958,182.342 249.203,179.781 247.696,177.719 C246.188,175.656 244.11,174.085 241.463,173.004" fill="#FFFFFF"/>
    <path d="M241.463,173.004 C238.815,171.924 234.143,170.534 227.446,168.838 C222.817,167.641 220.029,166.876 219.083,166.543 C217.434,165.911 216.224,165.113 215.453,164.149 C214.682,163.218 214.296,162.17 214.296,161.005 C214.296,159.176 215.225,157.58 217.084,156.216 C218.942,154.853 222.046,154.17 226.394,154.17 C230.076,154.17 232.924,154.936 234.941,156.465 C236.957,157.995 238.176,160.124 238.596,162.851 L247.854,161.653 C247.257,158.229 246.171,155.492 244.593,153.446 C243.015,151.401 240.569,149.779 237.255,148.582 C233.942,147.385 230.093,146.786 225.71,146.786 C222.799,146.786 220.073,147.144 217.531,147.858 C214.988,148.574 212.981,149.447 211.508,150.479 C209.545,151.809 207.993,153.481 206.854,155.492 C205.713,157.505 205.144,159.691 205.144,162.053 C205.144,164.648 205.836,167.017 207.222,169.162 C208.607,171.308 210.641,172.987 213.323,174.201 C216.005,175.416 220.818,176.855 227.761,178.517 C232.916,179.748 236.142,180.762 237.44,181.561 C239.297,182.725 240.227,184.321 240.227,186.35 C240.227,188.612 239.175,190.583 237.071,192.262 C234.967,193.941 231.741,194.781 227.393,194.781 C223.08,194.781 219.722,193.833 217.32,191.938 C214.919,190.042 213.455,187.315 212.929,183.755 L203.566,185.152 C204.618,190.774 207.046,195.015 210.851,197.875 C214.655,200.736 220.187,202.166 227.446,202.166 C231.829,202.166 235.756,201.442 239.228,199.996 C242.699,198.548 245.356,196.503 247.196,193.858 C249.037,191.214 249.958,188.396 249.958,185.401 C249.958,182.342 249.203,179.781 247.696,177.719 C246.188,175.656 244.11,174.085 241.463,173.004 z" fill-opacity="0" stroke="#C0C0C0" stroke-width="1"/>
    <path d="M387.039,159.856 C386.477,157.295 385.529,155.084 384.126,153.22 C382.723,151.358 380.627,149.853 377.805,148.706 C374.982,147.558 371.765,146.984 368.399,146.984 C360.649,146.984 354.5,149.895 350.5,155.714 L350.5,148.5 L341.5,148.5 L341.5,201.5 L351.5,201.5 L351.5,172.229 C351.5,165.444 353.067,160.837 355.995,158.409 C358.922,155.981 362.454,154.767 366.487,154.767 C369.012,154.767 371.238,155.308 373.114,156.388 C374.99,157.469 375.978,158.917 376.714,160.729 C377.45,162.543 377.5,165.278 377.5,168.936 L377.5,201.5 L387.5,201.5 L387.5,168.586 C387.5,164.429 387.39,161.519 387.039,159.856" fill="#FFFFFF"/>
    <path d="M387.039,159.856 C386.477,157.295 385.529,155.084 384.126,153.22 C382.723,151.358 380.627,149.853 377.805,148.706 C374.982,147.558 371.765,146.984 368.399,146.984 C360.649,146.984 354.5,149.895 350.5,155.714 L350.5,148.5 L341.5,148.5 L341.5,201.5 L351.5,201.5 L351.5,172.229 C351.5,165.444 353.067,160.837 355.995,158.409 C358.922,155.981 362.454,154.767 366.487,154.767 C369.012,154.767 371.238,155.308 373.114,156.388 C374.99,157.469 375.978,158.917 376.714,160.729 C377.45,162.543 377.5,165.278 377.5,168.936 L377.5,201.5 L387.5,201.5 L387.5,168.586 C387.5,164.429 387.39,161.519 387.039,159.856 z" fill-opacity="0" stroke="#C0C0C0" stroke-width="1"/>
    <path d="M368.122,165.5 L368,205.445 C368,208.513 370.487,211 373.554,211 L392.338,211 C395.465,211 398,208.465 398,205.338 L398,168.586 C398,163.296 397.497,159.797 397.057,157.714 C396.214,153.866 394.593,150.331 392.238,147.202 C389.752,143.902 386.184,141.292 381.633,139.441 C377.564,137.787 373.327,136.984 368.68,136.984 C365.631,136.984 362.742,137.326 360.033,138 L336.302,138 C333.926,138 332,139.925 332,142.301 C330.484,141.901 328.902,141.666 327.262,141.666 C317.009,141.666 308.667,150.008 308.667,160.261 C308.667,162.503 309.071,164.701 309.843,166.763 L309.574,167.45 C308.842,169.32 306.197,169.328 305.455,167.462 L290.518,129.922 C290.112,128.902 290.05,127.782 290.314,126.716 C290.672,125.267 290.857,123.771 290.857,122.261 C290.857,111.309 281.339,102.538 270.14,103.785 C261.497,104.747 254.55,111.817 253.749,120.478 C253.137,127.097 255.969,133.214 260.892,136.996 C261.531,137.487 261.998,138.159 262.294,138.907 C263.153,141.073 264.901,145.486 265.791,147.731 C266.141,148.616 266.139,149.6 265.786,150.484 L261.838,160.368 C261.031,162.389 258.079,162.081 257.705,159.937 L257.705,159.937 C256.83,154.91 255.082,150.672 252.51,147.337 C249.758,143.771 245.769,141.025 240.654,139.177 C236.262,137.59 231.234,136.786 225.71,136.786 C221.898,136.786 218.236,137.273 214.822,138.233 C211.189,139.255 208.25,140.567 205.84,142.241 C204.007,143.489 202.381,144.939 200.971,146.574 C199.672,148.08 197.398,148.23 195.978,146.837 L195.94,146.799 C189.153,140.155 180.464,136.786 170.114,136.786 C163.408,136.786 157.338,138.235 151.975,141.099 C150.368,141.958 148.442,141.969 146.869,141.048 C142.035,138.22 137.062,136.786 132.09,136.786 C129.611,136.786 127.233,137.193 124.981,138 L106.981,138 C103.678,138 101,140.677 101,143.981 L101,204.822 C101,208.234 103.766,211 107.178,211 L125.208,211 C128.407,211 131,208.406 131,205.208 L131,173.229 C131,171.192 131.189,169.319 131.557,167.654 C131.764,166.719 132.836,166.269 133.671,166.735 L134.414,167.152 C134.09,169.477 133.92,171.915 133.92,174.476 C133.92,186.156 137.355,195.467 144.129,202.149 C150.865,208.796 159.608,212.166 170.114,212.166 C176.6,212.166 182.702,210.689 188.251,207.778 C191.381,206.136 194.128,204.104 196.486,201.714 C197.635,200.549 199.537,200.648 200.603,201.89 C201.86,203.356 203.269,204.686 204.84,205.866 C210.397,210.047 218.003,212.166 227.447,212.166 C233.136,212.166 238.394,211.176 243.075,209.226 C244.089,208.803 245.057,208.336 245.984,207.832 C246.808,207.383 247.823,207.62 248.385,208.372 C251.777,212.908 257.175,215.857 263.262,215.857 C273.515,215.857 281.857,207.515 281.857,197.261 C281.857,195.261 281.53,193.279 280.903,191.398 C281.356,190.248 282.98,190.238 283.447,191.382 L289.37,205.883 L291.441,211.184 C291.785,212.065 291.784,213.043 291.439,213.924 L286.383,226.82 C286.247,227.169 286.014,227.47 285.721,227.703 C279.879,232.358 277.027,240.383 279.642,248.186 C281.948,255.066 288.187,260.064 295.409,260.767 C306.491,261.845 315.857,253.126 315.857,242.261 C315.857,240.347 315.563,238.465 314.998,236.674 C314.779,235.981 314.771,235.239 315.033,234.561 L330.398,194.94 C330.73,194.084 332,194.322 332,195.24 L332,203.927 C332,207.833 335.167,211 339.073,211 L355.6,211 C359.135,211 362,208.134 362,204.599 L362,172.229 C362,170.801 362.051,169.663 362.177,168.774 C362.834,164.166 366.334,163.333 368.122,165.5" fill="#FFFFFF"/>
    <path d="M327.262,151.667 C322.515,151.667 318.667,155.515 318.667,160.262 C318.667,162.472 319.508,164.481 320.879,166.003 L307.606,199.919 L278.886,127.738 C280.117,126.251 280.857,124.343 280.857,122.262 C280.857,117.515 277.009,113.667 272.262,113.667 C267.515,113.667 263.667,117.515 263.667,122.262 C263.667,126.119 266.208,129.383 269.707,130.471 L277.099,149.123 L261.198,188.927 C257.45,189.852 254.667,193.228 254.667,197.262 C254.667,202.009 258.515,205.857 263.262,205.857 C268.009,205.857 271.857,202.009 271.857,197.262 C271.857,195.226 271.145,193.358 269.962,191.885 L281.991,161.371 L298.656,202.174 L302.715,212.561 L294.219,234.232 C290.976,235.462 288.667,238.588 288.667,242.262 C288.667,247.009 292.515,250.857 297.262,250.857 C302.009,250.857 305.857,247.009 305.857,242.262 C305.857,240.016 304.988,237.977 303.577,236.446 L329.957,168.42 C333.382,167.289 335.857,164.067 335.857,160.262 C335.857,155.515 332.009,151.667 327.262,151.667" fill="#FFFFFF"/>
    <path d="M327.262,151.667 C322.515,151.667 318.667,155.515 318.667,160.262 C318.667,162.472 319.508,164.481 320.879,166.003 L307.606,199.919 L278.886,127.738 C280.117,126.251 280.857,124.343 280.857,122.262 C280.857,117.515 277.009,113.667 272.262,113.667 C267.515,113.667 263.667,117.515 263.667,122.262 C263.667,126.119 266.208,129.383 269.707,130.471 L277.099,149.123 L261.198,188.927 C257.45,189.852 254.667,193.228 254.667,197.262 C254.667,202.009 258.515,205.857 263.262,205.857 C268.009,205.857 271.857,202.009 271.857,197.262 C271.857,195.226 271.145,193.358 269.962,191.885 L281.991,161.371 L298.656,202.174 L302.715,212.561 L294.219,234.232 C290.976,235.462 288.667,238.588 288.667,242.262 C288.667,247.009 292.515,250.857 297.262,250.857 C302.009,250.857 305.857,247.009 305.857,242.262 C305.857,240.016 304.988,237.977 303.577,236.446 L329.957,168.42 C333.382,167.289 335.857,164.067 335.857,160.262 C335.857,155.515 332.009,151.667 327.262,151.667 z" fill-opacity="0" stroke="#C0C0C0" stroke-width="1"/>
    <path d="M111.467,200.969 L111.467,147.984 L119.988,147.984 L119.988,156.016 C122.162,152.259 124.169,149.78 126.01,148.583 C127.851,147.386 129.876,146.787 132.085,146.787 C135.276,146.787 138.52,147.752 141.816,149.68 L138.555,158.012 C136.24,156.716 133.926,156.066 131.612,156.066 C129.543,156.066 127.684,156.658 126.037,157.838 C124.388,159.018 123.214,160.657 122.512,162.752 C121.461,165.945 120.935,169.437 120.935,173.229 L120.935,200.969 z" fill="#CE3C3A"/>
    <path d="M153.651,174.476 C153.651,181.261 155.211,186.342 158.333,189.718 C161.453,193.094 165.38,194.782 170.114,194.782 C174.813,194.782 178.722,193.085 181.844,189.693 C184.964,186.3 186.525,181.128 186.525,174.177 C186.525,167.624 184.955,162.661 181.818,159.285 C178.679,155.909 174.777,154.22 170.114,154.22 C165.38,154.22 161.453,155.9 158.333,159.259 C155.211,162.62 153.651,167.691 153.651,174.476 M143.921,174.476 C143.921,164.664 146.796,157.397 152.547,152.673 C157.35,148.749 163.206,146.787 170.114,146.787 C177.794,146.787 184.07,149.173 188.944,153.946 C193.818,158.719 196.255,165.313 196.255,173.728 C196.255,180.546 195.177,185.91 193.021,189.818 C190.864,193.726 187.726,196.761 183.606,198.923 C179.485,201.085 174.988,202.166 170.114,202.166 C162.295,202.166 155.974,199.788 151.153,195.031 C146.331,190.275 143.921,183.423 143.921,174.476" fill="#CE3C3A"/>
    <path d="M203.566,185.153 L212.929,183.756 C213.455,187.315 214.919,190.043 217.32,191.938 C219.722,193.834 223.08,194.782 227.393,194.782 C231.741,194.782 234.967,193.942 237.071,192.262 C239.175,190.584 240.227,188.613 240.227,186.35 C240.227,184.322 239.297,182.725 237.44,181.561 C236.142,180.762 232.916,179.749 227.761,178.517 C220.818,176.855 216.005,175.417 213.323,174.202 C210.641,172.988 208.607,171.308 207.222,169.163 C205.836,167.017 205.144,164.648 205.144,162.053 C205.144,159.692 205.713,157.506 206.854,155.493 C207.993,153.481 209.545,151.809 211.508,150.479 C212.981,149.448 214.988,148.575 217.531,147.859 C220.073,147.144 222.799,146.787 225.71,146.787 C230.093,146.787 233.941,147.385 237.255,148.583 C240.569,149.78 243.015,151.402 244.593,153.447 C246.17,155.493 247.257,158.229 247.854,161.654 L238.596,162.851 C238.176,160.125 236.957,157.996 234.941,156.466 C232.924,154.936 230.076,154.171 226.394,154.171 C222.045,154.171 218.942,154.853 217.084,156.216 C215.225,157.581 214.296,159.176 214.296,161.006 C214.296,162.171 214.682,163.218 215.453,164.149 C216.224,165.114 217.434,165.912 219.083,166.544 C220.029,166.877 222.817,167.641 227.446,168.839 C234.143,170.535 238.815,171.924 241.463,173.005 C244.11,174.086 246.188,175.657 247.696,177.719 C249.203,179.782 249.958,182.342 249.958,185.402 C249.958,188.396 249.037,191.215 247.196,193.859 C245.356,196.504 242.699,198.549 239.228,199.996 C235.756,201.443 231.829,202.166 227.446,202.166 C220.187,202.166 214.655,200.736 210.851,197.876 C207.046,195.015 204.618,190.774 203.566,185.153" fill="#CE3C3A"/>
    <path d="M342.238,201.166 L342.238,148.181 L350.759,148.181 L350.759,155.714 C354.862,149.895 360.787,146.984 368.537,146.984 C371.903,146.984 374.998,147.558 377.821,148.706 C380.643,149.853 382.756,151.358 384.159,153.22 C385.561,155.083 386.543,157.295 387.104,159.856 C387.455,161.519 387.631,164.429 387.631,168.586 L387.631,201.166 L378.163,201.166 L378.163,168.936 C378.163,165.278 377.795,162.542 377.058,160.729 C376.322,158.916 375.015,157.469 373.139,156.388 C371.263,155.308 369.063,154.767 366.539,154.767 C362.506,154.767 359.025,155.981 356.097,158.409 C353.17,160.837 351.706,165.444 351.706,172.229 L351.706,201.166 z" fill="#CE3C3A"/>
    <path d="M323.228,160 L307.605,199.918 L275.807,120 L265.557,120 L277.099,149.123 L256.376,201 L266.368,201 L281.991,161.371 L298.656,202.174 L302.715,212.561 L291.173,242 L301.423,242 L333.221,160 z" fill="#CE3C3A"/>
    <path d="M280.857,122.262 C280.857,127.009 277.009,130.857 272.262,130.857 C267.515,130.857 263.667,127.009 263.667,122.262 C263.667,117.515 267.515,113.667 272.262,113.667 C277.009,113.667 280.857,117.515 280.857,122.262" fill="#9B1616"/>
    <path d="M271.857,197.262 C271.857,202.009 268.009,205.857 263.262,205.857 C258.515,205.857 254.667,202.009 254.667,197.262 C254.667,192.515 258.515,188.667 263.262,188.667 C268.009,188.667 271.857,192.515 271.857,197.262" fill="#9B1616"/>
    <path d="M305.857,242.262 C305.857,247.009 302.009,250.857 297.262,250.857 C292.515,250.857 288.667,247.009 288.667,242.262 C288.667,237.515 292.515,233.667 297.262,233.667 C302.009,233.667 305.857,237.515 305.857,242.262" fill="#9B1616"/>
    <path d="M335.857,160.262 C335.857,165.009 332.009,168.857 327.262,168.857 C322.515,168.857 318.667,165.009 318.667,160.262 C318.667,155.515 322.515,151.667 327.262,151.667 C332.009,151.667 335.857,155.515 335.857,160.262" fill="#9B1616"/>
  </g>
</svg>
