<?xml version="1.0" encoding="utf-8"?>
<!-- Generator: Adobe Illustrator 19.0.1, SVG Export Plug-In . SVG Version: 6.00 Build 0)  -->
<svg version="1.1" id="Layer_1" xmlns="http://www.w3.org/2000/svg" xmlns:xlink="http://www.w3.org/1999/xlink" x="0px" y="0px"
	 viewBox="0 0 517.1 342.1" style="enable-background:new 0 0 517.1 342.1;" xml:space="preserve">
<style type="text/css">
	.st0{fill:#010101;}
	.st1{fill:#878584;}
	.st2{fill:#E91E25;}
	.st3{fill:#EE252C;}
	.st4{fill:#F0542A;}
	.st5{fill:#F36C22;}
	.st6{fill:#F57E20;}
	.st7{fill:#F69321;}
</style>
<g>
	<path class="st0" d="M51.5,121.3h52.9l21.4,72.2l24.4-72.7h43.6l24.4,72.7l21.4-72.2h52.1l-36.3,151.5l-57.2,0l-26.6-74.8
		l-26.6,74.8H101L51.5,121.3z"/>
	<path class="st1" d="M433.5,121.2l-49,73.9l51.2,77.8h-57.5l-24-39.4L330,272.9h-56.4h-22.8l29-9.3l45-67.8l-49-74.5h57.5
		l21.8,36.2l22-36.2H433.5z"/>
	<path class="st2" d="M243.8,160.9l-7.6-6c11.5-12.9,22-22,31.5-27.5c9.5-5.4,17.6-8.2,24.3-8.2c3.7,0,6.5,0.8,8.5,2.5
		c2,1.6,2.9,3.9,2.9,6.7c0,3.4-3.7,17.8-11.2,43.2c-12.2,41.6-18.3,66.6-18.3,75.2c0,1.6,0.4,3,1.2,4.1c0.8,1.1,1.7,1.7,2.6,1.7
		c3.7,0,13.1-7.3,28.4-21.8l6.7,6.7c-15.8,15.1-27.3,24.8-34.6,29c-7.3,4.2-13.2,6.3-17.8,6.3c-4,0-7.2-1.3-9.6-3.9
		s-3.5-6.1-3.5-10.7c0-14.6,8.6-50.4,25.9-107.3c0.8-2.7,1.2-5.1,1.2-7.2c0-2.3-1-3.5-3.1-3.5c-2.3,0-4.9,0.9-7.9,2.8
		C260.5,144.9,254,150.9,243.8,160.9z"/>
	<path class="st3" d="M305.4,76.9c7.7,3.9,10.7,13.3,6.8,21.1c-3.9,7.6-13.3,10.7-21,6.8c-7.7-3.9-10.8-13.4-6.9-21
		C288.3,76,297.7,73,305.4,76.9L305.4,76.9z"/>
	<path class="st4" d="M318.3,48.3c6.1,3.1,8.5,10.6,5.4,16.8c-3.1,6.1-10.6,8.5-16.7,5.4c-6.1-3.1-8.6-10.7-5.5-16.8
		C304.6,47.6,312.2,45.1,318.3,48.3L318.3,48.3z"/>
	<path class="st5" d="M343.9,36.5c4.9,2.5,6.9,8.6,4.4,13.6c-2.5,4.9-8.6,6.9-13.5,4.4c-5-2.5-7-8.6-4.4-13.6
		C332.8,35.9,338.9,33.9,343.9,36.5L343.9,36.5z"/>
	<path class="st6" d="M366.9,40.3c3.7,1.9,5.2,6.5,3.3,10.3c-1.9,3.7-6.5,5.2-10.3,3.3c-3.8-1.9-5.3-6.5-3.4-10.3
		C358.5,39.8,363.1,38.3,366.9,40.3L366.9,40.3z"/>
	<path class="st7" d="M382.5,52.3c2.5,1.2,3.4,4.3,2.2,6.7c-1.2,2.4-4.3,3.4-6.7,2.2c-2.5-1.3-3.5-4.3-2.2-6.7
		C377.1,52,380.1,51,382.5,52.3L382.5,52.3z"/>
	<path class="st7" d="M391.2,64.6c1.7,0.8,2.3,2.9,1.5,4.6c-0.8,1.7-2.9,2.3-4.6,1.5c-1.7-0.9-2.3-2.9-1.5-4.6
		C387.5,64.4,389.6,63.7,391.2,64.6L391.2,64.6z"/>
	<path class="st7" d="M395.9,75.4c1.3,0.7,1.8,2.3,1.2,3.6c-0.7,1.3-2.3,1.8-3.6,1.2c-1.3-0.7-1.8-2.3-1.2-3.6
		C393,75.3,394.6,74.7,395.9,75.4L395.9,75.4z"/>
	<path class="st3" d="M457.2,226c-7.8,3.6-17.1,0.1-20.7-7.8c-3.6-7.8-0.1-17.1,7.7-20.7c7.9-3.6,17.2-0.2,20.8,7.6
		C468.6,213,465.1,222.4,457.2,226L457.2,226z"/>
	<path class="st4" d="M471.7,253.9c-6.2,2.9-13.6,0.1-16.5-6.2c-2.8-6.2-0.1-13.6,6.1-16.5c6.3-2.9,13.7-0.1,16.5,6.1
		C480.7,243.6,478,251,471.7,253.9L471.7,253.9z"/>
	<path class="st5" d="M465.1,281.2c-5,2.3-11,0.1-13.4-5c-2.3-5-0.1-11,5-13.3c5.1-2.3,11.1-0.1,13.4,4.9
		C472.4,272.9,470.1,278.9,465.1,281.2L465.1,281.2z"/>
	<path class="st6" d="M447.8,296.9c-3.8,1.7-8.4,0.1-10.1-3.8c-1.7-3.8-0.1-8.4,3.8-10.1c3.8-1.8,8.4-0.1,10.1,3.7
		C453.4,290.6,451.7,295.1,447.8,296.9L447.8,296.9z"/>
	<path class="st7" d="M428.7,301.7c-2.5,1.1-5.5,0-6.6-2.5c-1.1-2.5,0-5.5,2.5-6.6c2.5-1.2,5.5,0,6.6,2.4
		C432.3,297.6,431.2,300.6,428.7,301.7L428.7,301.7z"/>
	<path class="st7" d="M413.6,300.9c-1.7,0.8-3.7,0-4.5-1.7c-0.8-1.7,0-3.7,1.7-4.5c1.7-0.8,3.7,0,4.5,1.7
		C416.1,298.1,415.3,300.1,413.6,300.9L413.6,300.9z"/>
	<path class="st7" d="M402.2,297.9c-1.3,0.6-2.9,0-3.6-1.3c-0.6-1.3,0-2.9,1.3-3.5c1.3-0.6,2.9,0,3.6,1.3
		C404.2,295.6,403.6,297.2,402.2,297.9L402.2,297.9z"/>
</g>
</svg>
