<svg width="3829" height="429" viewBox="0 0 3829 429" fill="none" xmlns="http://www.w3.org/2000/svg">
<path d="M1389.04 8.72575H1323.83L1231.98 160.738L1139.67 8.72575H1074.45V330.201H1137.83V122.161L1228.3 270.958H1235.65L1326.12 121.701V330.201H1389.04V8.72575Z" fill="#4B4B4B"/>
<path d="M1443.43 73.0208C1463.64 73.0208 1480.17 56.4878 1480.17 36.74C1480.17 16.9923 1463.64 0 1443.43 0C1423.68 0 1407.15 16.9923 1407.15 36.74C1407.15 56.4878 1423.68 73.0208 1443.43 73.0208ZM1414.04 330.201H1473.28V100.576H1414.04V330.201Z" fill="#4B4B4B"/>
<path d="M1604.66 336.63C1649.67 336.63 1688.7 312.749 1708.45 276.928L1657.01 247.536C1647.83 266.365 1628.08 277.846 1604.2 277.846C1568.84 277.846 1542.66 251.669 1542.66 215.388C1542.66 178.648 1568.84 152.471 1604.2 152.471C1627.62 152.471 1647.37 164.412 1656.55 183.241L1707.53 153.39C1688.7 118.027 1649.67 94.1463 1604.66 94.1463C1534.85 94.1463 1483.42 146.96 1483.42 215.388C1483.42 283.817 1534.85 336.63 1604.66 336.63Z" fill="#4B4B4B"/>
<path d="M1768.67 140.071V100.576H1709.43V330.201H1768.67V220.44C1768.67 172.219 1807.71 158.441 1838.48 162.115V95.9833C1809.55 95.9833 1780.61 108.842 1768.67 140.071Z" fill="#4B4B4B"/>
<path d="M1941.76 336.63C2009.27 336.63 2063.46 283.817 2063.46 215.388C2063.46 146.96 2009.27 94.1463 1941.76 94.1463C1874.25 94.1463 1820.52 146.96 1820.52 215.388C1820.52 283.817 1874.25 336.63 1941.76 336.63ZM1941.76 278.765C1906.86 278.765 1879.76 252.588 1879.76 215.388C1879.76 178.189 1906.86 152.012 1941.76 152.012C1977.12 152.012 2004.22 178.189 2004.22 215.388C2004.22 252.588 1977.12 278.765 1941.76 278.765Z" fill="#4B4B4B"/>
<path d="M2122.71 165.789C2122.71 153.39 2134.65 146.96 2149.34 146.96C2166.34 146.96 2179.19 155.686 2186.08 170.382L2236.6 142.827C2218.69 111.139 2186.54 94.1463 2149.34 94.1463C2102.04 94.1463 2062.09 120.324 2062.09 167.167C2062.09 247.995 2180.57 229.625 2180.57 263.15C2180.57 276.469 2167.71 282.898 2148.88 282.898C2125.92 282.898 2110.31 271.876 2103.88 253.047L2052.44 281.98C2068.97 317.342 2102.96 336.63 2148.88 336.63C2198.02 336.63 2241.19 312.749 2241.19 263.15C2241.19 178.648 2122.71 199.774 2122.71 165.789Z" fill="#4B4B4B"/>
<path d="M2353.31 336.63C2420.82 336.63 2475.01 283.817 2475.01 215.388C2475.01 146.96 2420.82 94.1463 2353.31 94.1463C2285.8 94.1463 2232.07 146.96 2232.07 215.388C2232.07 283.817 2285.8 336.63 2353.31 336.63ZM2353.31 278.765C2318.41 278.765 2291.31 252.588 2291.31 215.388C2291.31 178.189 2318.41 152.012 2353.31 152.012C2388.67 152.012 2415.77 178.189 2415.77 215.388C2415.77 252.588 2388.67 278.765 2353.31 278.765Z" fill="#4B4B4B"/>
<path d="M2600.9 59.2433V2.29625C2527.88 -2.29625 2492.98 34.903 2492.98 98.2796V100.576H2459.91V157.523H2492.98V330.201H2552.22V157.523H2600.9V100.576H2552.22V98.2796C2552.22 67.0505 2570.13 56.947 2600.9 59.2433Z" fill="#4B4B4B"/>
<path d="M2734.43 157.523V100.576H2682.53V36.2808L2623.29 54.1915V100.576H2583.34V157.523H2623.29V253.047C2623.29 315.046 2651.3 339.386 2734.43 330.201V276.469C2700.44 278.306 2682.53 277.846 2682.53 253.047V157.523H2734.43Z" fill="#4B4B4B"/>
<path d="M2782.08 336.171C2803.67 336.171 2821.12 318.72 2821.12 297.135C2821.12 275.55 2803.67 258.099 2782.08 258.099C2760.5 258.099 2743.05 275.55 2743.05 297.135C2743.05 318.72 2760.5 336.171 2782.08 336.171Z" fill="#4B4B4B"/>
<path d="M3155.72 8.72575H3090.51L2998.66 160.738L2906.35 8.72575H2841.13V330.201H2904.51V122.161L2994.98 270.958H3002.33L3092.8 121.701V330.201H3155.72V8.72575Z" fill="#4B4B4B"/>
<path d="M3355.23 100.576V127.672C3338.7 107.005 3313.9 94.1463 3280.37 94.1463C3219.29 94.1463 3168.78 146.96 3168.78 215.388C3168.78 283.817 3219.29 336.63 3280.37 336.63C3313.9 336.63 3338.7 323.771 3355.23 303.105V330.201H3414.47V100.576H3355.23ZM3291.4 280.143C3255.11 280.143 3228.02 253.965 3228.02 215.388C3228.02 176.811 3255.11 150.634 3291.4 150.634C3328.14 150.634 3355.23 176.811 3355.23 215.388C3355.23 253.965 3328.14 280.143 3291.4 280.143Z" fill="#4B4B4B"/>
<path d="M3587.6 100.576V224.573C3587.6 264.528 3566.02 281.52 3537.08 281.52C3510.45 281.52 3491.62 265.447 3491.62 234.218V100.576H3432.37V241.566C3432.37 302.646 3470.49 336.63 3519.17 336.63C3549.94 336.63 3573.82 325.149 3587.6 304.483V330.201H3646.84V100.576H3587.6Z" fill="#4B4B4B"/>
<path d="M3698.35 73.0208C3718.56 73.0208 3735.09 56.4878 3735.09 36.74C3735.09 16.9923 3718.56 0 3698.35 0C3678.6 0 3662.07 16.9923 3662.07 36.74C3662.07 56.4878 3678.6 73.0208 3698.35 73.0208ZM3668.96 330.201H3728.2V100.576H3668.96V330.201Z" fill="#4B4B4B"/>
<path d="M3789.77 171.76C3811.36 171.76 3828.81 154.308 3828.81 132.723C3828.81 111.139 3811.36 93.687 3789.77 93.687C3768.19 93.687 3750.74 111.139 3750.74 132.723C3750.74 154.308 3768.19 171.76 3789.77 171.76ZM3828.35 266.824H3764.05L3745.68 394.496H3793.9L3828.35 266.824Z" fill="#4B4B4B"/>
<path d="M155.227 100.576V224.573C155.227 264.528 133.642 281.52 104.709 281.52C78.0725 281.52 59.2433 265.447 59.2433 234.218V100.576H0V241.566C0 302.646 38.1178 336.63 86.7983 336.63C117.568 336.63 141.449 325.149 155.227 304.483V330.201H214.47V100.576H155.227Z" fill="#5B5EF4"/>
<path d="M289.439 165.789C289.439 153.39 301.379 146.96 316.075 146.96C333.068 146.96 345.927 155.686 352.815 170.382L403.333 142.827C385.422 111.139 353.275 94.1463 316.075 94.1463C268.773 94.1463 228.818 120.324 228.818 167.167C228.818 247.995 347.304 229.625 347.304 263.15C347.304 276.469 334.445 282.898 315.616 282.898C292.654 282.898 277.039 271.876 270.61 253.047L219.174 281.98C235.707 317.342 269.691 336.63 315.616 336.63C364.756 336.63 407.925 312.749 407.925 263.15C407.925 178.648 289.439 199.774 289.439 165.789Z" fill="#5B5EF4"/>
<path d="M443.27 73.0208C463.477 73.0208 480.01 56.4878 480.01 36.74C480.01 16.9923 463.477 0 443.27 0C423.522 0 406.989 16.9923 406.989 36.74C406.989 56.4878 423.522 73.0208 443.27 73.0208ZM413.878 330.201H473.121V100.576H413.878V330.201Z" fill="#5B5EF4"/>
<path d="M622.869 94.1463C592.099 94.1463 568.218 105.628 554.441 126.294V100.576H495.197V330.201H554.441V206.203C554.441 166.249 576.025 149.256 604.958 149.256C631.595 149.256 650.424 165.33 650.424 196.559V330.201H709.667V189.211C709.667 128.131 671.549 94.1463 622.869 94.1463Z" fill="#5B5EF4"/>
<path d="M903.998 100.576V129.049C887.924 107.465 863.125 94.1463 830.518 94.1463C765.305 94.1463 716.165 147.419 716.165 211.714C716.165 276.469 765.305 329.282 830.518 329.282C863.125 329.282 887.924 315.964 903.998 294.379V319.179C903.998 355.46 881.036 375.667 843.836 375.667C808.474 375.667 793.319 361.43 783.675 343.519L733.157 372.452C753.364 409.651 792.86 428.481 841.999 428.481C902.62 428.481 961.864 394.496 961.864 319.179V100.576H903.998ZM839.703 274.632C802.504 274.632 775.408 248.454 775.408 211.714C775.408 175.434 802.504 149.256 839.703 149.256C876.902 149.256 903.998 175.434 903.998 211.714C903.998 248.454 876.902 274.632 839.703 274.632Z" fill="#5B5EF4"/>
</svg>
