<?xml version="1.0" encoding="UTF-8"?>
<!DOCTYPE svg PUBLIC "-//W3C//DTD SVG 1.1//EN" "http://www.w3.org/Graphics/SVG/1.1/DTD/svg11.dtd">
<svg version="1.1" xmlns="http://www.w3.org/2000/svg" xmlns:xlink="http://www.w3.org/1999/xlink" x="0" y="0" width="600" height="600" viewBox="0, 0, 600, 600">
  <g id="Layer_1"/>
  <g id="Layer_2" display="none">
    <path d="M0,600 L600,600 L600,0 L0,0 z" fill="#A25DA2"/>
  </g>
  <g id="Layer_4">
    <path d="M163,456.946 L493,456.946 L508,455.933 L519,444.794 L536,428.591 L542,407.324 L542,380.994 L534,359.728 L516,345.55 L495,339.474 L485,333.398 L489,285.802 L476,238.205 L453,195.672 L403,158.203 L357,142 L316,147.063 L289,153.14 L252,170.355 L229,189.596 L210,212.888 L186,249.345 L145,245.294 L112,256.434 L83,278.713 L67,298.967 L59,323.271 L54,347.576 L54,368.842 L64,393.147 L74,415.426 L92,430.616 L110,441.756 L127,452.895 L142,455.933 L163,456.946 z" fill="#A25DA2"/>
  </g>
  <g id="Layer_5"/>
  <g id="Layer_3">
    <g>
      <path d="M497.776,328.119 C499.5,318.411 500.374,308.583 500.374,298.778 C500.374,207.393 426.61,133.054 335.954,133.054 C268.846,133.054 209.039,173.91 183.853,235.812 C174.923,233.609 165.813,232.484 156.655,232.484 C92.707,232.484 40.669,284.916 40.669,349.379 C40.669,413.854 92.707,466.31 156.655,466.31 L156.799,466.31 L185.936,466.31 C192.208,466.31 197.296,461.211 197.296,454.938 C197.296,448.665 192.208,443.566 185.936,443.566 L157.816,443.566 C157.182,443.518 156.535,443.518 155.877,443.566 C104.821,443.147 63.414,401.057 63.414,349.379 C63.414,297.462 105.24,255.216 156.655,255.216 C166.938,255.216 177.161,256.988 187.049,260.472 C189.91,261.465 193.082,261.286 195.824,259.945 C198.565,258.616 200.648,256.222 201.618,253.325 C220.986,194.991 274.975,155.787 335.954,155.787 C414.076,155.787 477.641,219.938 477.641,298.778 C477.641,311.479 475.942,324.228 472.602,336.654 C471.608,340.329 472.53,344.256 475.044,347.129 C477.558,349.978 481.328,351.354 485.123,350.864 C486.883,350.624 488.714,350.481 490.57,350.481 C515.948,350.481 536.598,371.358 536.598,397.011 C536.598,421.109 518.007,441.447 494.281,443.314 C493.73,443.362 493.192,443.446 492.677,443.566 L317.292,443.566 C311.007,443.566 305.92,448.665 305.92,454.938 C305.92,461.211 311.007,466.31 317.292,466.31 L495.227,466.31 C496.424,466.31 497.585,466.095 498.698,465.724 C532.899,461.678 559.331,432.002 559.331,397.011 C559.331,361.266 532.312,331.758 497.776,328.119" fill="#FFFFFF"/>
      <path d="M335.954,127.054 C429.938,127.054 506.374,204.093 506.374,298.778 C506.338,306.925 505.867,315.096 504.617,323.154 C540.543,330.1 564.483,360.986 565.331,397.011 C565.2,434.578 536.925,466.334 499.951,471.604 C498.431,472.132 496.819,472.243 495.227,472.31 L317.292,472.31 C307.697,472.31 299.92,464.528 299.919,454.938 C299.92,445.349 307.697,437.566 317.292,437.566 L492.123,437.566 C492.953,437.405 492.393,437.503 493.81,437.333 C514.401,435.712 530.598,417.991 530.598,397.011 C530.598,374.656 512.619,356.481 490.57,356.48 C489.072,356.481 487.519,356.593 485.893,356.814 C480.12,357.561 474.376,355.441 470.528,351.08 C466.693,346.697 465.292,340.7 466.807,335.097 C470.014,323.167 471.641,310.942 471.641,298.778 C471.641,223.239 410.75,161.787 335.954,161.786 C277.57,161.787 225.869,199.326 207.307,255.23 C205.825,259.66 202.633,263.312 198.46,265.335 C194.289,267.375 189.46,267.66 185.055,266.131 C175.796,262.869 166.246,261.216 156.655,261.216 C108.569,261.216 69.414,300.76 69.414,349.379 C70.034,398.192 107.261,435.924 155.897,437.565 C157.18,437.518 156.54,437.518 157.816,437.566 L185.936,437.566 C195.522,437.566 203.296,445.351 203.296,454.938 C203.296,464.525 195.522,472.31 185.936,472.31 L156.655,472.31 C89.38,472.31 34.669,417.155 34.669,349.379 C34.669,281.617 89.378,226.484 156.655,226.484 C164.752,226.369 172.366,227.441 180.29,228.9 C207.316,166.135 268.515,128.333 335.954,127.054 z M335.954,133.054 C268.846,133.054 209.039,173.91 183.853,235.812 C174.923,233.609 165.813,232.484 156.655,232.484 C92.707,232.484 40.669,284.916 40.669,349.379 C40.669,413.854 92.707,466.31 156.655,466.31 L185.936,466.31 C192.208,466.31 197.296,461.211 197.296,454.938 C197.296,448.665 192.208,443.566 185.936,443.566 L157.816,443.566 C157.182,443.518 156.535,443.518 155.877,443.566 C104.821,443.147 63.414,401.057 63.414,349.379 C63.414,297.462 105.24,255.216 156.655,255.216 C166.938,255.216 177.161,256.988 187.049,260.472 C189.91,261.465 193.082,261.286 195.824,259.945 C198.565,258.616 200.648,256.222 201.618,253.325 C220.986,194.991 274.975,155.787 335.954,155.787 C414.076,155.787 477.641,219.938 477.641,298.778 C477.641,311.479 475.942,324.228 472.602,336.654 C471.608,340.329 472.53,344.256 475.044,347.129 C477.558,349.978 481.328,351.354 485.123,350.864 C486.883,350.624 488.714,350.481 490.57,350.481 C515.948,350.481 536.598,371.358 536.598,397.011 C536.598,421.109 518.007,441.447 494.281,443.314 C493.73,443.362 493.192,443.446 492.677,443.566 L317.292,443.566 C311.007,443.566 305.92,448.665 305.92,454.938 C305.92,461.211 311.007,466.31 317.292,466.31 L495.227,466.31 C496.424,466.31 497.585,466.095 498.698,465.724 C532.899,461.678 559.331,432.002 559.331,397.011 C559.331,361.266 532.312,331.758 497.776,328.119 C499.5,318.411 500.374,308.583 500.374,298.778 C500.374,207.393 426.61,133.054 335.954,133.054 z" fill="#A25DA2"/>
    </g>
    <g>
      <path d="M274.194,451.779 L427.35,298.624 C432.162,293.812 432.162,286.031 427.35,281.23 L396.453,250.322 C391.64,245.509 383.859,245.509 379.047,250.322 L223.57,405.787 L223.582,405.787 L223.57,405.787 L211.168,451.396 C208.666,460.578 217.082,468.993 226.263,466.503 L268.724,454.951 C270.795,454.389 272.674,453.299 274.194,451.779" fill="#FFFFFF"/>
      <path d="M385.996,240.796 C391.648,240.352 396.547,242.328 400.696,246.08 L431.587,276.982 C438.748,284.126 438.748,295.71 431.592,302.867 L278.437,456.022 C276.178,458.281 273.378,459.904 270.299,460.741 L227.833,472.294 C214.175,475.998 201.658,463.475 205.378,449.822 L215.72,411.787 L209.084,411.787 L218.199,402.673 L218.983,399.787 L221.085,399.787 L374.805,246.079 C378.422,242.558 381.214,241.724 385.996,240.796 z M388.929,246.769 C385.129,246.47 381.837,247.8 379.047,250.322 L223.57,405.787 L211.168,451.396 C208.666,460.578 217.082,468.993 226.263,466.503 L268.724,454.951 C270.795,454.389 272.674,453.299 274.194,451.779 L427.349,298.624 C432.162,293.812 432.162,286.031 427.35,281.23 L396.453,250.322 C394.236,248.06 391.93,247.351 388.929,246.769 z" fill="#A35DA2"/>
    </g>
  </g>
</svg>
